SplineFontDB: 3.0
FontName: ClematisMono-Bold
FullName: Clematis Mono Bold
FamilyName: Clematis Mono
Weight: Bold
Copyright: Copyright 2011 Canonical Ltd.  Licensed under the Ubuntu Font Licence 1.0\n(C) 2017 Uzuki.
Version: 0.2.2
ItalicAngle: 0
UnderlinePosition: -133
UnderlineWidth: 20
Ascent: 800
Descent: 200
InvalidEm: 0
LayerCount: 2
Layer: 0 1 "+gMyXYgAA" 1
Layer: 1 1 "+Uk2XYgAA" 0
XUID: [1021 283 709330389 30432]
StyleMap: 0x0020
FSType: 0
OS2Version: 3
OS2_WeightWidthSlopeOnly: 0
OS2_UseTypoMetrics: 0
CreationTime: 1304432203
ModificationTime: 1499096934
PfmFamily: 17
TTFWeight: 700
TTFWidth: 5
LineGap: 0
VLineGap: 0
Panose: 2 11 8 9 3 6 2 3 2 4
OS2TypoAscent: 693
OS2TypoAOffset: 0
OS2TypoDescent: -165
OS2TypoDOffset: 0
OS2TypoLinegap: 49
OS2WinAscent: 830
OS2WinAOffset: 0
OS2WinDescent: 170
OS2WinDOffset: 0
HheadAscent: 830
HheadAOffset: 0
HheadDescent: -170
HheadDOffset: 0
OS2SubXSize: 700
OS2SubYSize: 650
OS2SubXOff: 0
OS2SubYOff: 140
OS2SupXSize: 700
OS2SupYSize: 650
OS2SupXOff: 0
OS2SupYOff: 477
OS2StrikeYSize: 50
OS2StrikeYPos: 250
OS2CapHeight: 693
OS2XHeight: 520
OS2Vendor: 'DAMA'
OS2CodePages: 2000009f.56010000
OS2UnicodeRanges: e00002ff.5000205b.00000000.00000000
Lookup: 1 0 0 "'locl' +Vv0w+1cwV99W+mcJMG5bV19i in +MOkwxjDzZYdbVwAA lookup 0" { "'locl' +Vv0w+1cwV99W+mcJMG5bV19i in +MOkwxjDzZYdbVwAA lookup 0 +MLUw1jDGMPww1jDr"  } ['locl' ('latn' <'AZE ' > ) ]
Lookup: 1 0 0 "'locl' +Vv0w+1cwV99W+mcJMG5bV19i in +MOkwxjDzZYdbVwAA lookup 1" { "'locl' +Vv0w+1cwV99W+mcJMG5bV19i in +MOkwxjDzZYdbVwAA lookup 1 +MLUw1jDGMPww1jDr"  } ['locl' ('latn' <'TRK ' > ) ]
Lookup: 1 0 0 "'locl' +Vv0w+1cwV99W+mcJMG5bV19i in +MOkwxjDzZYdbVwAA lookup 2" { "'locl' +Vv0w+1cwV99W+mcJMG5bV19i in +MOkwxjDzZYdbVwAA lookup 2 +MLUw1jDGMPww1jDr"  } ['locl' ('latn' <'CRT ' > ) ]
Lookup: 1 0 0 "'locl' +Vv0w+1cwV99W+mcJMG5bV19i in +MK0w6jDrZYdbVwAA lookup 3" { "'locl' +Vv0w+1cwV99W+mcJMG5bV19i in +MK0w6jDrZYdbVwAA lookup 3 +MLUw1jDGMPww1jDr"  } ['locl' ('cyrl' <'BGR ' > ) ]

StartChar: SF030000.001
Encoding: 65536 -1 0
Width: 500
Flags: W
LayerCount: 2
Fore
SplineSet
424 53 m 1,0,-1
 424 742 l 1,1,-1
 106 742 l 1,2,-1
 106 53 l 1,3,-1
 424 53 l 1,0,-1
53 0 m 1,4,-1
 53 795 l 1,5,-1
 477 795 l 1,6,-1
 477 0 l 1,7,-1
 53 0 l 1,4,-1
EndSplineSet
EndChar

StartChar: exclam
Encoding: 33 33 4
Width: 500
Flags: W
LayerCount: 2
Fore
SplineSet
353 75 m 0,0,1
 353 34 353 34 326 10.5 c 128,-1,2
 299 -13 299 -13 265 -13 c 128,-1,3
 231 -13 231 -13 204 10.5 c 128,-1,4
 177 34 177 34 177 75 c 0,5,6
 177 115 177 115 204 138.5 c 128,-1,7
 231 162 231 162 265 162 c 128,-1,8
 299 162 299 162 326 138.5 c 128,-1,9
 353 115 353 115 353 75 c 0,0,1
340 482 m 2,10,11
 340 444 340 444 338.5 414 c 128,-1,12
 337 384 337 384 334.5 356 c 128,-1,13
 332 328 332 328 328 300 c 128,-1,14
 324 272 324 272 320 238 c 1,15,-1
 212 238 l 1,16,17
 207 272 207 272 203 300.5 c 128,-1,18
 199 329 199 329 196 356.5 c 128,-1,19
 193 384 193 384 191.5 414 c 128,-1,20
 190 444 190 444 190 482 c 2,21,-1
 190 656 l 1,22,-1
 340 656 l 1,23,-1
 340 482 l 2,10,11
EndSplineSet
EndChar

StartChar: quotedbl
Encoding: 34 34 5
Width: 500
Flags: W
LayerCount: 2
Fore
SplineSet
231 720 m 1,0,-1
 231 668 l 2,1,2
 231 642 231 642 228.5 610.5 c 128,-1,3
 226 579 226 579 221 546 c 128,-1,4
 216 513 216 513 210.5 481 c 128,-1,5
 205 449 205 449 199 422 c 1,6,-1
 124 422 l 1,7,8
 119 450 119 450 113.5 481.5 c 128,-1,9
 108 513 108 513 103.5 546 c 128,-1,10
 99 579 99 579 95.5 610.5 c 128,-1,11
 92 642 92 642 92 669 c 2,12,-1
 92 720 l 1,13,-1
 231 720 l 1,0,-1
440 720 m 1,14,-1
 440 668 l 2,15,16
 440 642 440 642 437.5 610.5 c 128,-1,17
 435 579 435 579 430 546 c 128,-1,18
 425 513 425 513 419.5 481 c 128,-1,19
 414 449 414 449 409 422 c 1,20,-1
 333 422 l 1,21,22
 328 450 328 450 322.5 481.5 c 128,-1,23
 317 513 317 513 312 546 c 128,-1,24
 307 579 307 579 304 610.5 c 128,-1,25
 301 642 301 642 301 669 c 2,26,-1
 301 720 l 1,27,-1
 440 720 l 1,14,-1
EndSplineSet
EndChar

StartChar: numbersign
Encoding: 35 35 6
Width: 500
Flags: W
LayerCount: 2
Fore
SplineSet
211 270 m 1,0,-1
 296 270 l 1,1,-1
 317 387 l 1,2,-1
 233 387 l 1,3,-1
 211 270 l 1,0,-1
146 495 m 1,4,-1
 177 656 l 1,5,-1
 285 656 l 1,6,-1
 253 495 l 1,7,-1
 338 495 l 1,8,-1
 369 656 l 1,9,-1
 477 656 l 1,10,-1
 446 495 l 1,11,-1
 512 495 l 1,12,-1
 512 387 l 1,13,-1
 425 387 l 1,14,-1
 403 270 l 1,15,-1
 512 270 l 1,16,-1
 512 162 l 1,17,-1
 383 162 l 1,18,-1
 352 0 l 1,19,-1
 244 0 l 1,20,-1
 275 162 l 1,21,-1
 190 162 l 1,22,-1
 160 0 l 1,23,-1
 52 0 l 1,24,-1
 83 162 l 1,25,-1
 19 162 l 1,26,-1
 19 270 l 1,27,-1
 103 270 l 1,28,-1
 125 387 l 1,29,-1
 19 387 l 1,30,-1
 19 495 l 1,31,-1
 146 495 l 1,4,-1
EndSplineSet
EndChar

StartChar: dollar
Encoding: 36 36 7
Width: 500
Flags: W
LayerCount: 2
Fore
SplineSet
204 10 m 1,0,1
 138 16 138 16 97.5 31 c 128,-1,2
 57 46 57 46 36 57 c 1,3,-1
 76 161 l 1,4,5
 110 144 110 144 156 131 c 0,6,7
 179 125 179 125 204 122 c 1,8,-1
 204 288 l 1,9,10
 183 296 183 296 162 305 c 0,11,12
 132 319 132 319 109 338.5 c 128,-1,13
 86 358 86 358 71.5 386 c 128,-1,14
 57 414 57 414 57 456 c 0,15,16
 57 486 57 486 65 513.5 c 128,-1,17
 73 541 73 541 90.5 564 c 128,-1,18
 108 587 108 587 137 604 c 0,19,20
 165 621 165 621 204 631 c 1,21,-1
 204 634 l 1,22,-1
 207 634 l 1,23,-1
 207 735 l 1,24,-1
 328 735 l 1,25,-1
 328 637 l 1,26,27
 377 633 377 633 414.5 622.5 c 128,-1,28
 452 612 452 612 473 603 c 1,29,-1
 443 494 l 1,30,31
 413 507 413 507 371 517 c 0,32,33
 350 522 350 522 328 525 c 1,34,-1
 328 375 l 1,35,36
 357 364 357 364 381 352 c 0,37,38
 416 335 416 335 441 311.5 c 128,-1,39
 466 288 466 288 480 258 c 0,40,41
 494 228 494 228 495 186 c 0,42,43
 495 157 495 157 486.5 129 c 128,-1,44
 478 101 478 101 458.5 77 c 128,-1,45
 439 53 439 53 407 36 c 128,-1,46
 375 19 375 19 328 11 c 1,47,-1
 328 0 l 1,48,-1
 325 0 l 1,49,-1
 325 -103 l 1,50,-1
 205 -103 l 1,51,-1
 205 0 l 1,52,-1
 204 0 l 1,53,-1
 204 10 l 1,0,1
204 497 m 1,54,55
 194 483 194 483 194 466 c 0,56,57
 195 449 195 449 201 439 c 0,58,59
 202 437 202 437 204 435 c 2,60,-1
 204 497 l 1,54,55
328 130 m 1,61,62
 332 131 332 131 335 134 c 0,63,64
 358 149 358 149 358 182 c 0,65,66
 358 201 358 201 350 215 c 0,67,68
 343 227 343 227 328 236 c 1,69,-1
 328 130 l 1,61,62
EndSplineSet
EndChar

StartChar: percent
Encoding: 37 37 8
Width: 500
Flags: W
LayerCount: 2
Fore
SplineSet
163 506.5 m 128,-1,1
 163 551 163 551 152.5 569.5 c 128,-1,2
 142 588 142 588 128 588 c 0,3,4
 113 588 113 588 103.5 569.5 c 128,-1,5
 94 551 94 551 94 506.5 c 128,-1,6
 94 462 94 462 103.5 444 c 128,-1,7
 113 426 113 426 128 426 c 0,8,9
 142 426 142 426 152.5 444 c 128,-1,0
 163 462 163 462 163 506.5 c 128,-1,1
11 506.5 m 128,-1,11
 11 587 11 587 42.5 629 c 128,-1,12
 74 671 74 671 128 671 c 0,13,14
 185 671 185 671 217 629 c 128,-1,15
 249 587 249 587 249 506.5 c 128,-1,16
 249 426 249 426 217.5 383.5 c 128,-1,17
 186 341 186 341 128 341 c 0,18,19
 74 341 74 341 42.5 383.5 c 128,-1,10
 11 426 11 426 11 506.5 c 128,-1,11
435 150.5 m 128,-1,21
 435 195 435 195 424 214 c 128,-1,22
 413 233 413 233 398.5 233 c 128,-1,23
 384 233 384 233 375 214 c 128,-1,24
 366 195 366 195 366 150.5 c 128,-1,25
 366 106 366 106 375 88 c 128,-1,26
 384 70 384 70 398.5 70 c 128,-1,27
 413 70 413 70 424 88 c 128,-1,20
 435 106 435 106 435 150.5 c 128,-1,21
281 150.5 m 128,-1,29
 281 231 281 231 312.5 273 c 128,-1,30
 344 315 344 315 400 315 c 128,-1,31
 456 315 456 315 487.5 273 c 128,-1,32
 519 231 519 231 519 150.5 c 128,-1,33
 519 70 519 70 487.5 28 c 128,-1,34
 456 -14 456 -14 400 -14 c 0,35,36
 345 -14 345 -14 313 28 c 128,-1,28
 281 70 281 70 281 150.5 c 128,-1,29
96 0 m 1,37,-1
 2 0 l 1,38,-1
 434 656 l 1,39,-1
 528 656 l 1,40,-1
 96 0 l 1,37,-1
EndSplineSet
EndChar

StartChar: ampersand
Encoding: 38 38 9
Width: 500
Flags: W
LayerCount: 2
Fore
SplineSet
180 507 m 0,0,1
 180 484 180 484 189.5 460 c 128,-1,2
 199 436 199 436 216 410 c 1,3,4
 250 429 250 429 268 460.5 c 128,-1,5
 286 492 286 492 286 520 c 128,-1,6
 286 548 286 548 273 562.5 c 128,-1,7
 260 577 260 577 238 577 c 0,8,9
 212 577 212 577 196 559 c 128,-1,10
 180 541 180 541 180 507 c 0,0,1
310 132 m 1,11,12
 280 169 280 169 248 204.5 c 128,-1,13
 216 240 216 240 186 273 c 1,14,15
 163 257 163 257 148.5 234.5 c 128,-1,16
 134 212 134 212 134 179 c 0,17,18
 134 143 134 143 152.5 116.5 c 128,-1,19
 171 90 171 90 215 90 c 0,20,21
 239 90 239 90 264 99.5 c 128,-1,22
 289 109 289 109 310 132 c 1,11,12
387 0 m 1,23,24
 375 31 375 31 361 56 c 1,25,26
 325 24 325 24 287 8 c 128,-1,27
 249 -8 249 -8 212 -8 c 0,28,29
 164 -8 164 -8 128.5 6.5 c 128,-1,30
 93 21 93 21 69.5 46 c 128,-1,31
 46 71 46 71 34 104 c 128,-1,32
 22 137 22 137 22 173 c 0,33,34
 22 224 22 224 48 270 c 128,-1,35
 74 316 74 316 126 348 c 1,36,37
 101 383 101 383 84.5 421 c 128,-1,38
 68 459 68 459 68 500 c 0,39,40
 68 542 68 542 83 574.5 c 128,-1,41
 98 607 98 607 122 628.5 c 128,-1,42
 146 650 146 650 176 660 c 0,43,44
 206 670 206 670 238 671 c 0,45,46
 268 671 268 671 296.5 661.5 c 128,-1,47
 325 652 325 652 347.5 633.5 c 128,-1,48
 370 615 370 615 384 587 c 128,-1,49
 398 559 398 559 398 522 c 0,50,51
 398 471 398 471 367 422.5 c 128,-1,52
 336 374 336 374 270 340 c 1,53,54
 291 315 291 315 314.5 288.5 c 128,-1,55
 338 262 338 262 363 234 c 1,56,57
 378 288 378 288 378 363 c 1,58,-1
 487 349 l 1,59,60
 486 290 486 290 471.5 239 c 128,-1,61
 457 188 457 188 435 146 c 1,62,63
 460 111 460 111 480 74 c 128,-1,64
 500 37 500 37 511 0 c 1,65,-1
 387 0 l 1,23,24
EndSplineSet
EndChar

StartChar: quotesingle
Encoding: 39 39 10
Width: 500
Flags: W
LayerCount: 2
Fore
SplineSet
336 720 m 1,0,-1
 336 650 l 2,1,2
 336 624 336 624 333.5 592.5 c 128,-1,3
 331 561 331 561 326 528 c 128,-1,4
 321 495 321 495 316 462.5 c 128,-1,5
 311 430 311 430 305 403 c 1,6,-1
 229 403 l 1,7,8
 224 431 224 431 218.5 463 c 128,-1,9
 213 495 213 495 208.5 528 c 128,-1,10
 204 561 204 561 200.5 592 c 128,-1,11
 197 623 197 623 197 650 c 2,12,-1
 197 720 l 1,13,-1
 336 720 l 1,0,-1
EndSplineSet
EndChar

StartChar: parenleft
Encoding: 40 40 11
Width: 500
Flags: W
LayerCount: 2
Fore
SplineSet
220 282 m 0,0,1
 220 152 220 152 278 56 c 128,-1,2
 336 -40 336 -40 438 -100 c 1,3,-1
 377 -180 l 1,4,5
 233 -100 233 -100 166.5 18.5 c 128,-1,6
 100 137 100 137 100 282 c 0,7,8
 100 428 100 428 168.5 550.5 c 128,-1,9
 237 673 237 673 382 753 c 1,10,-1
 442 672 l 1,11,12
 340 613 340 613 280 513 c 128,-1,13
 220 413 220 413 220 282 c 0,0,1
EndSplineSet
Substitution2: "'case' +WSdlh1tXfUQwf3UoMGuKv2V0MFcwX1tXX2IA lookup 17 +MLUw1jDGMPww1jDr" Parenleft
EndChar

StartChar: parenright
Encoding: 41 41 12
Width: 500
Flags: W
LayerCount: 2
Fore
SplineSet
312 282 m 0,0,1
 312 413 312 413 252 513 c 128,-1,2
 192 613 192 613 90 672 c 1,3,-1
 151 753 l 1,4,5
 295 673 295 673 363.5 550.5 c 128,-1,6
 432 428 432 428 432 282 c 0,7,8
 432 137 432 137 365.5 18 c 128,-1,9
 299 -101 299 -101 155 -180 c 1,10,-1
 94 -100 l 1,11,12
 196 -41 196 -41 254 55.5 c 128,-1,13
 312 152 312 152 312 282 c 0,0,1
EndSplineSet
Substitution2: "'case' +WSdlh1tXfUQwf3UoMGuKv2V0MFcwX1tXX2IA lookup 17 +MLUw1jDGMPww1jDr" Parenright
EndChar

StartChar: asterisk
Encoding: 42 42 13
Width: 500
Flags: W
LayerCount: 2
Fore
SplineSet
267 207 m 1,0,1
 267 205 267 205 258 176 c 0,2,3
 253 158 253 158 244 140 c 0,4,5
 237 122 237 122 229 106 c 0,6,7
 220 88 220 88 214 80 c 2,8,-1
 194 53 l 1,9,-1
 94 124 l 1,10,-1
 114 151 l 2,11,12
 120 159 120 159 135 174 c 0,13,14
 148 187 148 187 163 199 c 0,15,16
 178 212 178 212 192 223 c 0,17,18
 208 234 208 234 217 242 c 1,19,20
 203 242 203 242 185 242 c 0,21,22
 168 242 168 242 147 243 c 0,23,24
 121 246 121 246 110 248 c 2,25,-1
 81 255 l 1,26,-1
 49 266 l 1,27,-1
 88 382 l 1,28,-1
 120 372 l 2,29,30
 128 370 128 370 147 359 c 0,31,32
 163 350 163 350 179 339.5 c 128,-1,33
 195 329 195 329 210 318 c 0,34,35
 226 307 226 307 236 299 c 1,36,37
 231 312 231 312 227 329.5 c 128,-1,38
 223 347 223 347 217 366 c 0,39,40
 212 385 212 385 209 403 c 0,41,42
 206 417 206 417 206 434 c 2,43,-1
 206 466 l 1,44,-1
 329 466 l 1,45,-1
 329 434 l 2,46,47
 329 422 329 422 325 403 c 0,48,49
 322 385 322 385 317 366 c 0,50,51
 313 347 313 347 307 329 c 0,52,53
 301 312 301 312 297 299 c 1,54,55
 308 306 308 306 323 317 c 0,56,57
 349 335 349 335 356 338 c 0,58,59
 373 347 373 347 388 356 c 0,60,61
 396 362 396 362 417 369 c 2,62,-1
 447 379 l 1,63,-1
 485 262 l 1,64,-1
 454 252 l 2,65,66
 440 248 440 248 423 246 c 0,67,68
 405 244 405 244 386 242.5 c 128,-1,69
 367 241 367 241 348 241 c 0,70,71
 331 241 331 241 316 241 c 1,72,73
 329 234 329 234 342 222 c 0,74,75
 358 211 358 211 372 199 c 0,76,77
 388 187 388 187 400 174 c 0,78,79
 419 152 419 152 420 151 c 2,80,-1
 440 124 l 1,81,-1
 340 52 l 1,82,-1
 321 78 l 2,83,84
 313 90 313 90 306 105 c 0,85,86
 295 127 295 127 290 139 c 0,87,88
 284 158 284 158 277 175 c 0,89,90
 271 193 271 193 267 207 c 1,0,1
EndSplineSet
EndChar

StartChar: plus
Encoding: 43 43 14
Width: 500
Flags: W
LayerCount: 2
Fore
SplineSet
42 332 m 1,0,-1
 209 332 l 1,1,-1
 209 516 l 1,2,-1
 321 516 l 1,3,-1
 321 332 l 1,4,-1
 488 332 l 1,5,-1
 488 225 l 1,6,-1
 321 225 l 1,7,-1
 321 40 l 1,8,-1
 209 40 l 1,9,-1
 209 225 l 1,10,-1
 42 225 l 1,11,-1
 42 332 l 1,0,-1
EndSplineSet
EndChar

StartChar: comma
Encoding: 44 44 15
Width: 500
Flags: W
LayerCount: 2
Fore
SplineSet
134 -77 m 1,0,1
 153 -73 153 -73 172.5 -70 c 128,-1,2
 192 -67 192 -67 209.5 -60.5 c 128,-1,3
 227 -54 227 -54 240.5 -42.5 c 128,-1,4
 254 -31 254 -31 263 -11 c 1,5,6
 223 -7 223 -7 200.5 21 c 128,-1,7
 178 49 178 49 178 83 c 0,8,9
 178 124 178 124 205 150.5 c 128,-1,10
 232 177 232 177 273 177 c 0,11,12
 318 177 318 177 343 147.5 c 128,-1,13
 368 118 368 118 368 67 c 0,14,15
 368 30 368 30 356 -7.5 c 128,-1,16
 344 -45 344 -45 318.5 -76.5 c 128,-1,17
 293 -108 293 -108 251.5 -131.5 c 128,-1,18
 210 -155 210 -155 151 -162 c 1,19,-1
 134 -77 l 1,0,1
EndSplineSet
EndChar

StartChar: hyphen
Encoding: 45 45 16
Width: 500
Flags: W
LayerCount: 2
Fore
SplineSet
42 332 m 1,0,-1
 487 332 l 1,1,-1
 488 332 l 1,2,-1
 487 225 l 1,3,-1
 42 225 l 1,4,-1
 42 332 l 1,0,-1
EndSplineSet
Substitution2: "'case' +WSdlh1tXfUQwf3UoMGuKv2V0MFcwX1tXX2IA lookup 17 +MLUw1jDGMPww1jDr" Hyphen
EndChar

StartChar: period
Encoding: 46 46 17
Width: 500
Flags: W
LayerCount: 2
Fore
SplineSet
360 84 m 0,0,1
 360 37 360 37 331.5 12.5 c 128,-1,2
 303 -12 303 -12 266 -12 c 0,3,4
 247 -12 247 -12 230 -5.5 c 128,-1,5
 213 1 213 1 200 13 c 128,-1,6
 187 25 187 25 179 42.5 c 128,-1,7
 171 60 171 60 171 84 c 0,8,9
 171 106 171 106 179 123.5 c 128,-1,10
 187 141 187 141 200 152.5 c 128,-1,11
 213 164 213 164 230 170.5 c 128,-1,12
 247 177 247 177 266 177 c 0,13,14
 303 177 303 177 331.5 153 c 128,-1,15
 360 129 360 129 360 84 c 0,0,1
EndSplineSet
EndChar

StartChar: slash
Encoding: 47 47 18
Width: 500
Flags: W
LayerCount: 2
Fore
SplineSet
186 -175 m 1,0,-1
 50 -175 l 1,1,-1
 347 741 l 1,2,-1
 480 741 l 1,3,-1
 186 -175 l 1,0,-1
EndSplineSet
Substitution2: "'case' +WSdlh1tXfUQwf3UoMGuKv2V0MFcwX1tXX2IA lookup 17 +MLUw1jDGMPww1jDr" Slash
Substitution2: "'ss02' +MLkwvzCkMOswuzDDMMgA-2 lookup 14 +MLUw1jDGMPww1jDr" fraction
Substitution2: "'frac' +ZZwwgTBuUgZlcAAA lookup 12 +MLUw1jDGMPww1jDr" fraction
EndChar

StartChar: zero
Encoding: 48 48 19
Width: 500
Flags: W
LayerCount: 2
Fore
SplineSet
493 330 m 0,0,1
 493 156 493 156 434.5 71 c 128,-1,2
 376 -14 376 -14 265 -14 c 128,-1,3
 154 -14 154 -14 95.5 71 c 128,-1,4
 37 156 37 156 37 330 c 0,5,6
 37 502 37 502 96.5 586.5 c 128,-1,7
 156 671 156 671 265 671 c 0,8,9
 376 671 376 671 434.5 587 c 128,-1,10
 493 503 493 503 493 330 c 0,0,1
183 158 m 1,11,-1
 183 157 l 1,12,13
 211 100 211 100 265 99 c 0,14,15
 320 98 320 98 354 158 c 128,-1,16
 388 218 388 218 388 379 c 1,17,-1
 183 158 l 1,11,-1
350 495 m 1,18,-1
 348 500 l 1,19,20
 318 559 318 559 265 559.5 c 128,-1,21
 212 560 212 560 183 500 c 0,22,23
 153 439 153 439 153 286 c 1,24,-1
 350 495 l 1,18,-1
EndSplineSet
Substitution2: "'ss02' +MLkwvzCkMOswuzDDMMgA-2 lookup 15 +MLUw1jDGMPww1jDr" zerosuperior
Substitution2: "'sinf' +edFbZmWHcy51KE4LMGQwTWWHW1cA lookup 11 +MLUw1jDGMPww1jDr" zero.sinf
Substitution2: "'subs' +TgswZDBNZYdbVwAA lookup 10 +MLUw1jDGMPww1jDr" zero.sinf
Substitution2: "'sups' +TgowZDBNZYdbVwAA lookup 9 +MLUw1jDGMPww1jDr" zero.sups
Substitution2: "'dnom' +UgZrzQAA lookup 8 +MLUw1jDGMPww1jDr" zeroinferior
Substitution2: "'numr' +UgZbUAAA lookup 6 +MLUw1jDGMPww1jDr" zerosuperior
EndChar

StartChar: one
Encoding: 49 49 20
Width: 500
Flags: W
LayerCount: 2
Fore
SplineSet
226 0 m 1,0,-1
 226 475 l 1,1,2
 196 454 196 454 158 437.5 c 128,-1,3
 120 421 120 421 93 411 c 1,4,-1
 51 519 l 1,5,6
 76 529 76 529 106 544 c 128,-1,7
 136 559 136 559 165.5 577 c 128,-1,8
 195 595 195 595 221.5 615 c 128,-1,9
 248 635 248 635 267 656 c 1,10,-1
 356 656 l 1,11,-1
 356 0 l 1,12,-1
 226 0 l 1,0,-1
EndSplineSet
Substitution2: "'ss02' +MLkwvzCkMOswuzDDMMgA-2 lookup 15 +MLUw1jDGMPww1jDr" onesuperior
Substitution2: "'sinf' +edFbZmWHcy51KE4LMGQwTWWHW1cA lookup 11 +MLUw1jDGMPww1jDr" one.sinf
Substitution2: "'subs' +TgswZDBNZYdbVwAA lookup 10 +MLUw1jDGMPww1jDr" one.sinf
Substitution2: "'sups' +TgowZDBNZYdbVwAA lookup 9 +MLUw1jDGMPww1jDr" one.sups
Substitution2: "'dnom' +UgZrzQAA lookup 8 +MLUw1jDGMPww1jDr" oneinferior
Substitution2: "'numr' +UgZbUAAA lookup 6 +MLUw1jDGMPww1jDr" onesuperior
EndChar

StartChar: two
Encoding: 50 50 21
Width: 500
Flags: W
LayerCount: 2
Fore
SplineSet
460 483 m 0,0,1
 460 449 460 449 447.5 418 c 128,-1,2
 435 387 435 387 413.5 357.5 c 128,-1,3
 392 328 392 328 365.5 300 c 128,-1,4
 339 272 339 272 312 247 c 0,5,6
 298 234 298 234 280 216.5 c 128,-1,7
 262 199 262 199 246 180.5 c 128,-1,8
 230 162 230 162 219 143 c 128,-1,9
 208 124 208 124 208 108 c 1,10,-1
 490 108 l 1,11,-1
 490 0 l 1,12,-1
 61 0 l 1,13,14
 58 11 58 11 58.5 26.5 c 128,-1,15
 59 42 59 42 59 49 c 0,16,17
 59 102 59 102 79 146.5 c 128,-1,18
 99 191 99 191 129 228.5 c 128,-1,19
 159 266 159 266 193.5 298.5 c 128,-1,20
 228 331 228 331 258 360.5 c 128,-1,21
 288 390 288 390 308 417.5 c 128,-1,22
 328 445 328 445 328 474 c 0,23,24
 328 514 328 514 303.5 536 c 128,-1,25
 279 558 279 558 242 558 c 0,26,27
 211 558 211 558 177 543 c 128,-1,28
 143 528 143 528 110 493 c 1,29,-1
 46 584 l 1,30,31
 88 629 88 629 143.5 650 c 128,-1,32
 199 671 199 671 254 671 c 0,33,34
 294 671 294 671 331.5 659.5 c 128,-1,35
 369 648 369 648 397.5 624.5 c 128,-1,36
 426 601 426 601 443 565.5 c 128,-1,37
 460 530 460 530 460 483 c 0,0,1
EndSplineSet
Substitution2: "'ss02' +MLkwvzCkMOswuzDDMMgA-2 lookup 15 +MLUw1jDGMPww1jDr" twosuperior
Substitution2: "'sinf' +edFbZmWHcy51KE4LMGQwTWWHW1cA lookup 11 +MLUw1jDGMPww1jDr" two.sinf
Substitution2: "'subs' +TgswZDBNZYdbVwAA lookup 10 +MLUw1jDGMPww1jDr" two.sinf
Substitution2: "'sups' +TgowZDBNZYdbVwAA lookup 9 +MLUw1jDGMPww1jDr" two.sups
Substitution2: "'dnom' +UgZrzQAA lookup 8 +MLUw1jDGMPww1jDr" twoinferior
Substitution2: "'numr' +UgZbUAAA lookup 6 +MLUw1jDGMPww1jDr" twosuperior
EndChar

StartChar: three
Encoding: 51 51 22
Width: 500
Flags: W
LayerCount: 2
Fore
SplineSet
226 -14 m 0,0,1
 202 -14 202 -14 174.5 -10 c 128,-1,2
 147 -6 147 -6 122.5 -1 c 128,-1,3
 98 4 98 4 76.5 10.5 c 128,-1,4
 55 17 55 17 43 22 c 1,5,-1
 69 131 l 1,6,7
 93 120 93 120 132 109 c 128,-1,8
 171 98 171 98 225 98 c 0,9,10
 292 98 292 98 319 126.5 c 128,-1,11
 346 155 346 155 346 197 c 0,12,13
 346 249 346 249 304.5 269.5 c 128,-1,14
 263 290 263 290 199 290 c 2,15,-1
 159 290 l 1,16,-1
 159 399 l 1,17,-1
 208 399 l 2,18,19
 228 399 228 399 248 403 c 128,-1,20
 268 407 268 407 284 416.5 c 128,-1,21
 300 426 300 426 310 442 c 128,-1,22
 320 458 320 458 320 482 c 0,23,24
 320 518 320 518 298 539 c 0,25,26
 276 560 276 560 238 560 c 0,27,28
 201 560 201 560 164.5 547.5 c 128,-1,29
 128 535 128 535 102 517 c 1,30,-1
 55 613 l 1,31,32
 84 632 84 632 131 651.5 c 128,-1,33
 178 671 178 671 237 671 c 0,34,35
 292 671 292 671 333 657 c 128,-1,36
 374 643 374 643 400.5 618.5 c 128,-1,37
 427 594 427 594 440 560 c 128,-1,38
 453 526 453 526 453 486.5 c 128,-1,39
 453 447 453 447 430.5 411 c 128,-1,40
 408 375 408 375 371 356 c 1,41,42
 422 335 422 335 450 293.5 c 128,-1,43
 478 252 478 252 478 195 c 0,44,45
 478 149 478 149 463 111 c 128,-1,46
 448 73 448 73 417.5 45 c 128,-1,47
 387 17 387 17 339.5 1.5 c 128,-1,48
 292 -14 292 -14 226 -14 c 0,0,1
EndSplineSet
Substitution2: "'ss02' +MLkwvzCkMOswuzDDMMgA-2 lookup 15 +MLUw1jDGMPww1jDr" threesuperior
Substitution2: "'sinf' +edFbZmWHcy51KE4LMGQwTWWHW1cA lookup 11 +MLUw1jDGMPww1jDr" three.sinf
Substitution2: "'subs' +TgswZDBNZYdbVwAA lookup 10 +MLUw1jDGMPww1jDr" three.sinf
Substitution2: "'sups' +TgowZDBNZYdbVwAA lookup 9 +MLUw1jDGMPww1jDr" three.sups
Substitution2: "'dnom' +UgZrzQAA lookup 8 +MLUw1jDGMPww1jDr" threeinferior
Substitution2: "'numr' +UgZbUAAA lookup 6 +MLUw1jDGMPww1jDr" threesuperior
EndChar

StartChar: four
Encoding: 52 52 23
Width: 500
Flags: W
LayerCount: 2
Fore
SplineSet
432 656 m 1,0,-1
 432 262 l 1,1,-1
 504 262 l 1,2,-1
 504 155 l 1,3,-1
 432 155 l 1,4,-1
 432 0 l 1,5,-1
 302 0 l 1,6,-1
 302 155 l 1,7,-1
 29 155 l 1,8,-1
 29 250 l 1,9,10
 49 291 49 291 80.5 343.5 c 128,-1,11
 112 396 112 396 150.5 451.5 c 128,-1,12
 189 507 189 507 231 560.5 c 128,-1,13
 273 614 273 614 316 656 c 1,14,-1
 432 656 l 1,0,-1
302 493 m 1,15,16
 283 469 283 469 263 441 c 128,-1,17
 243 413 243 413 223.5 383 c 128,-1,18
 204 353 204 353 185.5 322.5 c 128,-1,19
 167 292 167 292 154 262 c 1,20,-1
 302 262 l 1,21,-1
 302 493 l 1,15,16
EndSplineSet
Substitution2: "'ss02' +MLkwvzCkMOswuzDDMMgA-2 lookup 15 +MLUw1jDGMPww1jDr" foursuperior
Substitution2: "'sinf' +edFbZmWHcy51KE4LMGQwTWWHW1cA lookup 11 +MLUw1jDGMPww1jDr" four.sinf
Substitution2: "'subs' +TgswZDBNZYdbVwAA lookup 10 +MLUw1jDGMPww1jDr" four.sinf
Substitution2: "'sups' +TgowZDBNZYdbVwAA lookup 9 +MLUw1jDGMPww1jDr" four.sups
Substitution2: "'dnom' +UgZrzQAA lookup 8 +MLUw1jDGMPww1jDr" fourinferior
Substitution2: "'numr' +UgZbUAAA lookup 6 +MLUw1jDGMPww1jDr" foursuperior
EndChar

StartChar: five
Encoding: 53 53 24
Width: 500
Flags: W
LayerCount: 2
Fore
SplineSet
340 193 m 0,0,1
 340 221 340 221 331 243.5 c 128,-1,2
 322 266 322 266 295 282.5 c 128,-1,3
 268 299 268 299 218.5 308 c 128,-1,4
 169 317 169 317 88 317 c 1,5,6
 99 406 99 406 105 491.5 c 128,-1,7
 111 577 111 577 114 656 c 1,8,-1
 449 656 l 1,9,-1
 449 548 l 1,10,-1
 224 548 l 1,11,12
 222 514 222 514 218.5 477 c 128,-1,13
 215 440 215 440 213 417 c 1,14,15
 344 409 344 409 409 353.5 c 128,-1,16
 474 298 474 298 474 198 c 0,17,18
 474 152 474 152 458 113.5 c 128,-1,19
 442 75 442 75 409 46.5 c 128,-1,20
 376 18 376 18 327.5 2 c 128,-1,21
 279 -14 279 -14 214 -14 c 0,22,23
 189 -14 189 -14 162.5 -10.5 c 128,-1,24
 136 -7 136 -7 111.5 -2.5 c 128,-1,25
 87 2 87 2 67.5 8.5 c 128,-1,26
 48 15 48 15 37 20 c 1,27,-1
 64 128 l 1,28,29
 87 116 87 116 123 107 c 128,-1,30
 159 98 159 98 213 98 c 0,31,32
 251 98 251 98 276 106 c 128,-1,33
 301 114 301 114 315.5 127.5 c 128,-1,34
 330 141 330 141 335 158 c 128,-1,35
 340 175 340 175 340 193 c 0,0,1
EndSplineSet
Substitution2: "'ss02' +MLkwvzCkMOswuzDDMMgA-2 lookup 15 +MLUw1jDGMPww1jDr" fivesuperior
Substitution2: "'sinf' +edFbZmWHcy51KE4LMGQwTWWHW1cA lookup 11 +MLUw1jDGMPww1jDr" five.sinf
Substitution2: "'subs' +TgswZDBNZYdbVwAA lookup 10 +MLUw1jDGMPww1jDr" five.sinf
Substitution2: "'sups' +TgowZDBNZYdbVwAA lookup 9 +MLUw1jDGMPww1jDr" five.sups
Substitution2: "'dnom' +UgZrzQAA lookup 8 +MLUw1jDGMPww1jDr" fiveinferior
Substitution2: "'numr' +UgZbUAAA lookup 6 +MLUw1jDGMPww1jDr" fivesuperior
EndChar

StartChar: six
Encoding: 54 54 25
Width: 500
Flags: W
LayerCount: 2
Fore
SplineSet
272 420 m 0,0,1
 329 420 329 420 369 403 c 128,-1,2
 409 386 409 386 434.5 357.5 c 128,-1,3
 460 329 460 329 471 290.5 c 128,-1,4
 482 252 482 252 482 210 c 0,5,6
 482 172 482 172 470 132.5 c 128,-1,7
 458 93 458 93 432.5 60.5 c 128,-1,8
 407 28 407 28 368 7 c 128,-1,9
 329 -14 329 -14 275 -14 c 0,10,11
 165 -14 165 -14 107 54.5 c 128,-1,12
 49 123 49 123 49 268 c 0,13,14
 49 363 49 363 77 436.5 c 128,-1,15
 105 510 105 510 157 560 c 128,-1,16
 209 610 209 610 282 635 c 128,-1,17
 355 660 355 660 444 660 c 1,18,-1
 452 549 l 1,19,20
 410 548 410 548 369.5 540.5 c 128,-1,21
 329 533 329 533 295 515.5 c 128,-1,22
 261 498 261 498 236 470.5 c 128,-1,23
 211 443 211 443 199 402 c 1,24,25
 219 410 219 410 238 415 c 128,-1,26
 257 420 257 420 272 420 c 0,0,1
255 312 m 0,27,28
 235 312 235 312 214 307.5 c 128,-1,29
 193 303 193 303 179 296 c 1,30,31
 178 286 178 286 177.5 276.5 c 128,-1,32
 177 267 177 267 177 257 c 0,33,34
 177 226 177 226 181.5 198 c 128,-1,35
 186 170 186 170 196.5 147.5 c 128,-1,36
 207 125 207 125 225.5 112 c 128,-1,37
 244 99 244 99 271 99 c 0,38,39
 293 99 293 99 309 109.5 c 128,-1,40
 325 120 325 120 335.5 136 c 128,-1,41
 346 152 346 152 350.5 171 c 128,-1,42
 355 190 355 190 355 208 c 0,43,44
 355 258 355 258 332.5 285 c 128,-1,45
 310 312 310 312 255 312 c 0,27,28
EndSplineSet
Substitution2: "'ss02' +MLkwvzCkMOswuzDDMMgA-2 lookup 15 +MLUw1jDGMPww1jDr" sixsuperior
Substitution2: "'sinf' +edFbZmWHcy51KE4LMGQwTWWHW1cA lookup 11 +MLUw1jDGMPww1jDr" six.sinf
Substitution2: "'subs' +TgswZDBNZYdbVwAA lookup 10 +MLUw1jDGMPww1jDr" six.sinf
Substitution2: "'sups' +TgowZDBNZYdbVwAA lookup 9 +MLUw1jDGMPww1jDr" six.sups
Substitution2: "'dnom' +UgZrzQAA lookup 8 +MLUw1jDGMPww1jDr" sixinferior
Substitution2: "'numr' +UgZbUAAA lookup 6 +MLUw1jDGMPww1jDr" sixsuperior
EndChar

StartChar: seven
Encoding: 55 55 26
Width: 500
Flags: W
LayerCount: 2
Fore
SplineSet
140 0 m 1,0,1
 143 68 143 68 162 143.5 c 128,-1,2
 181 219 181 219 208 293.5 c 128,-1,3
 235 368 235 368 267 434 c 128,-1,4
 299 500 299 500 328 548 c 1,5,-1
 52 548 l 1,6,-1
 52 656 l 1,7,-1
 480 656 l 1,8,-1
 480 558 l 1,9,10
 451 525 451 525 417.5 465.5 c 128,-1,11
 384 406 384 406 353.5 330.5 c 128,-1,12
 323 255 323 255 300.5 170 c 128,-1,13
 278 85 278 85 272 0 c 1,14,-1
 140 0 l 1,0,1
EndSplineSet
Substitution2: "'ss02' +MLkwvzCkMOswuzDDMMgA-2 lookup 15 +MLUw1jDGMPww1jDr" sevensuperior
Substitution2: "'sinf' +edFbZmWHcy51KE4LMGQwTWWHW1cA lookup 11 +MLUw1jDGMPww1jDr" seven.sinf
Substitution2: "'subs' +TgswZDBNZYdbVwAA lookup 10 +MLUw1jDGMPww1jDr" seven.sinf
Substitution2: "'sups' +TgowZDBNZYdbVwAA lookup 9 +MLUw1jDGMPww1jDr" seven.sups
Substitution2: "'dnom' +UgZrzQAA lookup 8 +MLUw1jDGMPww1jDr" seveninferior
Substitution2: "'numr' +UgZbUAAA lookup 6 +MLUw1jDGMPww1jDr" sevensuperior
EndChar

StartChar: eight
Encoding: 56 56 27
Width: 500
Flags: W
LayerCount: 2
Fore
SplineSet
265 564 m 0,0,1
 231 564 231 564 205 545 c 128,-1,2
 179 526 179 526 179 489 c 128,-1,3
 179 452 179 452 203.5 428.5 c 128,-1,4
 228 405 228 405 289 379 c 1,5,6
 322 403 322 403 336 432.5 c 128,-1,7
 350 462 350 462 350 490 c 0,8,9
 350 527 350 527 325 545.5 c 128,-1,10
 300 564 300 564 265 564 c 0,0,1
368 172 m 0,11,12
 368 193 368 193 360 209 c 128,-1,13
 352 225 352 225 334.5 238 c 128,-1,14
 317 251 317 251 289.5 264.5 c 128,-1,15
 262 278 262 278 224 293 c 1,16,17
 194 269 194 269 178 238.5 c 128,-1,18
 162 208 162 208 162 180 c 0,19,20
 162 138 162 138 192.5 116 c 128,-1,21
 223 94 223 94 264 94 c 0,22,23
 312 94 312 94 340 117 c 128,-1,24
 368 140 368 140 368 172 c 0,11,12
473 500 m 0,25,26
 473 454 473 454 450.5 410.5 c 128,-1,27
 428 367 428 367 381 337 c 1,28,29
 441 302 441 302 466 260.5 c 128,-1,30
 491 219 491 219 491 170 c 0,31,32
 491 138 491 138 478.5 105 c 128,-1,33
 466 72 466 72 439 46 c 128,-1,34
 412 20 412 20 368.5 3 c 128,-1,35
 325 -14 325 -14 262 -14 c 0,36,37
 212 -14 212 -14 171 -1.5 c 128,-1,38
 130 11 130 11 101 33.5 c 128,-1,39
 72 56 72 56 56 89.5 c 128,-1,40
 40 123 40 123 40 164 c 0,41,42
 40 214 40 214 63.5 258 c 128,-1,43
 87 302 87 302 137 336 c 1,44,45
 90 368 90 368 73 404 c 128,-1,46
 56 440 56 440 56 480 c 0,47,48
 56 512 56 512 67 546.5 c 128,-1,49
 78 581 78 581 102.5 608.5 c 128,-1,50
 127 636 127 636 167.5 654 c 128,-1,51
 208 672 208 672 267 672 c 0,52,53
 361 672 361 672 417 625 c 128,-1,54
 473 578 473 578 473 500 c 0,25,26
EndSplineSet
Substitution2: "'ss02' +MLkwvzCkMOswuzDDMMgA-2 lookup 15 +MLUw1jDGMPww1jDr" eightsuperior
Substitution2: "'sinf' +edFbZmWHcy51KE4LMGQwTWWHW1cA lookup 11 +MLUw1jDGMPww1jDr" eight.sinf
Substitution2: "'subs' +TgswZDBNZYdbVwAA lookup 10 +MLUw1jDGMPww1jDr" eight.sinf
Substitution2: "'sups' +TgowZDBNZYdbVwAA lookup 9 +MLUw1jDGMPww1jDr" eight.sups
Substitution2: "'dnom' +UgZrzQAA lookup 8 +MLUw1jDGMPww1jDr" eightinferior
Substitution2: "'numr' +UgZbUAAA lookup 6 +MLUw1jDGMPww1jDr" eightsuperior
EndChar

StartChar: nine
Encoding: 57 57 28
Width: 500
Flags: W
LayerCount: 2
Fore
SplineSet
260 241 m 0,0,1
 203 241 203 241 162.5 257 c 128,-1,2
 122 273 122 273 96.5 302 c 128,-1,3
 71 331 71 331 59.5 368.5 c 128,-1,4
 48 406 48 406 48 449 c 0,5,6
 48 487 48 487 61 527 c 128,-1,7
 74 567 74 567 100 599.5 c 128,-1,8
 126 632 126 632 165.5 652.5 c 128,-1,9
 205 673 205 673 258 673 c 0,10,11
 368 673 368 673 426 599 c 128,-1,12
 484 525 484 525 484 392 c 0,13,14
 484 297 484 297 456.5 223 c 128,-1,15
 429 149 429 149 377.5 99.5 c 128,-1,16
 326 50 326 50 253.5 24 c 128,-1,17
 181 -2 181 -2 92 -2 c 1,18,-1
 88 110 l 1,19,20
 173 111 173 111 239.5 146.5 c 128,-1,21
 306 182 306 182 334 259 c 1,22,23
 293 241 293 241 260 241 c 0,0,1
277 349 m 0,24,25
 297 349 297 349 319 353 c 128,-1,26
 341 357 341 357 355 365 c 1,27,28
 356 373 356 373 356.5 385.5 c 128,-1,29
 357 398 357 398 357 409 c 0,30,31
 357 435 357 435 352.5 462.5 c 128,-1,32
 348 490 348 490 336.5 512 c 128,-1,33
 325 534 325 534 306.5 548 c 128,-1,34
 288 562 288 562 261 562 c 0,35,36
 238 562 238 562 221.5 553 c 128,-1,37
 205 544 205 544 194.5 529 c 128,-1,38
 184 514 184 514 179.5 494 c 128,-1,39
 175 474 175 474 175 452 c 0,40,41
 175 402 175 402 198.5 375.5 c 128,-1,42
 222 349 222 349 277 349 c 0,24,25
EndSplineSet
Substitution2: "'ss02' +MLkwvzCkMOswuzDDMMgA-2 lookup 15 +MLUw1jDGMPww1jDr" ninesuperior
Substitution2: "'sinf' +edFbZmWHcy51KE4LMGQwTWWHW1cA lookup 11 +MLUw1jDGMPww1jDr" nine.sinf
Substitution2: "'subs' +TgswZDBNZYdbVwAA lookup 10 +MLUw1jDGMPww1jDr" nine.sinf
Substitution2: "'sups' +TgowZDBNZYdbVwAA lookup 9 +MLUw1jDGMPww1jDr" nine.sups
Substitution2: "'dnom' +UgZrzQAA lookup 8 +MLUw1jDGMPww1jDr" nineinferior
Substitution2: "'numr' +UgZbUAAA lookup 6 +MLUw1jDGMPww1jDr" ninesuperior
EndChar

StartChar: colon
Encoding: 58 58 29
Width: 500
Flags: W
LayerCount: 2
Fore
SplineSet
360 84 m 0,0,1
 360 37 360 37 331.5 12.5 c 128,-1,2
 303 -12 303 -12 266 -12 c 0,3,4
 247 -12 247 -12 230 -5.5 c 128,-1,5
 213 1 213 1 200 13 c 128,-1,6
 187 25 187 25 179 42.5 c 128,-1,7
 171 60 171 60 171 84 c 0,8,9
 171 106 171 106 179 123.5 c 128,-1,10
 187 141 187 141 200 152.5 c 128,-1,11
 213 164 213 164 230 170.5 c 128,-1,12
 247 177 247 177 266 177 c 0,13,14
 303 177 303 177 331.5 153 c 128,-1,15
 360 129 360 129 360 84 c 0,0,1
360 405 m 0,16,17
 360 358 360 358 331.5 334 c 128,-1,18
 303 310 303 310 266 310 c 0,19,20
 247 310 247 310 230 316 c 128,-1,21
 213 322 213 322 200 334.5 c 128,-1,22
 187 347 187 347 179 364.5 c 128,-1,23
 171 382 171 382 171 405 c 0,24,25
 171 427 171 427 179 444.5 c 128,-1,26
 187 462 187 462 200 473.5 c 128,-1,27
 213 485 213 485 230 491.5 c 128,-1,28
 247 498 247 498 266 498 c 0,29,30
 303 498 303 498 331.5 474 c 128,-1,31
 360 450 360 450 360 405 c 0,16,17
EndSplineSet
EndChar

StartChar: semicolon
Encoding: 59 59 30
Width: 500
Flags: W
LayerCount: 2
Fore
SplineSet
125 -77 m 1,0,1
 144 -73 144 -73 163.5 -70 c 128,-1,2
 183 -67 183 -67 200.5 -60.5 c 128,-1,3
 218 -54 218 -54 232 -42.5 c 128,-1,4
 246 -31 246 -31 254 -11 c 1,5,6
 214 -7 214 -7 192 21 c 128,-1,7
 170 49 170 49 170 83 c 0,8,9
 170 124 170 124 197 150.5 c 128,-1,10
 224 177 224 177 265 177 c 0,11,12
 310 177 310 177 334.5 147.5 c 128,-1,13
 359 118 359 118 359 67 c 0,14,15
 359 30 359 30 347.5 -7.5 c 128,-1,16
 336 -45 336 -45 310 -76.5 c 128,-1,17
 284 -108 284 -108 242.5 -131.5 c 128,-1,18
 201 -155 201 -155 142 -162 c 1,19,-1
 125 -77 l 1,0,1
360 405 m 0,20,21
 360 358 360 358 331.5 334 c 128,-1,22
 303 310 303 310 266 310 c 0,23,24
 247 310 247 310 230 316 c 128,-1,25
 213 322 213 322 200 334.5 c 128,-1,26
 187 347 187 347 179 364.5 c 128,-1,27
 171 382 171 382 171 405 c 0,28,29
 171 427 171 427 179 444.5 c 128,-1,30
 187 462 187 462 200 473.5 c 128,-1,31
 213 485 213 485 230 491.5 c 128,-1,32
 247 498 247 498 266 498 c 0,33,34
 303 498 303 498 331.5 474 c 128,-1,35
 360 450 360 450 360 405 c 0,20,21
EndSplineSet
EndChar

StartChar: less
Encoding: 60 60 31
Width: 500
Flags: W
LayerCount: 2
Fore
SplineSet
48 332 m 1,0,-1
 455 502 l 1,1,-1
 491 388 l 1,2,-1
 194 272 l 1,3,-1
 491 157 l 1,4,-1
 455 42 l 1,5,-1
 48 214 l 1,6,-1
 48 332 l 1,0,-1
EndSplineSet
EndChar

StartChar: equal
Encoding: 61 61 32
Width: 500
Flags: W
LayerCount: 2
Fore
SplineSet
42 229 m 1,0,-1
 488 229 l 1,1,-1
 488 121 l 1,2,-1
 42 121 l 1,3,-1
 42 229 l 1,0,-1
42 436 m 1,4,-1
 488 436 l 1,5,-1
 488 328 l 1,6,-1
 42 328 l 1,7,-1
 42 436 l 1,4,-1
EndSplineSet
EndChar

StartChar: greater
Encoding: 62 62 33
Width: 500
Flags: W
LayerCount: 2
Fore
SplineSet
487 213 m 1,0,-1
 80 41 l 1,1,-1
 42 156 l 1,2,-1
 340 271 l 1,3,-1
 42 387 l 1,4,-1
 80 501 l 1,5,-1
 487 331 l 1,6,-1
 487 213 l 1,0,-1
EndSplineSet
EndChar

StartChar: question
Encoding: 63 63 34
Width: 500
Flags: W
LayerCount: 2
Fore
SplineSet
332 75 m 0,0,1
 332 34 332 34 305 10.5 c 128,-1,2
 278 -13 278 -13 244 -13 c 0,3,4
 227 -13 227 -13 211 -7 c 128,-1,5
 195 -1 195 -1 182.5 10.5 c 128,-1,6
 170 22 170 22 162.5 38 c 128,-1,7
 155 54 155 54 155 75 c 0,8,9
 155 95 155 95 162.5 111.5 c 128,-1,10
 170 128 170 128 182.5 139.5 c 128,-1,11
 195 151 195 151 211 156.5 c 128,-1,12
 227 162 227 162 244 162 c 128,-1,13
 261 162 261 162 277 156.5 c 128,-1,14
 293 151 293 151 305 139.5 c 128,-1,15
 317 128 317 128 324.5 111.5 c 128,-1,16
 332 95 332 95 332 75 c 0,0,1
176 238 m 1,17,18
 175 243 175 243 175 254 c 0,19,20
 175 296 175 296 197 335 c 128,-1,21
 219 374 219 374 255 404 c 0,22,23
 279 424 279 424 300.5 447 c 128,-1,24
 322 470 322 470 322 496 c 0,25,26
 322 528 322 528 300 544.5 c 128,-1,27
 278 561 278 561 244 561 c 128,-1,28
 210 561 210 561 178 551 c 128,-1,29
 146 541 146 541 109 523 c 1,30,-1
 73 622 l 1,31,32
 110 645 110 645 160 658 c 128,-1,33
 210 671 210 671 259 671 c 0,34,35
 319 671 319 671 358.5 654.5 c 128,-1,36
 398 638 398 638 420 613.5 c 128,-1,37
 442 589 442 589 451 560 c 128,-1,38
 460 531 460 531 460 505 c 0,39,40
 460 474 460 474 448 448.5 c 128,-1,41
 436 423 436 423 417.5 400.5 c 128,-1,42
 399 378 399 378 377.5 358.5 c 128,-1,43
 356 339 356 339 337.5 320 c 128,-1,44
 319 301 319 301 307 281 c 0,45,46
 295 260 295 260 295 238 c 1,47,-1
 176 238 l 1,17,18
EndSplineSet
EndChar

StartChar: at
Encoding: 64 64 35
Width: 500
Flags: W
LayerCount: 2
Fore
SplineSet
287 262 m 0,0,1
 287 242 287 242 290 220.5 c 128,-1,2
 293 199 293 199 300 182 c 128,-1,3
 307 165 307 165 320.5 154 c 128,-1,4
 334 143 334 143 355 143 c 0,5,6
 369 143 369 143 385 146 c 1,7,-1
 385 358 l 1,8,9
 377 360 377 360 369 361.5 c 128,-1,10
 361 363 361 363 354 363 c 0,11,12
 334 363 334 363 321 353.5 c 128,-1,13
 308 344 308 344 301 330 c 128,-1,14
 294 316 294 316 290.5 298 c 128,-1,15
 287 280 287 280 287 262 c 0,0,1
496 58 m 1,16,17
 467 46 467 46 429.5 40.5 c 128,-1,18
 392 35 392 35 365 35 c 0,19,20
 325 35 325 35 290 47 c 128,-1,21
 255 59 255 59 230 85 c 128,-1,22
 205 111 205 111 190.5 153 c 128,-1,23
 176 195 176 195 176 255 c 0,24,25
 176 300 176 300 184 339 c 128,-1,26
 192 378 192 378 211 407.5 c 128,-1,27
 230 437 230 437 260 454 c 128,-1,28
 290 471 290 471 335 471 c 0,29,30
 355 471 355 471 385 465 c 1,31,-1
 385 482 l 2,32,33
 385 522 385 522 359.5 550.5 c 128,-1,34
 334 579 334 579 285 579 c 0,35,36
 250 579 250 579 219 564 c 128,-1,37
 188 549 188 549 165 512 c 128,-1,38
 142 475 142 475 129 413 c 128,-1,39
 116 351 116 351 116 257 c 0,40,41
 116 183 116 183 127 125.5 c 128,-1,42
 138 68 138 68 165 29 c 128,-1,43
 192 -10 192 -10 237 -30 c 128,-1,44
 282 -50 282 -50 349 -50 c 0,45,46
 399 -50 399 -50 427.5 -44.5 c 128,-1,47
 456 -39 456 -39 464 -36 c 1,48,-1
 476 -128 l 1,49,50
 458 -132 458 -132 443 -135 c 128,-1,51
 428 -138 428 -138 413.5 -139.5 c 128,-1,52
 399 -141 399 -141 383.5 -142 c 128,-1,53
 368 -143 368 -143 349 -143 c 0,54,55
 279 -143 279 -143 218.5 -124 c 128,-1,56
 158 -105 158 -105 114 -58 c 128,-1,57
 70 -11 70 -11 44.5 67 c 128,-1,58
 19 145 19 145 19 263 c 0,59,60
 19 377 19 377 41 455 c 128,-1,61
 63 533 63 533 100 581.5 c 128,-1,62
 137 630 137 630 184.5 650.5 c 128,-1,63
 232 671 232 671 285 671 c 0,64,65
 328 671 328 671 366.5 657.5 c 128,-1,66
 405 644 405 644 433.5 615.5 c 128,-1,67
 462 587 462 587 479 541 c 128,-1,68
 496 495 496 495 496 429 c 2,69,-1
 496 58 l 1,16,17
EndSplineSet
Substitution2: "'case' +WSdlh1tXfUQwf3UoMGuKv2V0MFcwX1tXX2IA lookup 17 +MLUw1jDGMPww1jDr" At
EndChar

StartChar: A
Encoding: 65 65 36
Width: 500
Flags: W
LayerCount: 2
Fore
SplineSet
264 529 m 1,0,1
 253 492 253 492 244 458.5 c 128,-1,2
 235 425 235 425 227 392.5 c 128,-1,3
 219 360 219 360 212.5 327.5 c 128,-1,4
 206 295 206 295 199 260 c 1,5,-1
 328 260 l 1,6,7
 322 295 322 295 315 327.5 c 128,-1,8
 308 360 308 360 300.5 392.5 c 128,-1,9
 293 425 293 425 284 458.5 c 128,-1,10
 275 492 275 492 264 529 c 1,0,1
381 0 m 1,11,-1
 350 152 l 1,12,-1
 175 152 l 1,13,-1
 145 0 l 1,14,-1
 10 0 l 1,15,16
 57 194 57 194 104.5 353.5 c 128,-1,17
 152 513 152 513 196 656 c 1,18,-1
 338 656 l 1,19,20
 385 512 385 512 431 350.5 c 128,-1,21
 477 189 477 189 520 0 c 1,22,-1
 381 0 l 1,11,-1
EndSplineSet
EndChar

StartChar: B
Encoding: 66 66 37
Width: 500
Flags: W
LayerCount: 2
Fore
SplineSet
238 395 m 2,0,1
 288 395 288 395 313.5 417 c 128,-1,2
 339 439 339 439 339 477 c 0,3,4
 339 500 339 500 331.5 514.5 c 128,-1,5
 324 529 324 529 311.5 537 c 128,-1,6
 299 545 299 545 282 547.5 c 128,-1,7
 265 550 265 550 247 550 c 0,8,9
 232 550 232 550 216 549 c 128,-1,10
 200 548 200 548 188 546 c 1,11,-1
 188 395 l 1,12,-1
 238 395 l 2,0,1
188 287 m 1,13,-1
 188 109 l 1,14,15
 202 107 202 107 218 106 c 128,-1,16
 234 105 234 105 250 105 c 0,17,18
 272 105 272 105 293.5 108.5 c 128,-1,19
 315 112 315 112 331.5 122 c 128,-1,20
 348 132 348 132 358.5 151 c 128,-1,21
 369 170 369 170 369 198 c 0,22,23
 369 246 369 246 338.5 266.5 c 128,-1,24
 308 287 308 287 258 287 c 2,25,-1
 188 287 l 1,13,-1
497 198 m 0,26,27
 497 139 497 139 477 99 c 128,-1,28
 457 59 457 59 422.5 35.5 c 128,-1,29
 388 12 388 12 341 2 c 128,-1,30
 294 -8 294 -8 240 -8 c 0,31,32
 197 -8 197 -8 150 -3.5 c 128,-1,33
 103 1 103 1 57 11 c 1,34,-1
 57 648 l 1,35,36
 94 654 94 654 138.5 659 c 128,-1,37
 183 664 183 664 227 664 c 0,38,39
 301 664 301 664 347.5 648.5 c 128,-1,40
 394 633 394 633 420.5 608 c 128,-1,41
 447 583 447 583 456.5 552.5 c 128,-1,42
 466 522 466 522 466 491 c 0,43,44
 466 444 466 444 443.5 408 c 128,-1,45
 421 372 421 372 383 351 c 1,46,47
 450 327 450 327 473.5 285.5 c 128,-1,48
 497 244 497 244 497 198 c 0,26,27
EndSplineSet
EndChar

StartChar: C
Encoding: 67 67 38
Width: 500
Flags: W
LayerCount: 2
Fore
SplineSet
314 -14 m 0,0,1
 175 -14 175 -14 102 75 c 128,-1,2
 29 164 29 164 29 329 c 0,3,4
 29 411 29 411 51 474 c 128,-1,5
 73 537 73 537 113 581 c 128,-1,6
 153 625 153 625 207.5 648 c 128,-1,7
 262 671 262 671 326 671 c 0,8,9
 361 671 361 671 389.5 665 c 128,-1,10
 418 659 418 659 439 651.5 c 128,-1,11
 460 644 460 644 474.5 636 c 128,-1,12
 489 628 489 628 496 623 c 1,13,-1
 462 519 l 1,14,15
 438 535 438 535 403.5 546.5 c 128,-1,16
 369 558 369 558 324 558 c 0,17,18
 293 558 293 558 264 546.5 c 128,-1,19
 235 535 235 535 212.5 509 c 128,-1,20
 190 483 190 483 175.5 439.5 c 128,-1,21
 161 396 161 396 161 332 c 0,22,23
 161 220 161 220 199.5 160 c 128,-1,24
 238 100 238 100 326 100 c 0,25,26
 377 100 377 100 410.5 111.5 c 128,-1,27
 444 123 444 123 464 135 c 1,28,-1
 497 32 l 1,29,30
 469 15 469 15 422 0.5 c 128,-1,31
 375 -14 375 -14 314 -14 c 0,0,1
EndSplineSet
EndChar

StartChar: D
Encoding: 68 68 39
Width: 500
Flags: W
LayerCount: 2
Fore
SplineSet
501 329 m 0,0,1
 501 238 501 238 478.5 173.5 c 128,-1,2
 456 109 456 109 415.5 69 c 128,-1,3
 375 29 375 29 319.5 10.5 c 128,-1,4
 264 -8 264 -8 197 -8 c 0,5,6
 162 -8 162 -8 128.5 -4.5 c 128,-1,7
 95 -1 95 -1 57 7 c 1,8,-1
 57 648 l 1,9,10
 102 658 102 658 141 661 c 128,-1,11
 180 664 180 664 214 664 c 0,12,13
 279 664 279 664 332.5 644.5 c 128,-1,14
 386 625 386 625 423 584.5 c 128,-1,15
 460 544 460 544 480.5 481 c 128,-1,16
 501 418 501 418 501 329 c 0,0,1
188 106 m 1,17,18
 193 105 193 105 199.5 105 c 128,-1,19
 206 105 206 105 211 105 c 0,20,21
 256 105 256 105 286 122 c 128,-1,22
 316 139 316 139 334.5 168.5 c 128,-1,23
 353 198 353 198 361 239 c 128,-1,24
 369 280 369 280 369 329 c 0,25,26
 369 371 369 371 362.5 411.5 c 128,-1,27
 356 452 356 452 340 482.5 c 128,-1,28
 324 513 324 513 296.5 531.5 c 128,-1,29
 269 550 269 550 226 550 c 0,30,31
 218 550 218 550 207 549.5 c 128,-1,32
 196 549 196 549 188 547 c 1,33,-1
 188 106 l 1,17,18
EndSplineSet
EndChar

StartChar: E
Encoding: 69 69 40
Width: 500
Flags: W
LayerCount: 2
Fore
SplineSet
67 0 m 1,0,-1
 67 656 l 1,1,-1
 464 656 l 1,2,-1
 464 548 l 1,3,-1
 197 548 l 1,4,-1
 197 401 l 1,5,-1
 429 401 l 1,6,-1
 429 293 l 1,7,-1
 197 293 l 1,8,-1
 197 108 l 1,9,-1
 488 108 l 1,10,-1
 488 0 l 1,11,-1
 67 0 l 1,0,-1
EndSplineSet
EndChar

StartChar: F
Encoding: 70 70 41
Width: 500
Flags: W
LayerCount: 2
Fore
SplineSet
67 0 m 1,0,-1
 67 656 l 1,1,-1
 469 656 l 1,2,-1
 469 548 l 1,3,-1
 197 548 l 1,4,-1
 197 389 l 1,5,-1
 435 389 l 1,6,-1
 435 281 l 1,7,-1
 197 281 l 1,8,-1
 197 0 l 1,9,-1
 67 0 l 1,0,-1
EndSplineSet
EndChar

StartChar: G
Encoding: 71 71 42
Width: 500
Flags: W
LayerCount: 2
Fore
SplineSet
331 558 m 0,0,1
 284 558 284 558 252 541 c 128,-1,2
 220 524 220 524 199.5 493.5 c 128,-1,3
 179 463 179 463 170 421 c 128,-1,4
 161 379 161 379 161 329 c 0,5,6
 161 211 161 211 198 155.5 c 128,-1,7
 235 100 235 100 307 100 c 0,8,9
 319 100 319 100 333 101 c 128,-1,10
 347 102 347 102 358 104 c 1,11,-1
 358 227 l 1,12,-1
 297 227 l 1,13,-1
 297 341 l 1,14,-1
 489 343 l 1,15,-1
 489 16 l 1,16,17
 466 8 466 8 416.5 -3 c 128,-1,18
 367 -14 367 -14 297 -14 c 0,19,20
 236 -14 236 -14 186.5 8 c 128,-1,21
 137 30 137 30 102 73 c 128,-1,22
 67 116 67 116 48 180 c 128,-1,23
 29 244 29 244 29 329 c 0,24,25
 29 413 29 413 51 477 c 128,-1,26
 73 541 73 541 111 584.5 c 128,-1,27
 149 628 149 628 201 649.5 c 128,-1,28
 253 671 253 671 313 671 c 0,29,30
 351 671 351 671 381 665 c 128,-1,31
 411 659 411 659 433.5 651.5 c 128,-1,32
 456 644 456 644 470 636 c 128,-1,33
 484 628 484 628 492 623 c 1,34,-1
 458 519 l 1,35,36
 435 534 435 534 401 546 c 128,-1,37
 367 558 367 558 331 558 c 0,0,1
EndSplineSet
EndChar

StartChar: H
Encoding: 72 72 43
Width: 500
Flags: W
LayerCount: 2
Fore
SplineSet
482 656 m 1,0,-1
 482 0 l 1,1,-1
 352 0 l 1,2,-1
 352 289 l 1,3,-1
 178 289 l 1,4,-1
 178 0 l 1,5,-1
 48 0 l 1,6,-1
 48 656 l 1,7,-1
 178 656 l 1,8,-1
 178 398 l 1,9,-1
 352 398 l 1,10,-1
 352 656 l 1,11,-1
 482 656 l 1,0,-1
EndSplineSet
EndChar

StartChar: I
Encoding: 73 73 44
Width: 500
Flags: W
LayerCount: 2
Fore
SplineSet
57 0 m 1,0,-1
 57 108 l 1,1,-1
 200 108 l 1,2,-1
 200 548 l 1,3,-1
 57 548 l 1,4,-1
 57 656 l 1,5,-1
 474 656 l 1,6,-1
 474 548 l 1,7,-1
 332 548 l 1,8,-1
 332 108 l 1,9,-1
 474 108 l 1,10,-1
 474 0 l 1,11,-1
 57 0 l 1,0,-1
EndSplineSet
EndChar

StartChar: J
Encoding: 74 74 45
Width: 500
Flags: W
LayerCount: 2
Fore
SplineSet
464 219 m 2,0,1
 464 171 464 171 452 129 c 128,-1,2
 440 87 440 87 412 55 c 128,-1,3
 384 23 384 23 339.5 4.5 c 128,-1,4
 295 -14 295 -14 231 -14 c 0,5,6
 164 -14 164 -14 119.5 3 c 128,-1,7
 75 20 75 20 45 45 c 1,8,-1
 94 148 l 1,9,10
 120 131 120 131 153 115.5 c 128,-1,11
 186 100 186 100 219 100 c 0,12,13
 270 100 270 100 301.5 127 c 128,-1,14
 333 154 333 154 333 227 c 2,15,-1
 333 548 l 1,16,-1
 332 548 l 1,17,-1
 332 656 l 1,18,-1
 464 656 l 1,19,-1
 464 219 l 2,0,1
EndSplineSet
EndChar

StartChar: K
Encoding: 75 75 46
Width: 500
Flags: W
LayerCount: 2
Fore
SplineSet
371 0 m 1,0,1
 359 37 359 37 337.5 80 c 128,-1,2
 316 123 316 123 289.5 164 c 128,-1,3
 263 205 263 205 234 240.5 c 128,-1,4
 205 276 205 276 178 300 c 1,5,-1
 178 0 l 1,6,-1
 48 0 l 1,7,-1
 48 656 l 1,8,-1
 178 656 l 1,9,-1
 178 384 l 1,10,11
 201 414 201 414 226.5 449.5 c 128,-1,12
 252 485 252 485 275 521.5 c 128,-1,13
 298 558 298 558 317 593 c 128,-1,14
 336 628 336 628 349 656 c 1,15,-1
 496 656 l 1,16,17
 481 627 481 627 460.5 590.5 c 128,-1,18
 440 554 440 554 413.5 514.5 c 128,-1,19
 387 475 387 475 356.5 433.5 c 128,-1,20
 326 392 326 392 294 354 c 1,21,22
 327 322 327 322 360.5 281 c 128,-1,23
 394 240 394 240 424.5 192.5 c 128,-1,24
 455 145 455 145 479.5 96 c 128,-1,25
 504 47 504 47 518 0 c 1,26,-1
 371 0 l 1,0,1
EndSplineSet
EndChar

StartChar: L
Encoding: 76 76 47
Width: 500
Flags: W
LayerCount: 2
Fore
SplineSet
488 0 m 1,0,-1
 75 0 l 1,1,-1
 75 656 l 1,2,-1
 207 656 l 1,3,-1
 207 108 l 1,4,-1
 488 108 l 1,5,-1
 488 0 l 1,0,-1
EndSplineSet
EndChar

StartChar: M
Encoding: 77 77 48
Width: 500
Flags: W
LayerCount: 2
Fore
SplineSet
171 656 m 1,0,1
 178 634 178 634 189 599 c 128,-1,2
 200 564 200 564 213 523.5 c 128,-1,3
 226 483 226 483 238.5 442 c 128,-1,4
 251 401 251 401 263 366 c 1,5,6
 276 405 276 405 289.5 447 c 128,-1,7
 303 489 303 489 316 527.5 c 128,-1,8
 329 566 329 566 339.5 600 c 128,-1,9
 350 634 350 634 358 656 c 1,10,-1
 466 656 l 1,11,12
 473 570 473 570 480.5 488.5 c 128,-1,13
 488 407 488 407 492.5 327 c 128,-1,14
 497 247 497 247 500.5 166 c 128,-1,15
 504 85 504 85 506 0 c 1,16,-1
 386 0 l 1,17,-1
 392 510 l 1,18,-1
 312 232 l 1,19,-1
 216 232 l 1,20,-1
 139 510 l 1,21,-1
 144 0 l 1,22,-1
 24 0 l 1,23,24
 27 81 27 81 31 167.5 c 128,-1,25
 35 254 35 254 39 340 c 128,-1,26
 43 426 43 426 49 506.5 c 128,-1,27
 55 587 55 587 63 656 c 1,28,-1
 171 656 l 1,0,1
EndSplineSet
EndChar

StartChar: N
Encoding: 78 78 49
Width: 500
Flags: W
LayerCount: 2
Fore
SplineSet
376 0 m 1,0,1
 331 109 331 109 279 217.5 c 128,-1,2
 227 326 227 326 166 436 c 1,3,-1
 166 0 l 1,4,-1
 49 0 l 1,5,-1
 49 656 l 1,6,-1
 154 656 l 1,7,8
 184 609 184 609 213.5 554.5 c 128,-1,9
 243 500 243 500 271 446 c 128,-1,10
 299 392 299 392 323 341 c 128,-1,11
 347 290 347 290 364 252 c 1,12,-1
 364 656 l 1,13,-1
 481 656 l 1,14,-1
 481 0 l 1,15,-1
 376 0 l 1,0,1
EndSplineSet
EndChar

StartChar: O
Encoding: 79 79 50
Width: 500
Flags: W
LayerCount: 2
Fore
SplineSet
29 328.5 m 128,-1,1
 29 498 29 498 91.5 584.5 c 128,-1,2
 154 671 154 671 265 671 c 0,3,4
 381 671 381 671 441 584.5 c 128,-1,5
 501 498 501 498 501 328.5 c 128,-1,6
 501 159 501 159 439.5 72.5 c 128,-1,7
 378 -14 378 -14 266 -14 c 0,8,9
 150 -14 150 -14 89.5 72.5 c 128,-1,0
 29 159 29 159 29 328.5 c 128,-1,1
161 328.5 m 128,-1,11
 161 281 161 281 165 239 c 128,-1,12
 169 197 169 197 180 166.5 c 128,-1,13
 191 136 191 136 211 118 c 128,-1,14
 231 100 231 100 265 100 c 0,15,16
 298 100 298 100 318.5 118 c 128,-1,17
 339 136 339 136 350 167 c 128,-1,18
 361 198 361 198 365 239.5 c 128,-1,19
 369 281 369 281 369 328.5 c 128,-1,20
 369 376 369 376 365 418 c 128,-1,21
 361 460 361 460 350 491 c 128,-1,22
 339 522 339 522 319 540 c 128,-1,23
 299 558 299 558 265 558 c 128,-1,24
 231 558 231 558 211 540 c 128,-1,25
 191 522 191 522 180 490.5 c 128,-1,26
 169 459 169 459 165 417.5 c 128,-1,10
 161 376 161 376 161 328.5 c 128,-1,11
EndSplineSet
EndChar

StartChar: P
Encoding: 80 80 51
Width: 500
Flags: W
LayerCount: 2
Fore
SplineSet
252 550 m 0,0,1
 240 550 240 550 219.5 549.5 c 128,-1,2
 199 549 199 549 188 547 c 1,3,-1
 188 335 l 1,4,-1
 241 335 l 2,5,6
 304 335 304 335 335.5 360 c 128,-1,7
 367 385 367 385 367 445 c 0,8,9
 367 502 367 502 335.5 526 c 128,-1,10
 304 550 304 550 252 550 c 0,0,1
237 664 m 0,11,12
 362 664 362 664 431 612.5 c 128,-1,13
 500 561 500 561 500 444 c 0,14,15
 500 326 500 326 430.5 274 c 128,-1,16
 361 222 361 222 234 222 c 2,17,-1
 188 222 l 1,18,-1
 188 0 l 1,19,-1
 57 0 l 1,20,-1
 57 648 l 1,21,22
 76 652 76 652 100 655 c 128,-1,23
 124 658 124 658 148.5 659.5 c 128,-1,24
 173 661 173 661 196 662.5 c 128,-1,25
 219 664 219 664 237 664 c 0,11,12
EndSplineSet
EndChar

StartChar: Q
Encoding: 81 81 52
Width: 500
Flags: W
LayerCount: 2
Fore
SplineSet
161 325.5 m 128,-1,1
 161 278 161 278 165 236.5 c 128,-1,2
 169 195 169 195 180 163.5 c 128,-1,3
 191 132 191 132 211 114 c 128,-1,4
 231 96 231 96 265 96 c 0,5,6
 298 96 298 96 318.5 114 c 128,-1,7
 339 132 339 132 350 163.5 c 128,-1,8
 361 195 361 195 365 236.5 c 128,-1,9
 369 278 369 278 369 325.5 c 128,-1,10
 369 373 369 373 365 415 c 128,-1,11
 361 457 361 457 350 487.5 c 128,-1,12
 339 518 339 518 319 536 c 128,-1,13
 299 554 299 554 265 554 c 128,-1,14
 231 554 231 554 211 536 c 128,-1,15
 191 518 191 518 180 487 c 128,-1,16
 169 456 169 456 165 414.5 c 128,-1,0
 161 373 161 373 161 325.5 c 128,-1,1
29 325 m 0,17,18
 29 495 29 495 91.5 581.5 c 128,-1,19
 154 668 154 668 265 668 c 0,20,21
 381 668 381 668 441 581.5 c 128,-1,22
 501 495 501 495 501 325 c 0,23,24
 501 177 501 177 453.5 91.5 c 128,-1,25
 406 6 406 6 316 -12 c 1,26,27
 328 -38 328 -38 373 -55.5 c 128,-1,28
 418 -73 418 -73 496 -87 c 1,29,-1
 469 -180 l 1,30,31
 345 -163 345 -163 281.5 -123.5 c 128,-1,32
 218 -84 218 -84 207 -10 c 1,33,34
 121 11 121 11 75 95.5 c 128,-1,35
 29 180 29 180 29 325 c 0,17,18
EndSplineSet
EndChar

StartChar: R
Encoding: 82 82 53
Width: 500
Flags: W
LayerCount: 2
Fore
SplineSet
342 449 m 0,0,1
 342 501 342 501 310.5 525.5 c 128,-1,2
 279 550 279 550 227 550 c 0,3,4
 220 550 220 550 209 549.5 c 128,-1,5
 198 549 198 549 188 547 c 1,6,-1
 188 350 l 1,7,-1
 216 350 l 2,8,9
 283 350 283 350 312.5 375.5 c 128,-1,10
 342 401 342 401 342 449 c 0,0,1
227 664 m 0,11,12
 283 664 283 664 328.5 651 c 128,-1,13
 374 638 374 638 407 611.5 c 128,-1,14
 440 585 440 585 457.5 544.5 c 128,-1,15
 475 504 475 504 475 448 c 0,16,17
 475 391 475 391 451.5 344.5 c 128,-1,18
 428 298 428 298 374 273 c 1,19,20
 392 245 392 245 412 212 c 128,-1,21
 432 179 432 179 451.5 142.5 c 128,-1,22
 471 106 471 106 488.5 69.5 c 128,-1,23
 506 33 506 33 518 0 c 1,24,-1
 382 0 l 1,25,26
 358 64 358 64 325.5 122.5 c 128,-1,27
 293 181 293 181 255 242 c 1,28,-1
 188 242 l 1,29,-1
 188 0 l 1,30,-1
 57 0 l 1,31,-1
 57 647 l 1,32,33
 76 651 76 651 99 654.5 c 128,-1,34
 122 658 122 658 145.5 659.5 c 128,-1,35
 169 661 169 661 190 662.5 c 128,-1,36
 211 664 211 664 227 664 c 0,11,12
EndSplineSet
EndChar

StartChar: S
Encoding: 83 83 54
Width: 500
Flags: W
LayerCount: 2
Fore
SplineSet
246 95 m 0,0,1
 279 95 279 95 300.5 102 c 128,-1,2
 322 109 322 109 335 121.5 c 128,-1,3
 348 134 348 134 352.5 149 c 128,-1,4
 357 164 357 164 357 180 c 0,5,6
 357 200 357 200 345.5 216 c 128,-1,7
 334 232 334 232 316 244.5 c 128,-1,8
 298 257 298 257 275.5 267 c 128,-1,9
 253 277 253 277 231 285 c 0,10,11
 201 296 201 296 169.5 309.5 c 128,-1,12
 138 323 138 323 112 344.5 c 128,-1,13
 86 366 86 366 69 397 c 128,-1,14
 52 428 52 428 52 475 c 0,15,16
 52 567 52 567 112 619 c 128,-1,17
 172 671 172 671 277 671 c 0,18,19
 337 671 337 671 382 657 c 128,-1,20
 427 643 427 643 458 626 c 1,21,-1
 420 526 l 1,22,23
 394 541 394 541 361.5 551.5 c 128,-1,24
 329 562 329 562 286 562 c 0,25,26
 182 562 182 562 182 487 c 0,27,28
 182 468 182 468 193 453.5 c 128,-1,29
 204 439 204 439 220 428 c 128,-1,30
 236 417 236 417 257 408.5 c 128,-1,31
 278 400 278 400 298 392 c 0,32,33
 329 380 329 380 362 366 c 128,-1,34
 395 352 395 352 423.5 328 c 128,-1,35
 452 304 452 304 470 268.5 c 128,-1,36
 488 233 488 233 488 179 c 0,37,38
 488 87 488 87 428 36.5 c 128,-1,39
 368 -14 368 -14 246 -14 c 0,40,41
 164 -14 164 -14 115.5 3.5 c 128,-1,42
 67 21 67 21 42 36 c 1,43,-1
 81 142 l 1,44,45
 110 125 110 125 149.5 110 c 128,-1,46
 189 95 189 95 246 95 c 0,0,1
EndSplineSet
EndChar

StartChar: T
Encoding: 84 84 55
Width: 500
Flags: W
LayerCount: 2
Fore
SplineSet
504 656 m 1,0,-1
 504 548 l 1,1,-1
 331 548 l 1,2,-1
 331 0 l 1,3,-1
 199 0 l 1,4,-1
 199 548 l 1,5,-1
 26 548 l 1,6,-1
 26 656 l 1,7,-1
 504 656 l 1,0,-1
EndSplineSet
EndChar

StartChar: U
Encoding: 85 85 56
Width: 500
Flags: W
LayerCount: 2
Fore
SplineSet
263 -14 m 0,0,1
 199 -14 199 -14 156 3.5 c 128,-1,2
 113 21 113 21 88 54 c 128,-1,3
 63 87 63 87 52 133.5 c 128,-1,4
 41 180 41 180 41 237 c 2,5,-1
 41 656 l 1,6,-1
 173 656 l 1,7,-1
 173 246 l 2,8,9
 173 205 173 205 177 176.5 c 128,-1,10
 181 148 181 148 191 131 c 128,-1,11
 201 114 201 114 219 107 c 128,-1,12
 237 100 237 100 265 100 c 128,-1,13
 293 100 293 100 311 107 c 128,-1,14
 329 114 329 114 339.5 131.5 c 128,-1,15
 350 149 350 149 354 177.5 c 128,-1,16
 358 206 358 206 358 247 c 2,17,-1
 358 656 l 1,18,-1
 489 656 l 1,19,-1
 489 237 l 2,20,21
 489 180 489 180 478 133.5 c 128,-1,22
 467 87 467 87 440.5 54 c 128,-1,23
 414 21 414 21 371 3.5 c 128,-1,24
 328 -14 328 -14 263 -14 c 0,0,1
EndSplineSet
EndChar

StartChar: V
Encoding: 86 86 57
Width: 500
Flags: W
LayerCount: 2
Fore
SplineSet
197 0 m 1,0,1
 172 73 172 73 143 165.5 c 128,-1,2
 114 258 114 258 89 349.5 c 128,-1,3
 64 441 64 441 43.5 522.5 c 128,-1,4
 23 604 23 604 14 656 c 1,5,-1
 152 656 l 1,6,7
 158 605 158 605 170.5 538 c 128,-1,8
 183 471 183 471 198.5 399.5 c 128,-1,9
 214 328 214 328 231.5 258.5 c 128,-1,10
 249 189 249 189 266 134 c 1,11,12
 283 188 283 188 300 257 c 128,-1,13
 317 326 317 326 332 398 c 128,-1,14
 347 470 347 470 359.5 537.5 c 128,-1,15
 372 605 372 605 381 656 c 1,16,-1
 517 656 l 1,17,18
 504 592 504 592 485.5 514 c 128,-1,19
 467 436 467 436 443.5 349.5 c 128,-1,20
 420 263 420 263 391.5 173.5 c 128,-1,21
 363 84 363 84 332 0 c 1,22,-1
 197 0 l 1,0,1
EndSplineSet
EndChar

StartChar: W
Encoding: 87 87 58
Width: 500
Flags: W
LayerCount: 2
Fore
SplineSet
314 424 m 1,0,1
 318 404 318 404 326.5 374 c 128,-1,2
 335 344 335 344 345 308 c 128,-1,3
 355 272 355 272 367 231 c 128,-1,4
 379 190 379 190 391 146 c 1,5,6
 391 201 391 201 390 264.5 c 128,-1,7
 389 328 389 328 388 393.5 c 128,-1,8
 387 459 387 459 386 526.5 c 128,-1,9
 385 594 385 594 385 656 c 1,10,-1
 506 656 l 1,11,12
 503 575 503 575 499.5 490 c 128,-1,13
 496 405 496 405 492 320.5 c 128,-1,14
 488 236 488 236 482 154.5 c 128,-1,15
 476 73 476 73 469 0 c 1,16,-1
 360 0 l 1,17,18
 337 67 337 67 313.5 143.5 c 128,-1,19
 290 220 290 220 267 290 c 1,20,21
 244 223 244 223 218.5 145 c 128,-1,22
 193 67 193 67 172 0 c 1,23,-1
 64 0 l 1,24,25
 56 73 56 73 49 155 c 128,-1,26
 42 237 42 237 37.5 321.5 c 128,-1,27
 33 406 33 406 29.5 491.5 c 128,-1,28
 26 577 26 577 24 656 c 1,29,-1
 145 656 l 1,30,31
 144 593 144 593 143 526.5 c 128,-1,32
 142 460 142 460 141 394 c 128,-1,33
 140 328 140 328 139 264.5 c 128,-1,34
 138 201 138 201 138 146 c 1,35,36
 148 180 148 180 160 220.5 c 128,-1,37
 172 261 172 261 183 300 c 128,-1,38
 194 339 194 339 203.5 372 c 128,-1,39
 213 405 213 405 218 424 c 1,40,-1
 314 424 l 1,0,1
EndSplineSet
EndChar

StartChar: X
Encoding: 88 88 59
Width: 500
Flags: W
LayerCount: 2
Fore
SplineSet
377 0 m 1,0,1
 357 54 357 54 328 120 c 128,-1,2
 299 186 299 186 267 251 c 1,3,4
 236 188 236 188 205.5 121 c 128,-1,5
 175 54 175 54 153 0 c 1,6,-1
 12 0 l 1,7,8
 23 29 23 29 43.5 69 c 128,-1,9
 64 109 64 109 88.5 155.5 c 128,-1,10
 113 202 113 202 141 251.5 c 128,-1,11
 169 301 169 301 194 347 c 1,12,-1
 22 656 l 1,13,-1
 163 656 l 1,14,-1
 267 446 l 1,15,-1
 376 656 l 1,16,-1
 508 656 l 1,17,-1
 340 350 l 1,18,19
 369 304 369 304 396.5 254.5 c 128,-1,20
 424 205 424 205 448 157.5 c 128,-1,21
 472 110 472 110 490 69.5 c 128,-1,22
 508 29 508 29 518 0 c 1,23,-1
 377 0 l 1,0,1
EndSplineSet
EndChar

StartChar: Y
Encoding: 89 89 60
Width: 500
Flags: W
LayerCount: 2
Fore
SplineSet
269 356 m 1,0,1
 281 380 281 380 296.5 417.5 c 128,-1,2
 312 455 312 455 327 496 c 128,-1,3
 342 537 342 537 356.5 579.5 c 128,-1,4
 371 622 371 622 383 656 c 1,5,-1
 517 656 l 1,6,7
 497 602 497 602 477 551 c 128,-1,8
 457 500 457 500 434.5 450.5 c 128,-1,9
 412 401 412 401 386.5 351.5 c 128,-1,10
 361 302 361 302 332 250 c 1,11,-1
 332 0 l 1,12,-1
 200 0 l 1,13,-1
 200 249 l 1,14,15
 142 352 142 352 98 450 c 128,-1,16
 54 548 54 548 14 656 c 1,17,-1
 154 656 l 1,18,19
 178 580 178 580 207.5 501 c 128,-1,20
 237 422 237 422 269 356 c 1,0,1
EndSplineSet
EndChar

StartChar: Z
Encoding: 90 90 61
Width: 500
Flags: W
LayerCount: 2
Fore
SplineSet
472 565 m 1,0,1
 426 495 426 495 388 433.5 c 128,-1,2
 350 372 350 372 317 316.5 c 128,-1,3
 284 261 284 261 255 209.5 c 128,-1,4
 226 158 226 158 199 108 c 1,5,-1
 481 108 l 1,6,-1
 481 0 l 1,7,-1
 49 0 l 1,8,-1
 49 75 l 1,9,10
 72 121 72 121 98.5 171.5 c 128,-1,11
 125 222 125 222 158 279 c 128,-1,12
 191 336 191 336 229.5 403 c 128,-1,13
 268 470 268 470 315 548 c 1,14,-1
 63 548 l 1,15,-1
 63 656 l 1,16,-1
 472 656 l 1,17,-1
 472 565 l 1,0,1
EndSplineSet
EndChar

StartChar: bracketleft
Encoding: 91 91 62
Width: 500
Flags: W
LayerCount: 2
Fore
SplineSet
120 741 m 1,0,-1
 413 741 l 1,1,-1
 413 639 l 1,2,-1
 244 639 l 1,3,-1
 244 -73 l 1,4,-1
 413 -73 l 1,5,-1
 413 -175 l 1,6,-1
 120 -175 l 1,7,-1
 120 741 l 1,0,-1
EndSplineSet
Substitution2: "'case' +WSdlh1tXfUQwf3UoMGuKv2V0MFcwX1tXX2IA lookup 17 +MLUw1jDGMPww1jDr" Bracketleft
EndChar

StartChar: backslash
Encoding: 92 92 63
Width: 500
Flags: W
LayerCount: 2
Fore
SplineSet
52 741 m 1,0,-1
 186 741 l 1,1,-1
 482 -175 l 1,2,-1
 348 -175 l 1,3,-1
 52 741 l 1,0,-1
EndSplineSet
Substitution2: "'case' +WSdlh1tXfUQwf3UoMGuKv2V0MFcwX1tXX2IA lookup 17 +MLUw1jDGMPww1jDr" Backslash
EndChar

StartChar: bracketright
Encoding: 93 93 64
Width: 500
Flags: W
LayerCount: 2
Fore
SplineSet
410 -175 m 1,0,-1
 116 -175 l 1,1,-1
 116 -73 l 1,2,-1
 285 -73 l 1,3,-1
 285 639 l 1,4,-1
 116 639 l 1,5,-1
 116 741 l 1,6,-1
 410 741 l 1,7,-1
 410 -175 l 1,0,-1
EndSplineSet
Substitution2: "'case' +WSdlh1tXfUQwf3UoMGuKv2V0MFcwX1tXX2IA lookup 17 +MLUw1jDGMPww1jDr" Bracketright
EndChar

StartChar: asciicircum
Encoding: 94 94 65
Width: 500
Flags: W
LayerCount: 2
Fore
SplineSet
520 328 m 1,0,-1
 403 270 l 1,1,-1
 269 501 l 1,2,-1
 136 270 l 1,3,-1
 17 328 l 1,4,-1
 213 656 l 1,5,-1
 324 656 l 1,6,-1
 520 328 l 1,0,-1
EndSplineSet
EndChar

StartChar: underscore
Encoding: 95 95 66
Width: 500
Flags: W
LayerCount: 2
Fore
SplineSet
51 -61 m 1,0,-1
 487 -61 l 1,1,-1
 487 -175 l 1,2,-1
 51 -175 l 1,3,-1
 51 -61 l 1,0,-1
EndSplineSet
EndChar

StartChar: grave
Encoding: 96 96 67
Width: 500
Flags: W
LayerCount: 2
Fore
SplineSet
226 732 m 1,0,-1
 393 615 l 1,1,-1
 346 544 l 1,2,-1
 161 633 l 1,3,-1
 226 732 l 1,0,-1
EndSplineSet
EndChar

StartChar: a
Encoding: 97 97 68
Width: 500
Flags: W
LayerCount: 2
Fore
SplineSet
254 511 m 0,0,1
 315 511 315 511 356.5 496.5 c 128,-1,2
 398 482 398 482 422 456 c 128,-1,3
 446 430 446 430 456.5 392.5 c 128,-1,4
 467 355 467 355 467 308 c 2,5,-1
 467 12 l 1,6,7
 438 6 438 6 382 -3 c 128,-1,8
 326 -12 326 -12 257 -12 c 0,9,10
 209 -12 209 -12 170 -3.5 c 128,-1,11
 131 5 131 5 103.5 25 c 128,-1,12
 76 45 76 45 61.5 76 c 128,-1,13
 47 107 47 107 47 153 c 0,14,15
 47 196 47 196 64 225.5 c 128,-1,16
 81 255 81 255 109.5 273.5 c 128,-1,17
 138 292 138 292 175 299.5 c 128,-1,18
 212 307 212 307 252 307 c 0,19,20
 303 307 303 307 342 299 c 1,21,-1
 342 315 l 2,22,23
 342 352 342 352 319 377 c 128,-1,24
 296 402 296 402 238 402 c 0,25,26
 201 402 201 402 166.5 396.5 c 128,-1,27
 132 391 132 391 111 384 c 1,28,-1
 93 489 l 1,29,30
 117 497 117 497 161.5 504 c 128,-1,31
 206 511 206 511 254 511 c 0,0,1
266 93 m 0,32,33
 287 93 287 93 307.5 93.5 c 128,-1,34
 328 94 328 94 342 96 c 1,35,-1
 342 211 l 1,36,37
 329 213 329 213 311.5 214.5 c 128,-1,38
 294 216 294 216 279 216 c 0,39,40
 259 216 259 216 239.5 213.5 c 128,-1,41
 220 211 220 211 206 204.5 c 128,-1,42
 192 198 192 198 183.5 186.5 c 128,-1,43
 175 175 175 175 175 156 c 0,44,45
 175 122 175 122 200.5 107.5 c 128,-1,46
 226 93 226 93 266 93 c 0,32,33
EndSplineSet
Substitution2: "'case' +WSdlh1tXfUQwf3UoMGuKv2V0MFcwX1tXX2IA lookup 18 +MLUw1jDGMPww1jDr" A
Substitution2: "'ordn' +Xo9lcAAA in +MOkwxjDzZYdbVwAA lookup 7 +MLUw1jDGMPww1jDr" ordfeminine
EndChar

StartChar: b
Encoding: 98 98 69
Width: 500
Flags: W
LayerCount: 2
Fore
SplineSet
498 249 m 0,0,1
 498 190 498 190 482 141.5 c 128,-1,2
 466 93 466 93 435.5 59 c 128,-1,3
 405 25 405 25 360.5 6.5 c 128,-1,4
 316 -12 316 -12 259 -12 c 0,5,6
 208 -12 208 -12 155 -4.5 c 128,-1,7
 102 3 102 3 66 15 c 1,8,-1
 66 713 l 1,9,-1
 196 736 l 1,10,-1
 196 487 l 1,11,12
 224 500 224 500 249.5 504.5 c 128,-1,13
 275 509 275 509 300 509 c 0,14,15
 349 509 349 509 386 490.5 c 128,-1,16
 423 472 423 472 448 437.5 c 128,-1,17
 473 403 473 403 485.5 355 c 128,-1,18
 498 307 498 307 498 249 c 0,0,1
366 252 m 0,19,20
 366 322 366 322 343 359 c 128,-1,21
 320 396 320 396 273 396 c 0,22,23
 252 396 252 396 231.5 390.5 c 128,-1,24
 211 385 211 385 196 376 c 1,25,-1
 196 106 l 1,26,27
 211 103 211 103 227.5 102 c 128,-1,28
 244 101 244 101 255 101 c 0,29,30
 306 101 306 101 336 135 c 128,-1,31
 366 169 366 169 366 252 c 0,19,20
EndSplineSet
Substitution2: "'case' +WSdlh1tXfUQwf3UoMGuKv2V0MFcwX1tXX2IA lookup 18 +MLUw1jDGMPww1jDr" B
EndChar

StartChar: c
Encoding: 99 99 70
Width: 500
Flags: W
LayerCount: 2
Fore
SplineSet
47 249 m 0,0,1
 47 303 47 303 64 351 c 128,-1,2
 81 399 81 399 116 434.5 c 128,-1,3
 151 470 151 470 204.5 490.5 c 128,-1,4
 258 511 258 511 332 511 c 0,5,6
 377 511 377 511 412.5 504.5 c 128,-1,7
 448 498 448 498 485 483 c 1,8,-1
 457 378 l 1,9,10
 436 385 436 385 410 391.5 c 128,-1,11
 384 398 384 398 343 398 c 0,12,13
 296 398 296 398 265 386.5 c 128,-1,14
 234 375 234 375 215 355.5 c 128,-1,15
 196 336 196 336 187.5 308.5 c 128,-1,16
 179 281 179 281 179 249 c 0,17,18
 179 180 179 180 218 141 c 128,-1,19
 257 102 257 102 350 102 c 0,20,21
 381 102 381 102 414 106 c 128,-1,22
 447 110 447 110 475 120 c 1,23,-1
 494 13 l 1,24,25
 466 2 466 2 427 -5 c 128,-1,26
 388 -12 388 -12 335 -12 c 0,27,28
 259 -12 259 -12 204 8.5 c 128,-1,29
 149 29 149 29 114.5 64 c 128,-1,30
 80 99 80 99 63.5 146.5 c 128,-1,31
 47 194 47 194 47 249 c 0,0,1
EndSplineSet
Substitution2: "'case' +WSdlh1tXfUQwf3UoMGuKv2V0MFcwX1tXX2IA lookup 18 +MLUw1jDGMPww1jDr" C
EndChar

StartChar: d
Encoding: 100 100 71
Width: 500
Flags: W
LayerCount: 2
Fore
SplineSet
456 15 m 1,0,1
 420 3 420 3 368 -4.5 c 128,-1,2
 316 -12 316 -12 266 -12 c 0,3,4
 149 -12 149 -12 89.5 57 c 128,-1,5
 30 126 30 126 30 246 c 0,6,7
 30 368 30 368 80 438.5 c 128,-1,8
 130 509 130 509 229 509 c 0,9,10
 255 509 255 509 280.5 503 c 128,-1,11
 306 497 306 497 325 487 c 1,12,-1
 325 713 l 1,13,-1
 456 736 l 1,14,-1
 456 15 l 1,0,1
162 252 m 0,15,16
 162 185 162 185 187 143 c 128,-1,17
 212 101 212 101 267 101 c 0,18,19
 283 101 283 101 297 102 c 128,-1,20
 311 103 311 103 325 105 c 1,21,-1
 325 376 l 1,22,23
 310 384 310 384 291 390 c 128,-1,24
 272 396 272 396 251 396 c 0,25,26
 204 396 204 396 183 359 c 128,-1,27
 162 322 162 322 162 252 c 0,15,16
EndSplineSet
Substitution2: "'case' +WSdlh1tXfUQwf3UoMGuKv2V0MFcwX1tXX2IA lookup 18 +MLUw1jDGMPww1jDr" D
EndChar

StartChar: e
Encoding: 101 101 72
Width: 500
Flags: W
LayerCount: 2
Fore
SplineSet
367 297 m 1,0,1
 367 317 367 317 361.5 335.5 c 128,-1,2
 356 354 356 354 344.5 369 c 128,-1,3
 333 384 333 384 315 393 c 128,-1,4
 297 402 297 402 270 402 c 0,5,6
 245 402 245 402 226.5 393.5 c 128,-1,7
 208 385 208 385 195.5 370 c 128,-1,8
 183 355 183 355 176.5 336 c 128,-1,9
 170 317 170 317 167 297 c 1,10,-1
 367 297 l 1,0,1
33 245 m 0,11,12
 33 311 33 311 53 360.5 c 128,-1,13
 73 410 73 410 106 443.5 c 128,-1,14
 139 477 139 477 181.5 494 c 128,-1,15
 224 511 224 511 268 511 c 0,16,17
 378 511 378 511 435.5 446 c 128,-1,18
 493 381 493 381 493 255 c 0,19,20
 493 242 493 242 492.5 228.5 c 128,-1,21
 492 215 492 215 491 207 c 1,22,-1
 167 207 l 1,23,24
 167 158 167 158 207.5 130 c 128,-1,25
 248 102 248 102 312 102 c 0,26,27
 351 102 351 102 386.5 110.5 c 128,-1,28
 422 119 422 119 446 127 c 1,29,-1
 464 16 l 1,30,31
 430 4 430 4 392 -4 c 128,-1,32
 354 -12 354 -12 306 -12 c 0,33,34
 242 -12 242 -12 192 4.5 c 128,-1,35
 142 21 142 21 106.5 53.5 c 128,-1,36
 71 86 71 86 52 133.5 c 128,-1,37
 33 181 33 181 33 245 c 0,11,12
EndSplineSet
Substitution2: "'case' +WSdlh1tXfUQwf3UoMGuKv2V0MFcwX1tXX2IA lookup 18 +MLUw1jDGMPww1jDr" E
EndChar

StartChar: f
Encoding: 102 102 73
Width: 500
Flags: W
LayerCount: 2
Fore
SplineSet
147 0 m 1,0,-1
 147 390 l 1,1,-1
 38 390 l 1,2,-1
 38 498 l 1,3,-1
 147 498 l 1,4,-1
 147 527 l 2,5,6
 147 587 147 587 164.5 627 c 128,-1,7
 182 667 182 667 212 690.5 c 128,-1,8
 242 714 242 714 280 724.5 c 128,-1,9
 318 735 318 735 358 735 c 0,10,11
 399 735 399 735 443 727.5 c 128,-1,12
 487 720 487 720 522 703 c 1,13,-1
 499 597 l 1,14,15
 475 605 475 605 438.5 614 c 128,-1,16
 402 623 402 623 369 623 c 0,17,18
 351 623 351 623 334.5 620 c 128,-1,19
 318 617 318 617 306 606.5 c 128,-1,20
 294 596 294 596 286.5 576 c 128,-1,21
 279 556 279 556 279 525 c 2,22,-1
 279 498 l 1,23,-1
 483 498 l 1,24,-1
 483 390 l 1,25,-1
 279 390 l 1,26,-1
 279 0 l 1,27,-1
 147 0 l 1,0,-1
EndSplineSet
Substitution2: "'case' +WSdlh1tXfUQwf3UoMGuKv2V0MFcwX1tXX2IA lookup 18 +MLUw1jDGMPww1jDr" F
EndChar

StartChar: g
Encoding: 103 103 74
Width: 500
Flags: W
LayerCount: 2
Fore
SplineSet
464 60 m 2,0,1
 464 -62 464 -62 405.5 -120 c 128,-1,2
 347 -178 347 -178 216 -178 c 0,3,4
 169 -178 169 -178 126.5 -168.5 c 128,-1,5
 84 -159 84 -159 45 -146 c 1,6,-1
 69 -36 l 1,7,8
 100 -48 100 -48 133.5 -58 c 128,-1,9
 167 -68 167 -68 218 -68 c 0,10,11
 252 -68 252 -68 274.5 -60 c 128,-1,12
 297 -52 297 -52 309.5 -38 c 128,-1,13
 322 -24 322 -24 327.5 -5.5 c 128,-1,14
 333 13 333 13 333 34 c 2,15,-1
 333 54 l 1,16,17
 305 43 305 43 282.5 38 c 128,-1,18
 260 33 260 33 233 33 c 0,19,20
 135 33 135 33 85 94.5 c 128,-1,21
 35 156 35 156 35 265 c 0,22,23
 35 388 35 388 103 448.5 c 128,-1,24
 171 509 171 509 287 509 c 0,25,26
 369 509 369 509 464 482 c 1,27,-1
 464 60 l 2,0,1
167 265 m 0,28,29
 167 204 167 204 189.5 171.5 c 128,-1,30
 212 139 212 139 260 139 c 0,31,32
 281 139 281 139 299.5 144 c 128,-1,33
 318 149 318 149 333 158 c 1,34,-1
 333 398 l 1,35,36
 318 401 318 401 306.5 402 c 128,-1,37
 295 403 295 403 282 403 c 0,38,39
 167 403 167 403 167 265 c 0,28,29
EndSplineSet
Substitution2: "'case' +WSdlh1tXfUQwf3UoMGuKv2V0MFcwX1tXX2IA lookup 18 +MLUw1jDGMPww1jDr" G
EndChar

StartChar: h
Encoding: 104 104 75
Width: 500
Flags: W
LayerCount: 2
Fore
SplineSet
67 0 m 1,0,-1
 67 713 l 1,1,-1
 197 736 l 1,2,-1
 197 494 l 1,3,4
 213 499 213 499 235.5 504 c 128,-1,5
 258 509 258 509 275 509 c 0,6,7
 330 509 330 509 367 492.5 c 128,-1,8
 404 476 404 476 426 446 c 128,-1,9
 448 416 448 416 457.5 374 c 128,-1,10
 467 332 467 332 467 281 c 2,11,-1
 467 0 l 1,12,-1
 337 0 l 1,13,-1
 337 264 l 2,14,15
 337 334 337 334 321 364.5 c 128,-1,16
 305 395 305 395 261 395 c 0,17,18
 243 395 243 395 225.5 391 c 128,-1,19
 208 387 208 387 197 384 c 1,20,-1
 197 0 l 1,21,-1
 67 0 l 1,0,-1
EndSplineSet
Substitution2: "'case' +WSdlh1tXfUQwf3UoMGuKv2V0MFcwX1tXX2IA lookup 18 +MLUw1jDGMPww1jDr" H
EndChar

StartChar: i
Encoding: 105 105 76
Width: 500
Flags: W
LayerCount: 2
Fore
SplineSet
408 641 m 0,0,1
 408 603 408 603 383.5 581 c 128,-1,2
 359 559 359 559 325.5 559 c 128,-1,3
 292 559 292 559 268 581 c 128,-1,4
 244 603 244 603 244 641 c 0,5,6
 244 680 244 680 268 702.5 c 128,-1,7
 292 725 292 725 325.5 725 c 128,-1,8
 359 725 359 725 383.5 702.5 c 128,-1,9
 408 680 408 680 408 641 c 0,0,1
260 390 m 1,10,-1
 122 390 l 1,11,-1
 122 498 l 1,12,-1
 390 498 l 1,13,-1
 390 0 l 1,14,-1
 260 0 l 1,15,-1
 260 390 l 1,10,-1
EndSplineSet
Substitution2: "'case' +WSdlh1tXfUQwf3UoMGuKv2V0MFcwX1tXX2IA lookup 18 +MLUw1jDGMPww1jDr" I
Substitution2: "'locl' +Vv0w+1cwV99W+mcJMG5bV19i in +MOkwxjDzZYdbVwAA lookup 2 +MLUw1jDGMPww1jDr" i.locl
Substitution2: "'locl' +Vv0w+1cwV99W+mcJMG5bV19i in +MOkwxjDzZYdbVwAA lookup 1 +MLUw1jDGMPww1jDr" i.locl
Substitution2: "'locl' +Vv0w+1cwV99W+mcJMG5bV19i in +MOkwxjDzZYdbVwAA lookup 0 +MLUw1jDGMPww1jDr" i.locl
EndChar

StartChar: j
Encoding: 106 106 77
Width: 500
Flags: W
LayerCount: 2
Fore
SplineSet
446 641 m 0,0,1
 446 603 446 603 422 581 c 128,-1,2
 398 559 398 559 364 559 c 128,-1,3
 330 559 330 559 306 581 c 128,-1,4
 282 603 282 603 282 641 c 0,5,6
 282 680 282 680 306 702.5 c 128,-1,7
 330 725 330 725 364 725 c 128,-1,8
 398 725 398 725 422 702.5 c 128,-1,9
 446 680 446 680 446 641 c 0,0,1
424 33 m 2,10,11
 424 -27 424 -27 409 -68 c 128,-1,12
 394 -109 394 -109 368 -134 c 128,-1,13
 342 -159 342 -159 306.5 -169.5 c 128,-1,14
 271 -180 271 -180 230 -180 c 0,15,16
 179 -180 179 -180 135.5 -167.5 c 128,-1,17
 92 -155 92 -155 52 -135 c 1,18,-1
 92 -24 l 1,19,20
 118 -39 118 -39 156 -52.5 c 128,-1,21
 194 -66 194 -66 225 -66 c 0,22,23
 258 -66 258 -66 276 -46 c 128,-1,24
 294 -26 294 -26 294 26 c 2,25,-1
 294 390 l 1,26,-1
 294 498 l 1,27,-1
 424 498 l 1,28,-1
 424 33 l 2,10,11
EndSplineSet
Substitution2: "'case' +WSdlh1tXfUQwf3UoMGuKv2V0MFcwX1tXX2IA lookup 18 +MLUw1jDGMPww1jDr" J
EndChar

StartChar: k
Encoding: 107 107 78
Width: 500
Flags: W
LayerCount: 2
Fore
SplineSet
198 301 m 1,0,1
 217 323 217 323 237 348 c 128,-1,2
 257 373 257 373 275.5 399.5 c 128,-1,3
 294 426 294 426 311 451 c 128,-1,4
 328 476 328 476 340 498 c 1,5,-1
 497 498 l 1,6,7
 478 474 478 474 453.5 445.5 c 128,-1,8
 429 417 429 417 403 387 c 128,-1,9
 377 357 377 357 351 329.5 c 128,-1,10
 325 302 325 302 304 279 c 1,11,12
 330 254 330 254 361 218 c 128,-1,13
 392 182 392 182 422 144 c 128,-1,14
 452 106 452 106 476.5 68 c 128,-1,15
 501 30 501 30 516 0 c 1,16,-1
 367 0 l 1,17,18
 354 26 354 26 333.5 59.5 c 128,-1,19
 313 93 313 93 289.5 125.5 c 128,-1,20
 266 158 266 158 242 187 c 128,-1,21
 218 216 218 216 198 235 c 1,22,-1
 198 0 l 1,23,-1
 67 0 l 1,24,-1
 67 713 l 1,25,-1
 198 736 l 1,26,-1
 198 301 l 1,0,1
EndSplineSet
Substitution2: "'case' +WSdlh1tXfUQwf3UoMGuKv2V0MFcwX1tXX2IA lookup 18 +MLUw1jDGMPww1jDr" K
EndChar

StartChar: l
Encoding: 108 108 79
Width: 500
Flags: W
LayerCount: 2
Fore
SplineSet
495 21 m 2,0,1
 495 20 495 20 481 14 c 0,2,3
 470 9 470 9 452 3 c 128,-1,4
 434 -3 434 -3 408 -7.5 c 128,-1,5
 382 -12 382 -12 349 -12 c 0,6,7
 255 -12 255 -12 217 42 c 0,8,9
 176 104 176 104 176 198 c 2,10,-1
 176 729 l 1,11,-1
 306 729 l 1,12,-1
 306 189 l 2,13,14
 306 138 306 138 326.5 120 c 128,-1,15
 347 102 347 102 377 102 c 0,16,17
 416 102 416 102 443 112.5 c 128,-1,18
 470 123 470 123 478 126 c 1,19,-1
 495 21 l 2,0,1
EndSplineSet
Substitution2: "'case' +WSdlh1tXfUQwf3UoMGuKv2V0MFcwX1tXX2IA lookup 18 +MLUw1jDGMPww1jDr" L
EndChar

StartChar: m
Encoding: 109 109 80
Width: 500
Flags: W
LayerCount: 2
Fore
SplineSet
364 504 m 0,0,1
 405 504 405 504 431.5 491 c 128,-1,2
 458 478 458 478 473.5 452.5 c 128,-1,3
 489 427 489 427 494 388.5 c 128,-1,4
 499 350 499 350 499 298 c 2,5,-1
 499 0 l 1,6,-1
 393 0 l 1,7,-1
 393 304 l 2,8,9
 393 334 393 334 389.5 352 c 128,-1,10
 386 370 386 370 380 379.5 c 128,-1,11
 374 389 374 389 366 392 c 128,-1,12
 358 395 358 395 350 395 c 0,13,14
 340 395 340 395 329.5 393.5 c 128,-1,15
 319 392 319 392 311 388 c 1,16,17
 314 368 314 368 316 343.5 c 128,-1,18
 318 319 318 319 318 289 c 2,19,-1
 318 190 l 1,20,-1
 212 190 l 1,21,-1
 212 304 l 2,22,23
 212 355 212 355 202 375 c 128,-1,24
 192 395 192 395 170 395 c 0,25,26
 164 395 164 395 154.5 394 c 128,-1,27
 145 393 145 393 137 391 c 1,28,-1
 137 0 l 1,29,-1
 31 0 l 1,30,-1
 31 479 l 1,31,32
 72 491 72 491 112.5 497.5 c 128,-1,33
 153 504 153 504 183 504 c 0,34,35
 211 504 211 504 232.5 497 c 128,-1,36
 254 490 254 490 270 474 c 1,37,38
 288 486 288 486 313 495 c 128,-1,39
 338 504 338 504 364 504 c 0,0,1
EndSplineSet
Substitution2: "'case' +WSdlh1tXfUQwf3UoMGuKv2V0MFcwX1tXX2IA lookup 18 +MLUw1jDGMPww1jDr" M
EndChar

StartChar: n
Encoding: 110 110 81
Width: 500
Flags: W
LayerCount: 2
Fore
SplineSet
67 482 m 1,0,1
 102 492 102 492 153.5 500.5 c 128,-1,2
 205 509 205 509 265 509 c 0,3,4
 324 509 324 509 363.5 492.5 c 128,-1,5
 403 476 403 476 425.5 446 c 128,-1,6
 448 416 448 416 457.5 374 c 128,-1,7
 467 332 467 332 467 281 c 2,8,-1
 467 0 l 1,9,-1
 337 0 l 1,10,-1
 337 264 l 2,11,12
 337 334 337 334 321 364.5 c 128,-1,13
 305 395 305 395 257 395 c 0,14,15
 242 395 242 395 227.5 394 c 128,-1,16
 213 393 213 393 197 391 c 1,17,-1
 197 0 l 1,18,-1
 67 0 l 1,19,-1
 67 482 l 1,0,1
EndSplineSet
Substitution2: "'case' +WSdlh1tXfUQwf3UoMGuKv2V0MFcwX1tXX2IA lookup 18 +MLUw1jDGMPww1jDr" N
EndChar

StartChar: o
Encoding: 111 111 82
Width: 500
Flags: W
LayerCount: 2
Fore
SplineSet
163 249 m 128,-1,1
 163 182 163 182 187 141 c 128,-1,2
 211 100 211 100 264 100 c 0,3,4
 315 100 315 100 341 141 c 128,-1,5
 367 182 367 182 367 249 c 128,-1,6
 367 316 367 316 343 357 c 128,-1,7
 319 398 319 398 266 398 c 0,8,9
 215 398 215 398 189 357 c 128,-1,0
 163 316 163 316 163 249 c 128,-1,1
500 250 m 0,10,11
 500 191 500 191 483 142.5 c 128,-1,12
 466 94 466 94 435.5 59 c 128,-1,13
 405 24 405 24 362 5 c 128,-1,14
 319 -14 319 -14 266 -14 c 128,-1,15
 213 -14 213 -14 170 5 c 128,-1,16
 127 24 127 24 96 59 c 128,-1,17
 65 94 65 94 48 142.5 c 128,-1,18
 31 191 31 191 31 250 c 0,19,20
 31 308 31 308 48.5 356.5 c 128,-1,21
 66 405 66 405 97 439.5 c 128,-1,22
 128 474 128 474 171.5 492.5 c 128,-1,23
 215 511 215 511 266 511 c 0,24,25
 318 511 318 511 361 492.5 c 128,-1,26
 404 474 404 474 435 439.5 c 128,-1,27
 466 405 466 405 483 356.5 c 128,-1,28
 500 308 500 308 500 250 c 0,10,11
EndSplineSet
Substitution2: "'case' +WSdlh1tXfUQwf3UoMGuKv2V0MFcwX1tXX2IA lookup 18 +MLUw1jDGMPww1jDr" O
Substitution2: "'ordn' +Xo9lcAAA in +MOkwxjDzZYdbVwAA lookup 7 +MLUw1jDGMPww1jDr" ordmasculine
EndChar

StartChar: p
Encoding: 112 112 83
Width: 500
Flags: W
LayerCount: 2
Fore
SplineSet
497 249 m 0,0,1
 497 192 497 192 484.5 143.5 c 128,-1,2
 472 95 472 95 447.5 60.5 c 128,-1,3
 423 26 423 26 386 7 c 128,-1,4
 349 -12 349 -12 300 -12 c 0,5,6
 250 -12 250 -12 197 13 c 1,7,-1
 197 -175 l 1,8,-1
 67 -175 l 1,9,-1
 67 482 l 1,10,11
 103 494 103 494 155.5 501.5 c 128,-1,12
 208 509 208 509 259 509 c 0,13,14
 375 509 375 509 436 439 c 128,-1,15
 497 369 497 369 497 249 c 0,0,1
365 245 m 0,16,17
 365 312 365 312 338.5 355 c 128,-1,18
 312 398 312 398 258 398 c 0,19,20
 243 398 243 398 226 396 c 128,-1,21
 209 394 209 394 197 393 c 1,22,-1
 197 120 l 1,23,24
 210 112 210 112 231 106.5 c 128,-1,25
 252 101 252 101 273 101 c 0,26,27
 320 101 320 101 342.5 138.5 c 128,-1,28
 365 176 365 176 365 245 c 0,16,17
EndSplineSet
Substitution2: "'case' +WSdlh1tXfUQwf3UoMGuKv2V0MFcwX1tXX2IA lookup 18 +MLUw1jDGMPww1jDr" P
EndChar

StartChar: q
Encoding: 113 113 84
Width: 500
Flags: W
LayerCount: 2
Fore
SplineSet
33 249 m 0,0,1
 33 306 33 306 49 354.5 c 128,-1,2
 65 403 65 403 95 437 c 128,-1,3
 125 471 125 471 170 490 c 128,-1,4
 215 509 215 509 272 509 c 0,5,6
 296 509 296 509 323.5 507 c 128,-1,7
 351 505 351 505 376.5 501 c 128,-1,8
 402 497 402 497 424.5 492.5 c 128,-1,9
 447 488 447 488 464 482 c 1,10,-1
 464 -175 l 1,11,-1
 334 -175 l 1,12,-1
 334 14 l 1,13,14
 310 2 310 2 282.5 -5 c 128,-1,15
 255 -12 255 -12 231 -12 c 0,16,17
 182 -12 182 -12 145 6.5 c 128,-1,18
 108 25 108 25 83 59 c 128,-1,19
 58 93 58 93 45.5 141.5 c 128,-1,20
 33 190 33 190 33 249 c 0,0,1
165 245 m 0,21,22
 165 176 165 176 188 138.5 c 128,-1,23
 211 101 211 101 258 101 c 0,24,25
 280 101 280 101 299.5 106 c 128,-1,26
 319 111 319 111 334 120 c 1,27,-1
 334 393 l 1,28,29
 324 394 324 394 308 396 c 128,-1,30
 292 398 292 398 273 398 c 0,31,32
 219 398 219 398 192 355 c 128,-1,33
 165 312 165 312 165 245 c 0,21,22
EndSplineSet
Substitution2: "'case' +WSdlh1tXfUQwf3UoMGuKv2V0MFcwX1tXX2IA lookup 18 +MLUw1jDGMPww1jDr" Q
EndChar

StartChar: r
Encoding: 114 114 85
Width: 500
Flags: W
LayerCount: 2
Fore
SplineSet
463 366 m 1,0,1
 450 369 450 369 433 372 c 128,-1,2
 416 375 416 375 397.5 378 c 128,-1,3
 379 381 379 381 362.5 382 c 128,-1,4
 346 383 346 383 334 383 c 0,5,6
 306 383 306 383 279.5 380 c 128,-1,7
 253 377 253 377 226 370 c 1,8,-1
 226 0 l 1,9,-1
 94 0 l 1,10,-1
 94 465 l 1,11,12
 146 484 146 484 200.5 496 c 128,-1,13
 255 508 255 508 329 508 c 0,14,15
 340 508 340 508 359 507 c 128,-1,16
 378 506 378 506 400.5 503 c 128,-1,17
 423 500 423 500 446 496.5 c 128,-1,18
 469 493 469 493 487 487 c 1,19,-1
 463 366 l 1,0,1
EndSplineSet
Substitution2: "'case' +WSdlh1tXfUQwf3UoMGuKv2V0MFcwX1tXX2IA lookup 18 +MLUw1jDGMPww1jDr" R
EndChar

StartChar: s
Encoding: 115 115 86
Width: 500
Flags: W
LayerCount: 2
Fore
SplineSet
242 99 m 0,0,1
 290 99 290 99 315 105.5 c 128,-1,2
 340 112 340 112 340 134 c 0,3,4
 340 148 340 148 332 157 c 128,-1,5
 324 166 324 166 310 173 c 128,-1,6
 296 180 296 180 278 186 c 0,7,8
 258 192 258 192 238 199 c 0,9,10
 209 207 209 207 180 218.5 c 128,-1,11
 151 230 151 230 126.5 247 c 128,-1,12
 102 264 102 264 86 290 c 128,-1,13
 70 316 70 316 70 355 c 0,14,15
 70 387 70 387 82 415 c 128,-1,16
 94 443 94 443 120 465 c 128,-1,17
 146 487 146 487 186.5 499 c 128,-1,18
 227 511 227 511 283 511 c 0,19,20
 332 511 332 511 374 503.5 c 128,-1,21
 416 496 416 496 446 482 c 1,22,-1
 426 372 l 1,23,24
 408 377 408 377 370 389.5 c 128,-1,25
 332 402 332 402 284 402 c 0,26,27
 234 402 234 402 216.5 389.5 c 128,-1,28
 199 377 199 377 199 364 c 0,29,30
 199 352 199 352 207 343 c 128,-1,31
 215 334 215 334 228.5 326.5 c 128,-1,32
 242 319 242 319 259.5 312 c 128,-1,33
 277 305 277 305 297 299 c 0,34,35
 326 289 326 289 356.5 277.5 c 128,-1,36
 387 266 387 266 412 248.5 c 128,-1,37
 437 231 437 231 453 204 c 128,-1,38
 469 177 469 177 469 138 c 0,39,40
 469 107 469 107 457 79.5 c 128,-1,41
 445 52 445 52 418 32 c 128,-1,42
 391 12 391 12 347.5 0 c 128,-1,43
 304 -12 304 -12 241 -12 c 0,44,45
 176 -12 176 -12 130.5 3 c 128,-1,46
 85 18 85 18 57 30 c 1,47,-1
 77 139 l 1,48,49
 114 124 114 124 156.5 111.5 c 128,-1,50
 199 99 199 99 242 99 c 0,0,1
EndSplineSet
Substitution2: "'case' +WSdlh1tXfUQwf3UoMGuKv2V0MFcwX1tXX2IA lookup 18 +MLUw1jDGMPww1jDr" S
EndChar

StartChar: t
Encoding: 116 116 87
Width: 500
Flags: W
LayerCount: 2
Fore
SplineSet
152 390 m 1,0,-1
 38 390 l 1,1,-1
 38 498 l 1,2,-1
 152 498 l 1,3,-1
 152 623 l 1,4,-1
 282 644 l 1,5,-1
 282 498 l 1,6,-1
 491 498 l 1,7,-1
 491 390 l 1,8,-1
 282 390 l 1,9,-1
 282 189 l 2,10,11
 282 161 282 161 287.5 144 c 128,-1,12
 293 127 293 127 302.5 117.5 c 128,-1,13
 312 108 312 108 325.5 105 c 128,-1,14
 339 102 339 102 356 102 c 0,15,16
 374 102 374 102 389.5 103 c 128,-1,17
 405 104 405 104 419.5 106.5 c 128,-1,18
 434 109 434 109 449 114.5 c 128,-1,19
 464 120 464 120 482 128 c 1,20,-1
 500 16 l 1,21,22
 464 1 464 1 422.5 -5.5 c 128,-1,23
 381 -12 381 -12 341 -12 c 0,24,25
 295 -12 295 -12 260.5 -4.5 c 128,-1,26
 226 3 226 3 201.5 24.5 c 0,27,28
 176 46 176 46 164 84 c 0,29,30
 152 124 152 124 152 186 c 2,31,-1
 152 390 l 1,0,-1
EndSplineSet
Substitution2: "'case' +WSdlh1tXfUQwf3UoMGuKv2V0MFcwX1tXX2IA lookup 18 +MLUw1jDGMPww1jDr" T
EndChar

StartChar: u
Encoding: 117 117 88
Width: 500
Flags: W
LayerCount: 2
Fore
SplineSet
464 17 m 1,0,1
 428 7 428 7 376.5 -2.5 c 128,-1,2
 325 -12 325 -12 265 -12 c 0,3,4
 204 -12 204 -12 164.5 5 c 128,-1,5
 125 22 125 22 102.5 53.5 c 128,-1,6
 80 85 80 85 71.5 127.5 c 128,-1,7
 63 170 63 170 63 220 c 2,8,-1
 63 498 l 1,9,-1
 193 498 l 1,10,-1
 193 237 l 2,11,12
 193 168 193 168 209.5 135 c 128,-1,13
 226 102 226 102 273 102 c 0,14,15
 303 102 303 102 333 107 c 1,16,-1
 333 498 l 1,17,-1
 464 498 l 1,18,-1
 464 17 l 1,0,1
EndSplineSet
Substitution2: "'case' +WSdlh1tXfUQwf3UoMGuKv2V0MFcwX1tXX2IA lookup 18 +MLUw1jDGMPww1jDr" U
EndChar

StartChar: v
Encoding: 118 118 89
Width: 500
Flags: W
LayerCount: 2
Fore
SplineSet
206 0 m 1,0,1
 158 94 158 94 108.5 221 c 128,-1,2
 59 348 59 348 15 498 c 1,3,-1
 152 498 l 1,4,5
 162 458 162 458 175 412.5 c 128,-1,6
 188 367 188 367 202.5 321 c 128,-1,7
 217 275 217 275 232.5 231.5 c 128,-1,8
 248 188 248 188 262 152 c 1,9,10
 276 188 276 188 293 231.5 c 128,-1,11
 310 275 310 275 326 321 c 128,-1,12
 342 367 342 367 357.5 412.5 c 128,-1,13
 373 458 373 458 383 498 c 1,14,-1
 515 498 l 1,15,16
 470 347 470 347 416.5 220.5 c 128,-1,17
 363 94 363 94 315 0 c 1,18,-1
 206 0 l 1,0,1
EndSplineSet
Substitution2: "'case' +WSdlh1tXfUQwf3UoMGuKv2V0MFcwX1tXX2IA lookup 18 +MLUw1jDGMPww1jDr" V
EndChar

StartChar: w
Encoding: 119 119 90
Width: 500
Flags: W
LayerCount: 2
Fore
SplineSet
341 0 m 1,0,1
 329 33 329 33 319.5 60.5 c 128,-1,2
 310 88 310 88 301 114 c 128,-1,3
 292 140 292 140 282.5 168 c 128,-1,4
 273 196 273 196 264 230 c 1,5,6
 253 196 253 196 244.5 169 c 128,-1,7
 236 142 236 142 227 115.5 c 0,8,9
 218 90 218 90 208 62 c 0,10,11
 200 34 200 34 186 0 c 1,12,-1
 87 0 l 1,13,14
 74 47 74 47 63 103.5 c 128,-1,15
 52 160 52 160 42.5 224 c 128,-1,16
 33 288 33 288 25.5 357 c 128,-1,17
 18 426 18 426 12 498 c 1,18,-1
 123 498 l 1,19,20
 127 406 127 406 132 318 c 128,-1,21
 137 230 137 230 149 137 c 1,22,23
 163 177 163 177 173 211.5 c 128,-1,24
 183 246 183 246 191 277 c 128,-1,25
 199 308 199 308 206 338 c 128,-1,26
 213 368 213 368 220 398 c 1,27,-1
 315 398 l 1,28,29
 321 367 321 367 328 337.5 c 128,-1,30
 335 308 335 308 343 277 c 128,-1,31
 351 246 351 246 360 211.5 c 128,-1,32
 369 177 369 177 382 137 c 1,33,34
 388 186 388 186 392 230.5 c 128,-1,35
 396 275 396 275 399 319 c 128,-1,36
 402 363 402 363 403.5 406.5 c 128,-1,37
 405 450 405 450 407 498 c 1,38,-1
 518 498 l 1,39,40
 506 353 506 353 485.5 224.5 c 128,-1,41
 465 96 465 96 440 0 c 1,42,-1
 341 0 l 1,0,1
EndSplineSet
Substitution2: "'case' +WSdlh1tXfUQwf3UoMGuKv2V0MFcwX1tXX2IA lookup 18 +MLUw1jDGMPww1jDr" W
EndChar

StartChar: x
Encoding: 120 120 91
Width: 500
Flags: W
LayerCount: 2
Fore
SplineSet
269 342 m 1,0,-1
 371 498 l 1,1,-1
 504 498 l 1,2,-1
 342 259 l 1,3,4
 367 228 367 228 392 193.5 c 128,-1,5
 417 159 417 159 439 124 c 128,-1,6
 461 89 461 89 479 57 c 128,-1,7
 497 25 497 25 510 0 c 1,8,-1
 374 0 l 1,9,10
 345 54 345 54 316.5 96.5 c 128,-1,11
 288 139 288 139 263 173 c 1,12,13
 231 131 231 131 205.5 90.5 c 128,-1,14
 180 50 180 50 154 0 c 1,15,-1
 21 0 l 1,16,17
 37 30 37 30 57.5 62 c 128,-1,18
 78 94 78 94 101 127.5 c 128,-1,19
 124 161 124 161 149 194 c 128,-1,20
 174 227 174 227 197 257 c 1,21,-1
 22 498 l 1,22,-1
 159 498 l 1,23,-1
 269 342 l 1,0,-1
EndSplineSet
Substitution2: "'case' +WSdlh1tXfUQwf3UoMGuKv2V0MFcwX1tXX2IA lookup 18 +MLUw1jDGMPww1jDr" X
EndChar

StartChar: y
Encoding: 121 121 92
Width: 500
Flags: W
LayerCount: 2
Fore
SplineSet
500 498 m 1,0,1
 480 428 480 428 461.5 361 c 128,-1,2
 443 294 443 294 423 229.5 c 128,-1,3
 403 165 403 165 380 103.5 c 128,-1,4
 357 42 357 42 331 -16 c 0,5,6
 311 -58 311 -58 291 -89 c 128,-1,7
 271 -120 271 -120 247.5 -139.5 c 128,-1,8
 224 -159 224 -159 194.5 -168.5 c 128,-1,9
 165 -178 165 -178 126 -178 c 0,10,11
 93 -178 93 -178 66 -172.5 c 128,-1,12
 39 -167 39 -167 21 -159 c 1,13,-1
 46 -50 l 1,14,15
 67 -60 67 -60 83.5 -63.5 c 128,-1,16
 100 -67 100 -67 119 -67 c 0,17,18
 157 -67 157 -67 180.5 -41.5 c 128,-1,19
 204 -16 204 -16 217 19 c 1,20,21
 170 112 170 112 123.5 232.5 c 128,-1,22
 77 353 77 353 39 498 c 1,23,-1
 175 498 l 1,24,25
 185 459 185 459 197 414.5 c 128,-1,26
 209 370 209 370 222.5 325.5 c 128,-1,27
 236 281 236 281 251.5 238 c 128,-1,28
 267 195 267 195 283 158 c 1,29,30
 294 195 294 195 305.5 238 c 128,-1,31
 317 281 317 281 327.5 325 c 128,-1,32
 338 369 338 369 348 413.5 c 128,-1,33
 358 458 358 458 367 498 c 1,34,-1
 500 498 l 1,0,1
EndSplineSet
Substitution2: "'case' +WSdlh1tXfUQwf3UoMGuKv2V0MFcwX1tXX2IA lookup 18 +MLUw1jDGMPww1jDr" Y
EndChar

StartChar: z
Encoding: 122 122 93
Width: 500
Flags: W
LayerCount: 2
Fore
SplineSet
452 403 m 1,0,1
 437 386 437 386 409.5 352.5 c 128,-1,2
 382 319 382 319 349.5 277.5 c 128,-1,3
 317 236 317 236 284.5 191 c 128,-1,4
 252 146 252 146 227 108 c 1,5,-1
 462 108 l 1,6,-1
 462 0 l 1,7,-1
 71 0 l 1,8,-1
 71 80 l 1,9,10
 95 120 95 120 124 162.5 c 128,-1,11
 153 205 153 205 181.5 245.5 c 128,-1,12
 210 286 210 286 237.5 323 c 128,-1,13
 265 360 265 360 287 390 c 1,14,-1
 82 390 l 1,15,-1
 82 498 l 1,16,-1
 452 498 l 1,17,-1
 452 403 l 1,0,1
EndSplineSet
Substitution2: "'case' +WSdlh1tXfUQwf3UoMGuKv2V0MFcwX1tXX2IA lookup 18 +MLUw1jDGMPww1jDr" Z
EndChar

StartChar: braceleft
Encoding: 123 123 94
Width: 500
Flags: W
LayerCount: 2
Fore
SplineSet
198 282 m 1,0,1
 255 271 255 271 280 235 c 128,-1,2
 305 199 305 199 305 131 c 2,3,-1
 305 12 l 2,4,5
 305 -33 305 -33 318 -53 c 128,-1,6
 331 -73 331 -73 365 -73 c 2,7,-1
 463 -73 l 1,8,-1
 463 -175 l 1,9,-1
 353 -175 l 2,10,11
 258 -175 258 -175 221 -133.5 c 128,-1,12
 184 -92 184 -92 184 -14 c 2,13,-1
 184 142 l 2,14,15
 184 187 184 187 170.5 209.5 c 128,-1,16
 157 232 157 232 124 232 c 2,17,-1
 67 232 l 1,18,-1
 67 334 l 1,19,-1
 124 334 l 2,20,21
 157 334 157 334 170.5 356.5 c 128,-1,22
 184 379 184 379 184 423 c 2,23,-1
 184 580 l 2,24,25
 184 658 184 658 221 699.5 c 128,-1,26
 258 741 258 741 353 741 c 2,27,-1
 463 741 l 1,28,-1
 463 639 l 1,29,-1
 365 639 l 2,30,31
 331 639 331 639 318 619.5 c 128,-1,32
 305 600 305 600 305 554 c 2,33,-1
 305 435 l 2,34,35
 305 367 305 367 280 331 c 128,-1,36
 255 295 255 295 198 282 c 1,0,1
EndSplineSet
Substitution2: "'case' +WSdlh1tXfUQwf3UoMGuKv2V0MFcwX1tXX2IA lookup 17 +MLUw1jDGMPww1jDr" Braceleft
EndChar

StartChar: bar
Encoding: 124 124 95
Width: 500
Flags: W
LayerCount: 2
Fore
SplineSet
200 741 m 1,0,-1
 332 741 l 1,1,-1
 332 -175 l 1,2,-1
 200 -175 l 1,3,-1
 200 741 l 1,0,-1
EndSplineSet
EndChar

StartChar: braceright
Encoding: 125 125 96
Width: 500
Flags: W
LayerCount: 2
Fore
SplineSet
332 284 m 1,0,1
 275 295 275 295 249.5 331 c 128,-1,2
 224 367 224 367 224 435 c 2,3,-1
 224 554 l 2,4,5
 224 599 224 599 211 619 c 128,-1,6
 198 639 198 639 164 639 c 2,7,-1
 67 639 l 1,8,-1
 67 741 l 1,9,-1
 176 741 l 2,10,11
 224 741 224 741 256 730.5 c 128,-1,12
 288 720 288 720 308 699.5 c 128,-1,13
 328 679 328 679 336 649 c 128,-1,14
 344 619 344 619 344 580 c 2,15,-1
 344 424 l 2,16,17
 344 379 344 379 358 356.5 c 128,-1,18
 372 334 372 334 405 334 c 2,19,-1
 463 334 l 1,20,-1
 463 232 l 1,21,-1
 405 232 l 2,22,23
 372 232 372 232 358 209.5 c 128,-1,24
 344 187 344 187 344 143 c 2,25,-1
 344 -14 l 2,26,27
 344 -53 344 -53 336 -83 c 128,-1,28
 328 -113 328 -113 308 -133.5 c 128,-1,29
 288 -154 288 -154 256 -164.5 c 128,-1,30
 224 -175 224 -175 176 -175 c 2,31,-1
 67 -175 l 1,32,-1
 67 -73 l 1,33,-1
 164 -73 l 2,34,35
 198 -73 198 -73 211 -53.5 c 128,-1,36
 224 -34 224 -34 224 12 c 2,37,-1
 224 131 l 2,38,39
 224 199 224 199 249.5 235 c 128,-1,40
 275 271 275 271 332 284 c 1,0,1
EndSplineSet
Substitution2: "'case' +WSdlh1tXfUQwf3UoMGuKv2V0MFcwX1tXX2IA lookup 17 +MLUw1jDGMPww1jDr" Braceright
EndChar

StartChar: asciitilde
Encoding: 126 126 97
Width: 500
Flags: W
LayerCount: 2
Fore
SplineSet
366 181 m 0,0,1
 337 181 337 181 312 192.5 c 128,-1,2
 287 204 287 204 264 217.5 c 128,-1,3
 241 231 241 231 219 242 c 128,-1,4
 197 253 197 253 177 253 c 0,5,6
 169 253 169 253 161 251 c 128,-1,7
 153 249 153 249 145.5 242 c 128,-1,8
 138 235 138 235 131.5 221.5 c 128,-1,9
 125 208 125 208 119 184 c 1,10,-1
 22 211 l 1,11,12
 26 237 26 237 37 266.5 c 128,-1,13
 48 296 48 296 65.5 320 c 128,-1,14
 83 344 83 344 109.5 360.5 c 128,-1,15
 136 377 136 377 173 377 c 0,16,17
 201 377 201 377 225.5 366 c 128,-1,18
 250 355 250 355 273.5 341.5 c 128,-1,19
 297 328 297 328 318 316.5 c 128,-1,20
 339 305 339 305 360 305 c 0,21,22
 368 305 368 305 376.5 307.5 c 128,-1,23
 385 310 385 310 392.5 317 c 128,-1,24
 400 324 400 324 406.5 338 c 128,-1,25
 413 352 413 352 420 375 c 1,26,-1
 516 349 l 1,27,28
 511 323 511 323 501 293.5 c 128,-1,29
 491 264 491 264 473 239 c 128,-1,30
 455 214 455 214 429 197.5 c 128,-1,31
 403 181 403 181 366 181 c 0,0,1
EndSplineSet
EndChar

StartChar: Euro
Encoding: 8364 8364 98
Width: 500
Flags: W
LayerCount: 2
Fore
SplineSet
106 453 m 1,0,1
 130 562 130 562 196 615.5 c 128,-1,2
 262 669 262 669 356 669 c 0,3,4
 387 669 387 669 421 664.5 c 128,-1,5
 455 660 455 660 491 646 c 1,6,-1
 462 537 l 1,7,8
 443 545 443 545 418 550 c 128,-1,9
 393 555 393 555 363 555 c 0,10,11
 309 555 309 555 281 527.5 c 128,-1,12
 253 500 253 500 242 453 c 1,13,-1
 435 453 l 1,14,-1
 417 364 l 1,15,-1
 229 364 l 1,16,17
 228 356 228 356 227.5 347.5 c 128,-1,18
 227 339 227 339 227 330.5 c 128,-1,19
 227 322 227 322 227.5 313.5 c 128,-1,20
 228 305 228 305 229 297 c 1,21,-1
 405 297 l 1,22,-1
 387 208 l 1,23,-1
 242 208 l 1,24,25
 255 152 255 152 286.5 127 c 128,-1,26
 318 102 318 102 357 102 c 0,27,28
 385 102 385 102 417.5 107 c 128,-1,29
 450 112 450 112 479 126 c 1,30,-1
 507 21 l 1,31,32
 474 5 474 5 434 -4 c 128,-1,33
 394 -13 394 -13 354 -13 c 0,34,35
 309 -13 309 -13 268 -0.5 c 128,-1,36
 227 12 227 12 193.5 38 c 128,-1,37
 160 64 160 64 136 105.5 c 128,-1,38
 112 147 112 147 102 208 c 1,39,-1
 33 208 l 1,40,-1
 33 297 l 1,41,-1
 93 297 l 1,42,-1
 93 364 l 1,43,-1
 33 364 l 1,44,-1
 33 453 l 1,45,-1
 106 453 l 1,0,1
EndSplineSet
EndChar

StartChar: quotesinglbase
Encoding: 8218 8218 99
Width: 500
Flags: W
LayerCount: 2
Fore
SplineSet
134 -77 m 1,0,1
 153 -73 153 -73 172.5 -70 c 128,-1,2
 192 -67 192 -67 209.5 -60.5 c 128,-1,3
 227 -54 227 -54 240.5 -42.5 c 128,-1,4
 254 -31 254 -31 263 -11 c 1,5,6
 223 -7 223 -7 200.5 21 c 128,-1,7
 178 49 178 49 178 83 c 0,8,9
 178 124 178 124 205 150.5 c 128,-1,10
 232 177 232 177 273 177 c 0,11,12
 318 177 318 177 343 147.5 c 128,-1,13
 368 118 368 118 368 67 c 0,14,15
 368 30 368 30 356 -7.5 c 128,-1,16
 344 -45 344 -45 318.5 -76.5 c 128,-1,17
 293 -108 293 -108 251.5 -131.5 c 128,-1,18
 210 -155 210 -155 151 -162 c 1,19,-1
 134 -77 l 1,0,1
EndSplineSet
EndChar

StartChar: florin
Encoding: 402 402 100
Width: 500
Flags: W
LayerCount: 2
Fore
SplineSet
279 33 m 2,0,1
 279 -27 279 -27 264 -68 c 128,-1,2
 249 -109 249 -109 222.5 -134 c 128,-1,3
 196 -159 196 -159 160.5 -169.5 c 128,-1,4
 125 -180 125 -180 84 -180 c 0,5,6
 53 -180 53 -180 35 -176 c 128,-1,7
 17 -172 17 -172 -1 -166 c 1,8,-1
 29 -58 l 1,9,10
 37 -60 37 -60 47 -63 c 128,-1,11
 57 -66 57 -66 78 -66 c 0,12,13
 111 -66 111 -66 129 -46 c 128,-1,14
 147 -26 147 -26 147 26 c 2,15,-1
 147 390 l 1,16,-1
 38 390 l 1,17,-1
 38 498 l 1,18,-1
 147 498 l 1,19,-1
 147 527 l 2,20,21
 147 587 147 587 164.5 627 c 128,-1,22
 182 667 182 667 212 690.5 c 128,-1,23
 242 714 242 714 280 724.5 c 128,-1,24
 318 735 318 735 358 735 c 0,25,26
 399 735 399 735 443 727.5 c 128,-1,27
 487 720 487 720 522 703 c 1,28,-1
 499 597 l 1,29,30
 475 605 475 605 438.5 614 c 128,-1,31
 402 623 402 623 369 623 c 0,32,33
 351 623 351 623 334.5 620 c 128,-1,34
 318 617 318 617 306 606.5 c 128,-1,35
 294 596 294 596 286.5 576 c 128,-1,36
 279 556 279 556 279 525 c 2,37,-1
 279 498 l 1,38,-1
 483 498 l 1,39,-1
 483 390 l 1,40,-1
 279 390 l 1,41,-1
 279 33 l 2,0,1
EndSplineSet
EndChar

StartChar: quotedblbase
Encoding: 8222 8222 101
Width: 500
Flags: W
LayerCount: 2
Fore
SplineSet
262 -82 m 1,0,1
 282 -78 282 -78 301.5 -73.5 c 128,-1,2
 321 -69 321 -69 338 -62 c 128,-1,3
 355 -55 355 -55 368.5 -43 c 128,-1,4
 382 -31 382 -31 389 -12 c 1,5,6
 353 -9 353 -9 336 14 c 128,-1,7
 319 37 319 37 319 65 c 0,8,9
 319 102 319 102 343.5 120.5 c 128,-1,10
 368 139 368 139 396 139 c 0,11,12
 437 139 437 139 457.5 112 c 128,-1,13
 478 85 478 85 478 47 c 0,14,15
 478 16 478 16 465.5 -18 c 128,-1,16
 453 -52 453 -52 428.5 -80.5 c 128,-1,17
 404 -109 404 -109 367 -129 c 128,-1,18
 330 -149 330 -149 281 -153 c 1,19,-1
 262 -82 l 1,0,1
13 -82 m 1,20,21
 33 -78 33 -78 52.5 -73.5 c 128,-1,22
 72 -69 72 -69 88.5 -62 c 128,-1,23
 105 -55 105 -55 118 -43 c 128,-1,24
 131 -31 131 -31 139 -12 c 1,25,26
 104 -9 104 -9 86.5 14 c 128,-1,27
 69 37 69 37 69 65 c 0,28,29
 69 102 69 102 93.5 120.5 c 128,-1,30
 118 139 118 139 146 139 c 0,31,32
 187 139 187 139 207.5 112 c 128,-1,33
 228 85 228 85 228 47 c 0,34,35
 228 16 228 16 215 -18 c 128,-1,36
 202 -52 202 -52 178 -80.5 c 128,-1,37
 154 -109 154 -109 117 -129 c 128,-1,38
 80 -149 80 -149 31 -153 c 1,39,-1
 13 -82 l 1,20,21
EndSplineSet
EndChar

StartChar: ellipsis
Encoding: 8230 8230 102
Width: 500
Flags: W
LayerCount: 2
Fore
SplineSet
91 -13 m 0,0,1
 60 -13 60 -13 45 9 c 128,-1,2
 30 31 30 31 30 57.5 c 128,-1,3
 30 84 30 84 45 105 c 128,-1,4
 60 126 60 126 91 126 c 0,5,6
 120 126 120 126 136.5 104.5 c 128,-1,7
 153 83 153 83 153 57 c 128,-1,8
 153 31 153 31 137 9 c 128,-1,9
 121 -13 121 -13 91 -13 c 0,0,1
267 -13 m 0,10,11
 236 -13 236 -13 221 9 c 128,-1,12
 206 31 206 31 206 57.5 c 128,-1,13
 206 84 206 84 221 105 c 128,-1,14
 236 126 236 126 267 126 c 0,15,16
 296 126 296 126 312.5 104.5 c 128,-1,17
 329 83 329 83 329 57 c 128,-1,18
 329 31 329 31 313 9 c 128,-1,19
 297 -13 297 -13 267 -13 c 0,10,11
442 -13 m 0,20,21
 412 -13 412 -13 396.5 9 c 128,-1,22
 381 31 381 31 381 57.5 c 128,-1,23
 381 84 381 84 396.5 105 c 128,-1,24
 412 126 412 126 442 126 c 128,-1,25
 472 126 472 126 488 104.5 c 128,-1,26
 504 83 504 83 504 57 c 128,-1,27
 504 31 504 31 488.5 9 c 128,-1,28
 473 -13 473 -13 442 -13 c 0,20,21
EndSplineSet
EndChar

StartChar: dagger
Encoding: 8224 8224 103
Width: 500
Flags: W
LayerCount: 2
Fore
SplineSet
323 356 m 1,0,-1
 323 140 l 2,1,2
 323 64 323 64 319 -1.5 c 128,-1,3
 315 -67 315 -67 305 -137 c 1,4,-1
 226 -137 l 1,5,6
 218 -68 218 -68 213 -2 c 128,-1,7
 208 64 208 64 208 140 c 2,8,-1
 208 356 l 1,9,-1
 66 356 l 1,10,-1
 66 464 l 1,11,-1
 208 464 l 1,12,-1
 208 656 l 1,13,-1
 323 656 l 1,14,-1
 323 464 l 1,15,-1
 466 464 l 1,16,-1
 466 356 l 1,17,-1
 323 356 l 1,0,-1
EndSplineSet
EndChar

StartChar: daggerdbl
Encoding: 8225 8225 104
Width: 500
Flags: W
LayerCount: 2
Fore
SplineSet
320 104 m 1,0,1
 318 39 318 39 314 -18 c 128,-1,2
 310 -75 310 -75 301 -137 c 1,3,-1
 223 -137 l 1,4,5
 215 -77 215 -77 210 -19 c 128,-1,6
 205 39 205 39 204 104 c 1,7,-1
 61 104 l 1,8,-1
 61 213 l 1,9,-1
 204 213 l 1,10,-1
 204 356 l 1,11,-1
 61 356 l 1,12,-1
 61 464 l 1,13,-1
 204 464 l 1,14,-1
 204 656 l 1,15,-1
 320 656 l 1,16,-1
 320 464 l 1,17,-1
 463 464 l 1,18,-1
 463 356 l 1,19,-1
 320 356 l 1,20,-1
 320 213 l 1,21,-1
 463 213 l 1,22,-1
 463 104 l 1,23,-1
 320 104 l 1,0,1
EndSplineSet
EndChar

StartChar: circumflex
Encoding: 710 710 105
Width: 500
Flags: W
LayerCount: 2
Fore
SplineSet
413 603 m 1,0,-1
 361 541 l 1,1,-1
 267 614 l 1,2,-1
 173 541 l 1,3,-1
 119 603 l 1,4,-1
 267 732 l 1,5,-1
 413 603 l 1,0,-1
EndSplineSet
EndChar

StartChar: perthousand
Encoding: 8240 8240 106
Width: 500
Flags: W
LayerCount: 2
Fore
SplineSet
144 526 m 0,0,1
 144 564 144 564 136.5 580.5 c 128,-1,2
 129 597 129 597 113 597 c 0,3,4
 98 597 98 597 91 580.5 c 128,-1,5
 84 564 84 564 84 526 c 0,6,7
 84 487 84 487 91.5 470.5 c 128,-1,8
 99 454 99 454 113 454 c 0,9,10
 129 454 129 454 136.5 470.5 c 128,-1,11
 144 487 144 487 144 526 c 0,0,1
14 526 m 0,12,13
 14 597 14 597 39.5 634 c 128,-1,14
 65 671 65 671 113 671 c 0,15,16
 164 671 164 671 189.5 634 c 128,-1,17
 215 597 215 597 215 526 c 0,18,19
 215 454 215 454 189.5 416.5 c 128,-1,20
 164 379 164 379 113 379 c 0,21,22
 64 379 64 379 39 416.5 c 128,-1,23
 14 454 14 454 14 526 c 0,12,13
446 131.5 m 128,-1,25
 446 170 446 170 438.5 187 c 128,-1,26
 431 204 431 204 415.5 204 c 128,-1,27
 400 204 400 204 393 187 c 128,-1,28
 386 170 386 170 386 131.5 c 128,-1,29
 386 93 386 93 393 76 c 128,-1,30
 400 59 400 59 415.5 59 c 128,-1,31
 431 59 431 59 438.5 76 c 128,-1,24
 446 93 446 93 446 131.5 c 128,-1,25
36 246 m 1,32,-1
 10 293 l 1,33,-1
 494 535 l 1,34,-1
 520 488 l 1,35,-1
 36 246 l 1,32,-1
315 131 m 128,-1,37
 315 202 315 202 340.5 240 c 128,-1,38
 366 278 366 278 416 278 c 0,39,40
 467 278 467 278 492 240 c 128,-1,41
 517 202 517 202 517 131 c 128,-1,42
 517 60 517 60 491.5 23 c 128,-1,43
 466 -14 466 -14 416 -14 c 128,-1,44
 366 -14 366 -14 340.5 23 c 128,-1,36
 315 60 315 60 315 131 c 128,-1,37
214 131.5 m 128,-1,46
 214 170 214 170 206.5 187 c 128,-1,47
 199 204 199 204 183 204 c 0,48,49
 168 204 168 204 161.5 187 c 128,-1,50
 155 170 155 170 155 131.5 c 128,-1,51
 155 93 155 93 162 76 c 128,-1,52
 169 59 169 59 183 59 c 0,53,54
 199 59 199 59 206.5 76 c 128,-1,45
 214 93 214 93 214 131.5 c 128,-1,46
84 131 m 128,-1,56
 84 202 84 202 109.5 240 c 128,-1,57
 135 278 135 278 183 278 c 0,58,59
 234 278 234 278 259.5 240 c 128,-1,60
 285 202 285 202 285 131 c 128,-1,61
 285 60 285 60 259.5 23 c 128,-1,62
 234 -14 234 -14 183 -14 c 0,63,64
 134 -14 134 -14 109 23 c 128,-1,55
 84 60 84 60 84 131 c 128,-1,56
EndSplineSet
EndChar

StartChar: Scaron
Encoding: 352 352 107
Width: 500
Flags: W
LayerCount: 2
Fore
SplineSet
246 95 m 0,0,1
 279 95 279 95 300.5 102 c 128,-1,2
 322 109 322 109 335 121.5 c 128,-1,3
 348 134 348 134 352.5 149 c 128,-1,4
 357 164 357 164 357 180 c 0,5,6
 357 200 357 200 345.5 216 c 128,-1,7
 334 232 334 232 316 244.5 c 128,-1,8
 298 257 298 257 275.5 267 c 128,-1,9
 253 277 253 277 231 285 c 0,10,11
 201 296 201 296 169.5 309.5 c 128,-1,12
 138 323 138 323 112 344.5 c 128,-1,13
 86 366 86 366 69 397 c 128,-1,14
 52 428 52 428 52 475 c 0,15,16
 52 567 52 567 112 619 c 128,-1,17
 172 671 172 671 277 671 c 0,18,19
 337 671 337 671 382 657 c 128,-1,20
 427 643 427 643 458 626 c 1,21,-1
 420 526 l 1,22,23
 394 541 394 541 361.5 551.5 c 128,-1,24
 329 562 329 562 286 562 c 0,25,26
 182 562 182 562 182 487 c 0,27,28
 182 468 182 468 193 453.5 c 128,-1,29
 204 439 204 439 220 428 c 128,-1,30
 236 417 236 417 257 408.5 c 128,-1,31
 278 400 278 400 298 392 c 0,32,33
 329 380 329 380 362 366 c 128,-1,34
 395 352 395 352 423.5 328 c 128,-1,35
 452 304 452 304 470 268.5 c 128,-1,36
 488 233 488 233 488 179 c 0,37,38
 488 87 488 87 428 36.5 c 128,-1,39
 368 -14 368 -14 246 -14 c 0,40,41
 164 -14 164 -14 115.5 3.5 c 128,-1,42
 67 21 67 21 42 36 c 1,43,-1
 81 142 l 1,44,45
 110 125 110 125 149.5 110 c 128,-1,46
 189 95 189 95 246 95 c 0,0,1
119 817 m 1,47,-1
 171 880 l 1,48,-1
 265 807 l 1,49,-1
 359 880 l 1,50,-1
 413 817 l 1,51,-1
 265 688 l 1,52,-1
 119 817 l 1,47,-1
EndSplineSet
EndChar

StartChar: guilsinglleft
Encoding: 8249 8249 108
Width: 500
Flags: W
LayerCount: 2
Fore
SplineSet
306 269 m 1,0,-1
 403 92 l 1,1,-1
 296 41 l 1,2,-1
 140 269 l 1,3,-1
 296 496 l 1,4,-1
 403 446 l 1,5,-1
 306 269 l 1,0,-1
EndSplineSet
Substitution2: "'case' +WSdlh1tXfUQwf3UoMGuKv2V0MFcwX1tXX2IA lookup 17 +MLUw1jDGMPww1jDr" Guilsinglleft
EndChar

StartChar: OE
Encoding: 338 338 109
Width: 500
Flags: W
LayerCount: 2
Fore
SplineSet
236 108 m 0,0,1
 254 108 254 108 270 113 c 1,2,-1
 270 544 l 1,3,4
 254 549 254 549 236 549 c 0,5,6
 206 549 206 549 188 533.5 c 128,-1,7
 170 518 170 518 159.5 489.5 c 128,-1,8
 149 461 149 461 145.5 420 c 128,-1,9
 142 379 142 379 142 328.5 c 128,-1,10
 142 278 142 278 145 237 c 128,-1,11
 148 196 148 196 159 167.5 c 128,-1,12
 170 139 170 139 187.5 123.5 c 128,-1,13
 205 108 205 108 236 108 c 0,0,1
292 0 m 2,14,15
 279 -3 279 -3 265.5 -4 c 128,-1,16
 252 -5 252 -5 237 -5 c 0,17,18
 130 -5 130 -5 74.5 74 c 128,-1,19
 19 153 19 153 19 329 c 0,20,21
 19 504 19 504 75.5 583 c 128,-1,22
 132 662 132 662 236 662 c 0,23,24
 252 662 252 662 267 660 c 128,-1,25
 282 658 282 658 297 656 c 2,26,-1
 507 656 l 1,27,-1
 507 548 l 1,28,-1
 389 548 l 1,29,-1
 389 402 l 1,30,-1
 482 402 l 1,31,-1
 482 294 l 1,32,-1
 389 294 l 1,33,-1
 389 108 l 1,34,-1
 520 108 l 1,35,-1
 520 0 l 1,36,-1
 292 0 l 2,14,15
EndSplineSet
EndChar

StartChar: quoteleft
Encoding: 8216 8216 110
Width: 500
Flags: W
LayerCount: 2
Fore
SplineSet
387 677 m 1,0,1
 368 674 368 674 349 670.5 c 128,-1,2
 330 667 330 667 312.5 660.5 c 128,-1,3
 295 654 295 654 280.5 642.5 c 128,-1,4
 266 631 266 631 258 611 c 1,5,6
 298 608 298 608 320 579.5 c 128,-1,7
 342 551 342 551 342 517 c 0,8,9
 342 476 342 476 315 449.5 c 128,-1,10
 288 423 288 423 247 423 c 0,11,12
 202 423 202 423 177.5 452.5 c 128,-1,13
 153 482 153 482 153 533 c 0,14,15
 153 569 153 569 164.5 606.5 c 128,-1,16
 176 644 176 644 202 676 c 128,-1,17
 228 708 228 708 269.5 731.5 c 128,-1,18
 311 755 311 755 370 762 c 1,19,-1
 387 677 l 1,0,1
EndSplineSet
EndChar

StartChar: quoteright
Encoding: 8217 8217 111
Width: 500
Flags: W
LayerCount: 2
Fore
SplineSet
153 525 m 1,0,1
 172 529 172 529 191.5 532 c 128,-1,2
 211 535 211 535 228.5 541.5 c 128,-1,3
 246 548 246 548 259.5 559.5 c 128,-1,4
 273 571 273 571 282 591 c 1,5,6
 242 595 242 595 219.5 623 c 128,-1,7
 197 651 197 651 197 685 c 0,8,9
 197 726 197 726 224 752.5 c 128,-1,10
 251 779 251 779 293 779 c 0,11,12
 338 779 338 779 362.5 749.5 c 128,-1,13
 387 720 387 720 387 669 c 0,14,15
 387 632 387 632 375.5 595 c 128,-1,16
 364 558 364 558 338 526 c 128,-1,17
 312 494 312 494 270.5 470.5 c 128,-1,18
 229 447 229 447 170 440 c 1,19,-1
 153 525 l 1,0,1
EndSplineSet
EndChar

StartChar: quotedblleft
Encoding: 8220 8220 112
Width: 500
Flags: W
LayerCount: 2
Fore
SplineSet
260 659 m 1,0,1
 240 655 240 655 220 651 c 128,-1,2
 200 647 200 647 183 640 c 128,-1,3
 166 633 166 633 153 620.5 c 128,-1,4
 140 608 140 608 132 588 c 1,5,6
 168 586 168 586 185 563.5 c 128,-1,7
 202 541 202 541 202 513 c 0,8,9
 202 476 202 476 178 457 c 128,-1,10
 154 438 154 438 125 438 c 0,11,12
 84 438 84 438 63.5 465.5 c 128,-1,13
 43 493 43 493 43 531 c 0,14,15
 43 562 43 562 56 596 c 128,-1,16
 69 630 69 630 93.5 658.5 c 128,-1,17
 118 687 118 687 155 707 c 128,-1,18
 192 727 192 727 241 730 c 1,19,-1
 260 659 l 1,0,1
509 659 m 1,20,21
 489 655 489 655 469.5 651 c 128,-1,22
 450 647 450 647 433.5 640 c 128,-1,23
 417 633 417 633 403.5 620.5 c 128,-1,24
 390 608 390 608 383 588 c 1,25,26
 418 586 418 586 435.5 563.5 c 128,-1,27
 453 541 453 541 453 513 c 0,28,29
 453 476 453 476 428.5 457 c 128,-1,30
 404 438 404 438 375 438 c 0,31,32
 334 438 334 438 314 465.5 c 128,-1,33
 294 493 294 493 294 531 c 0,34,35
 294 562 294 562 306.5 596 c 128,-1,36
 319 630 319 630 343.5 658.5 c 128,-1,37
 368 687 368 687 405 707 c 128,-1,38
 442 727 442 727 491 730 c 1,39,-1
 509 659 l 1,20,21
EndSplineSet
EndChar

StartChar: quotedblright
Encoding: 8221 8221 113
Width: 500
Flags: W
LayerCount: 2
Fore
SplineSet
281 544 m 1,0,1
 301 548 301 548 320.5 552 c 128,-1,2
 340 556 340 556 357 563 c 128,-1,3
 374 570 374 570 387.5 582.5 c 128,-1,4
 401 595 401 595 408 615 c 1,5,6
 372 617 372 617 355 639.5 c 128,-1,7
 338 662 338 662 338 690 c 0,8,9
 338 727 338 727 362 746 c 128,-1,10
 386 765 386 765 416 765 c 0,11,12
 457 765 457 765 477 737.5 c 128,-1,13
 497 710 497 710 497 672 c 0,14,15
 497 641 497 641 484.5 607 c 128,-1,16
 472 573 472 573 447 544.5 c 128,-1,17
 422 516 422 516 385.5 496.5 c 128,-1,18
 349 477 349 477 300 474 c 1,19,-1
 281 544 l 1,0,1
31 544 m 1,20,21
 51 548 51 548 70.5 552 c 128,-1,22
 90 556 90 556 107 563 c 128,-1,23
 124 570 124 570 137.5 582.5 c 128,-1,24
 151 595 151 595 158 615 c 1,25,26
 122 617 122 617 105 639.5 c 128,-1,27
 88 662 88 662 88 690 c 0,28,29
 88 727 88 727 112.5 746 c 128,-1,30
 137 765 137 765 165 765 c 0,31,32
 206 765 206 765 226.5 737.5 c 128,-1,33
 247 710 247 710 247 672 c 0,34,35
 247 641 247 641 234.5 607 c 128,-1,36
 222 573 222 573 197.5 544.5 c 128,-1,37
 173 516 173 516 136 496.5 c 128,-1,38
 99 477 99 477 50 474 c 1,39,-1
 31 544 l 1,20,21
EndSplineSet
EndChar

StartChar: bullet
Encoding: 8226 8226 114
Width: 500
Flags: W
LayerCount: 2
Fore
SplineSet
409 333 m 0,0,1
 409 302 409 302 399 275 c 128,-1,2
 389 248 389 248 370.5 227 c 128,-1,3
 352 206 352 206 325 193.5 c 128,-1,4
 298 181 298 181 265 181 c 0,5,6
 231 181 231 181 204.5 193.5 c 128,-1,7
 178 206 178 206 159.5 227 c 128,-1,8
 141 248 141 248 131 275 c 128,-1,9
 121 302 121 302 121 333 c 0,10,11
 121 363 121 363 131 390.5 c 128,-1,12
 141 418 141 418 159.5 439 c 128,-1,13
 178 460 178 460 204.5 472 c 128,-1,14
 231 484 231 484 265 484 c 0,15,16
 298 484 298 484 325 472 c 128,-1,17
 352 460 352 460 370.5 439 c 128,-1,18
 389 418 389 418 399 390.5 c 128,-1,19
 409 363 409 363 409 333 c 0,0,1
EndSplineSet
Substitution2: "'case' +WSdlh1tXfUQwf3UoMGuKv2V0MFcwX1tXX2IA lookup 17 +MLUw1jDGMPww1jDr" Bullet
EndChar

StartChar: endash
Encoding: 8211 8211 115
Width: 500
Flags: W
LayerCount: 2
Fore
SplineSet
57 332 m 1,0,-1
 474 332 l 1,1,-1
 474 234 l 1,2,-1
 57 234 l 1,3,-1
 57 332 l 1,0,-1
EndSplineSet
Substitution2: "'case' +WSdlh1tXfUQwf3UoMGuKv2V0MFcwX1tXX2IA lookup 17 +MLUw1jDGMPww1jDr" Endash
EndChar

StartChar: emdash
Encoding: 8212 8212 116
Width: 500
Flags: W
LayerCount: 2
Fore
SplineSet
0 332 m 1,0,-1
 530 332 l 1,1,-1
 530 234 l 1,2,-1
 0 234 l 1,3,-1
 0 332 l 1,0,-1
EndSplineSet
Substitution2: "'case' +WSdlh1tXfUQwf3UoMGuKv2V0MFcwX1tXX2IA lookup 17 +MLUw1jDGMPww1jDr" Emdash
EndChar

StartChar: tilde
Encoding: 732 732 117
Width: 500
Flags: W
LayerCount: 2
Fore
SplineSet
439 671 m 1,0,1
 434 656 434 656 423.5 639.5 c 128,-1,2
 413 623 413 623 399 608.5 c 128,-1,3
 385 594 385 594 367 584.5 c 128,-1,4
 349 575 349 575 328 575 c 0,5,6
 311 575 311 575 296.5 580 c 128,-1,7
 282 585 282 585 267.5 591 c 128,-1,8
 253 597 253 597 239 602 c 128,-1,9
 225 607 225 607 209 607 c 0,10,11
 191 607 191 607 178.5 595 c 128,-1,12
 166 583 166 583 158 567 c 1,13,-1
 95 608 l 1,14,15
 100 623 100 623 110.5 640 c 128,-1,16
 121 657 121 657 135 672 c 128,-1,17
 149 687 149 687 167.5 696.5 c 128,-1,18
 186 706 186 706 208 706 c 0,19,20
 225 706 225 706 239 700.5 c 128,-1,21
 253 695 253 695 267.5 689.5 c 128,-1,22
 282 684 282 684 296 678.5 c 128,-1,23
 310 673 310 673 325 673 c 0,24,25
 343 673 343 673 356 684.5 c 128,-1,26
 369 696 369 696 376 712 c 1,27,-1
 439 671 l 1,0,1
EndSplineSet
EndChar

StartChar: trademark
Encoding: 8482 8482 118
Width: 500
Flags: W
LayerCount: 2
Fore
SplineSet
346 452 m 1,0,-1
 304 575 l 1,1,2
 302 554 302 554 301 522 c 128,-1,3
 300 490 300 490 299.5 459.5 c 128,-1,4
 299 429 299 429 298.5 406 c 128,-1,5
 298 383 298 383 298 378 c 1,6,-1
 236 378 l 1,7,8
 239 431 239 431 242.5 470.5 c 128,-1,9
 246 510 246 510 249.5 541.5 c 128,-1,10
 253 573 253 573 257 600.5 c 128,-1,11
 261 628 261 628 266 656 c 1,12,-1
 323 656 l 1,13,-1
 370 512 l 1,14,-1
 420 656 l 1,15,-1
 477 656 l 1,16,17
 482 627 482 627 486 599.5 c 128,-1,18
 490 572 490 572 493 540.5 c 128,-1,19
 496 509 496 509 498.5 469.5 c 128,-1,20
 501 430 501 430 505 378 c 1,21,-1
 443 378 l 1,22,23
 443 382 443 382 442.5 405.5 c 128,-1,24
 442 429 442 429 441.5 459.5 c 128,-1,25
 441 490 441 490 440 521.5 c 128,-1,26
 439 553 439 553 438 575 c 1,27,-1
 393 452 l 1,28,-1
 346 452 l 1,0,-1
216 656 m 1,29,-1
 216 603 l 1,30,-1
 148 603 l 1,31,-1
 148 378 l 1,32,-1
 87 378 l 1,33,-1
 87 603 l 1,34,-1
 19 603 l 1,35,-1
 19 656 l 1,36,-1
 216 656 l 1,29,-1
EndSplineSet
EndChar

StartChar: scaron
Encoding: 353 353 119
Width: 500
Flags: W
LayerCount: 2
Fore
SplineSet
242 99 m 0,0,1
 290 99 290 99 315 105.5 c 128,-1,2
 340 112 340 112 340 134 c 0,3,4
 340 148 340 148 332 157 c 128,-1,5
 324 166 324 166 310 173 c 128,-1,6
 296 180 296 180 278 186 c 0,7,8
 258 192 258 192 238 199 c 0,9,10
 209 207 209 207 180 218.5 c 128,-1,11
 151 230 151 230 126.5 247 c 128,-1,12
 102 264 102 264 86 290 c 128,-1,13
 70 316 70 316 70 355 c 0,14,15
 70 387 70 387 82 415 c 128,-1,16
 94 443 94 443 120 465 c 128,-1,17
 146 487 146 487 186.5 499 c 128,-1,18
 227 511 227 511 283 511 c 0,19,20
 332 511 332 511 374 503.5 c 128,-1,21
 416 496 416 496 446 482 c 1,22,-1
 426 372 l 1,23,24
 408 377 408 377 370 389.5 c 128,-1,25
 332 402 332 402 284 402 c 0,26,27
 234 402 234 402 216.5 389.5 c 128,-1,28
 199 377 199 377 199 364 c 0,29,30
 199 352 199 352 207 343 c 128,-1,31
 215 334 215 334 228.5 326.5 c 128,-1,32
 242 319 242 319 259.5 312 c 128,-1,33
 277 305 277 305 297 299 c 0,34,35
 326 289 326 289 356.5 277.5 c 128,-1,36
 387 266 387 266 412 248.5 c 128,-1,37
 437 231 437 231 453 204 c 128,-1,38
 469 177 469 177 469 138 c 0,39,40
 469 107 469 107 457 79.5 c 128,-1,41
 445 52 445 52 418 32 c 128,-1,42
 391 12 391 12 347.5 0 c 128,-1,43
 304 -12 304 -12 241 -12 c 0,44,45
 176 -12 176 -12 130.5 3 c 128,-1,46
 85 18 85 18 57 30 c 1,47,-1
 77 139 l 1,48,49
 114 124 114 124 156.5 111.5 c 128,-1,50
 199 99 199 99 242 99 c 0,0,1
119 670 m 1,51,-1
 171 732 l 1,52,-1
 265 659 l 1,53,-1
 359 732 l 1,54,-1
 413 670 l 1,55,-1
 265 541 l 1,56,-1
 119 670 l 1,51,-1
EndSplineSet
Substitution2: "'case' +WSdlh1tXfUQwf3UoMGuKv2V0MFcwX1tXX2IA lookup 18 +MLUw1jDGMPww1jDr" Scaron
EndChar

StartChar: guilsinglright
Encoding: 8250 8250 120
Width: 500
Flags: W
LayerCount: 2
Fore
SplineSet
164 446 m 1,0,-1
 271 496 l 1,1,-1
 427 269 l 1,2,-1
 271 41 l 1,3,-1
 164 92 l 1,4,-1
 261 269 l 1,5,-1
 164 446 l 1,0,-1
EndSplineSet
Substitution2: "'case' +WSdlh1tXfUQwf3UoMGuKv2V0MFcwX1tXX2IA lookup 17 +MLUw1jDGMPww1jDr" Guilsinglright
EndChar

StartChar: oe
Encoding: 339 339 121
Width: 500
Flags: W
LayerCount: 2
Fore
SplineSet
375 407 m 128,-1,1
 361 407 361 407 352 397 c 128,-1,2
 343 387 343 387 337.5 371 c 128,-1,3
 332 355 332 355 329 335.5 c 128,-1,4
 326 316 326 316 326 297 c 1,5,-1
 420 297 l 1,6,7
 420 317 420 317 418 337 c 128,-1,8
 416 357 416 357 411 372.5 c 128,-1,9
 406 388 406 388 397.5 397.5 c 128,-1,0
 389 407 389 407 375 407 c 128,-1,1
123 250 m 0,10,11
 123 165 123 165 138.5 131.5 c 128,-1,12
 154 98 154 98 175 98 c 128,-1,13
 196 98 196 98 211 131 c 128,-1,14
 226 164 226 164 226 250 c 0,15,16
 226 335 226 335 210.5 369 c 128,-1,17
 195 403 195 403 174 403 c 128,-1,18
 153 403 153 403 138 369.5 c 128,-1,19
 123 336 123 336 123 250 c 0,10,11
23 250 m 0,20,21
 23 384 23 384 64 447.5 c 128,-1,22
 105 511 105 511 175 511 c 0,23,24
 205 511 205 511 233 493.5 c 128,-1,25
 261 476 261 476 279 442 c 1,26,27
 299 475 299 475 323.5 493 c 128,-1,28
 348 511 348 511 375 511 c 0,29,30
 406 511 406 511 432 498 c 128,-1,31
 458 485 458 485 477 456.5 c 128,-1,32
 496 428 496 428 506.5 381.5 c 128,-1,33
 517 335 517 335 517 267 c 0,34,35
 517 254 517 254 516.5 234.5 c 128,-1,36
 516 215 516 215 515 207 c 1,37,-1
 325 207 l 1,38,39
 326 177 326 177 333.5 156.5 c 128,-1,40
 341 136 341 136 353 122.5 c 128,-1,41
 365 109 365 109 379.5 103.5 c 128,-1,42
 394 98 394 98 411 98 c 0,43,44
 430 98 430 98 448.5 102.5 c 128,-1,45
 467 107 467 107 482 116 c 1,46,-1
 501 13 l 1,47,48
 477 0 477 0 453 -6 c 0,49,50
 430 -12 430 -12 398 -12 c 0,51,52
 355 -12 355 -12 326 8 c 128,-1,53
 297 28 297 28 279 55 c 1,54,55
 263 27 263 27 237.5 7.5 c 128,-1,56
 212 -12 212 -12 175 -12 c 0,57,58
 98 -12 98 -12 60.5 55 c 128,-1,59
 23 122 23 122 23 250 c 0,20,21
EndSplineSet
Substitution2: "'case' +WSdlh1tXfUQwf3UoMGuKv2V0MFcwX1tXX2IA lookup 18 +MLUw1jDGMPww1jDr" OE
EndChar

StartChar: Ydieresis
Encoding: 376 376 122
Width: 500
Flags: W
LayerCount: 2
Fore
SplineSet
269 356 m 1,0,1
 281 380 281 380 296.5 417.5 c 128,-1,2
 312 455 312 455 327 496 c 128,-1,3
 342 537 342 537 356.5 579.5 c 128,-1,4
 371 622 371 622 383 656 c 1,5,-1
 517 656 l 1,6,7
 497 602 497 602 477 551 c 128,-1,8
 457 500 457 500 434.5 450.5 c 128,-1,9
 412 401 412 401 386.5 351.5 c 128,-1,10
 361 302 361 302 332 250 c 1,11,-1
 332 0 l 1,12,-1
 200 0 l 1,13,-1
 200 249 l 1,14,15
 142 352 142 352 98 450 c 128,-1,16
 54 548 54 548 14 656 c 1,17,-1
 154 656 l 1,18,19
 178 580 178 580 207.5 501 c 128,-1,20
 237 422 237 422 269 356 c 1,0,1
372 718 m 128,-1,22
 342 718 342 718 320.5 736.5 c 128,-1,23
 299 755 299 755 299 789 c 128,-1,24
 299 823 299 823 320.5 842 c 128,-1,25
 342 861 342 861 372 861 c 128,-1,26
 402 861 402 861 423.5 842 c 128,-1,27
 445 823 445 823 445 789 c 128,-1,28
 445 755 445 755 423.5 736.5 c 128,-1,21
 402 718 402 718 372 718 c 128,-1,22
161 718 m 0,29,30
 131 718 131 718 109.5 736.5 c 128,-1,31
 88 755 88 755 88 789 c 128,-1,32
 88 823 88 823 109.5 842 c 128,-1,33
 131 861 131 861 161 861 c 0,34,35
 190 861 190 861 212 842 c 128,-1,36
 234 823 234 823 234 789 c 128,-1,37
 234 755 234 755 212 736.5 c 128,-1,38
 190 718 190 718 161 718 c 0,29,30
EndSplineSet
EndChar

StartChar: exclamdown
Encoding: 161 161 124
Width: 500
Flags: W
LayerCount: 2
Fore
SplineSet
177 406 m 128,-1,1
 177 447 177 447 204 470 c 128,-1,2
 231 493 231 493 265 493 c 128,-1,3
 299 493 299 493 326 470 c 128,-1,4
 353 447 353 447 353 406 c 128,-1,5
 353 365 353 365 326 342 c 128,-1,6
 299 319 299 319 265 319 c 128,-1,7
 231 319 231 319 204 342 c 128,-1,0
 177 365 177 365 177 406 c 128,-1,1
190 -1 m 2,8,9
 190 37 190 37 191.5 67.5 c 128,-1,10
 193 98 193 98 195.5 125.5 c 128,-1,11
 198 153 198 153 202 180.5 c 128,-1,12
 206 208 206 208 210 242 c 1,13,-1
 318 242 l 1,14,15
 322 208 322 208 326.5 180.5 c 128,-1,16
 331 153 331 153 334 125.5 c 128,-1,17
 337 98 337 98 338.5 67.5 c 128,-1,18
 340 37 340 37 340 -1 c 2,19,-1
 340 -175 l 1,20,-1
 190 -175 l 1,21,-1
 190 -1 l 2,8,9
EndSplineSet
Substitution2: "'case' +WSdlh1tXfUQwf3UoMGuKv2V0MFcwX1tXX2IA lookup 17 +MLUw1jDGMPww1jDr" Exclamdown
EndChar

StartChar: cent
Encoding: 162 162 125
Width: 500
Flags: W
LayerCount: 2
Fore
SplineSet
49 278 m 0,0,1
 49 368 49 368 96 433 c 128,-1,2
 143 498 143 498 245 519 c 1,3,-1
 245 655 l 1,4,-1
 376 655 l 1,5,-1
 376 525 l 1,6,7
 401 523 401 523 425 516.5 c 128,-1,8
 449 510 449 510 474 500 c 1,9,-1
 446 390 l 1,10,11
 426 397 426 397 401 403 c 128,-1,12
 376 409 376 409 338 409 c 0,13,14
 250 409 250 409 216 375.5 c 128,-1,15
 182 342 182 342 182 278 c 128,-1,16
 182 214 182 214 218.5 180 c 128,-1,17
 255 146 255 146 343 146 c 0,18,19
 374 146 374 146 406 150.5 c 128,-1,20
 438 155 438 155 464 163 c 1,21,-1
 482 51 l 1,22,23
 462 43 462 43 435.5 37.5 c 128,-1,24
 409 32 409 32 376 30 c 1,25,-1
 376 -103 l 1,26,-1
 245 -103 l 1,27,-1
 245 35 l 1,28,29
 194 45 194 45 157 67 c 128,-1,30
 120 89 120 89 96 121 c 128,-1,31
 72 153 72 153 60.5 193 c 128,-1,32
 49 233 49 233 49 278 c 0,0,1
EndSplineSet
EndChar

StartChar: sterling
Encoding: 163 163 126
Width: 500
Flags: W
LayerCount: 2
Fore
SplineSet
248 368 m 1,0,-1
 405 368 l 1,1,-1
 405 261 l 1,2,-1
 248 261 l 1,3,4
 248 244 248 244 247 224 c 128,-1,5
 246 204 246 204 244.5 183 c 128,-1,6
 243 162 243 162 240.5 143 c 128,-1,7
 238 124 238 124 235 108 c 1,8,-1
 482 108 l 1,9,-1
 482 0 l 1,10,-1
 92 0 l 1,11,12
 109 76 109 76 114.5 141.5 c 128,-1,13
 120 207 120 207 122 261 c 1,14,-1
 40 261 l 1,15,-1
 40 368 l 1,16,-1
 122 368 l 1,17,-1
 122 423 l 2,18,19
 122 494 122 494 137.5 541 c 128,-1,20
 153 588 153 588 180.5 617 c 128,-1,21
 208 646 208 646 247.5 657.5 c 128,-1,22
 287 669 287 669 337 669 c 0,23,24
 374 669 374 669 407.5 661.5 c 128,-1,25
 441 654 441 654 473 640 c 1,26,-1
 438 536 l 1,27,28
 416 548 416 548 396.5 552 c 128,-1,29
 377 556 377 556 350 558 c 0,30,31
 328 558 328 558 308.5 553 c 128,-1,32
 289 548 289 548 276 535 c 128,-1,33
 263 522 263 522 255.5 499.5 c 128,-1,34
 248 477 248 477 248 442 c 2,35,-1
 248 368 l 1,0,-1
EndSplineSet
EndChar

StartChar: currency
Encoding: 164 164 127
Width: 500
Flags: W
LayerCount: 2
Fore
SplineSet
343 328.5 m 128,-1,1
 343 369 343 369 320.5 390 c 128,-1,2
 298 411 298 411 266 411 c 128,-1,3
 234 411 234 411 211.5 390 c 128,-1,4
 189 369 189 369 189 328.5 c 128,-1,5
 189 288 189 288 211.5 267 c 128,-1,6
 234 246 234 246 266 246 c 128,-1,7
 298 246 298 246 320.5 267 c 128,-1,0
 343 288 343 288 343 328.5 c 128,-1,1
266 515 m 0,8,9
 313 515 313 515 353 498 c 1,10,-1
 423 565 l 1,11,-1
 511 479 l 1,12,-1
 443 413 l 1,13,14
 463 375 463 375 463 328.5 c 128,-1,15
 463 282 463 282 443 244 c 1,16,-1
 511 178 l 1,17,-1
 422 91 l 1,18,-1
 352 159 l 1,19,20
 332 149 332 149 311 145.5 c 128,-1,21
 290 142 290 142 266 142 c 128,-1,22
 242 142 242 142 221 145.5 c 128,-1,23
 200 149 200 149 179 159 c 1,24,-1
 109 92 l 1,25,-1
 21 178 l 1,26,-1
 89 244 l 1,27,28
 69 280 69 280 69 328.5 c 128,-1,29
 69 377 69 377 89 413 c 1,30,-1
 21 479 l 1,31,-1
 110 566 l 1,32,-1
 180 498 l 1,33,34
 218 515 218 515 266 515 c 0,8,9
EndSplineSet
EndChar

StartChar: yen
Encoding: 165 165 128
Width: 500
Flags: W
LayerCount: 2
Fore
SplineSet
475 110 m 1,0,-1
 332 110 l 1,1,-1
 332 0 l 1,2,-1
 200 0 l 1,3,-1
 200 110 l 1,4,-1
 56 110 l 1,5,-1
 56 199 l 1,6,-1
 200 199 l 1,7,-1
 200 265 l 1,8,-1
 56 265 l 1,9,-1
 56 354 l 1,10,-1
 163 354 l 1,11,12
 143 390 143 390 121.5 430 c 128,-1,13
 100 470 100 470 79.5 509.5 c 128,-1,14
 59 549 59 549 41.5 586.5 c 128,-1,15
 24 624 24 624 14 656 c 1,16,-1
 154 656 l 1,17,18
 176 588 176 588 203 519 c 128,-1,19
 230 450 230 450 268 374 c 1,20,21
 343 525 343 525 383 656 c 1,22,-1
 517 656 l 1,23,24
 505 625 505 625 489.5 587.5 c 128,-1,25
 474 550 474 550 455.5 510 c 128,-1,26
 437 470 437 470 416 430 c 128,-1,27
 395 390 395 390 375 354 c 1,28,-1
 475 354 l 1,29,-1
 475 265 l 1,30,-1
 332 265 l 1,31,-1
 332 199 l 1,32,-1
 475 199 l 1,33,-1
 475 110 l 1,0,-1
EndSplineSet
EndChar

StartChar: brokenbar
Encoding: 166 166 129
Width: 500
Flags: W
LayerCount: 2
Fore
SplineSet
200 741 m 1,0,-1
 332 741 l 1,1,-1
 332 366 l 1,2,-1
 200 366 l 1,3,-1
 200 741 l 1,0,-1
200 200 m 1,4,-1
 332 200 l 1,5,-1
 332 -175 l 1,6,-1
 200 -175 l 1,7,-1
 200 200 l 1,4,-1
EndSplineSet
EndChar

StartChar: section
Encoding: 167 167 130
Width: 500
Flags: W
LayerCount: 2
Fore
SplineSet
217 376 m 1,0,1
 198 361 198 361 186 339.5 c 128,-1,2
 174 318 174 318 174 302 c 0,3,4
 174 284 174 284 178.5 270.5 c 128,-1,5
 183 257 183 257 198.5 245 c 128,-1,6
 214 233 214 233 242 221 c 128,-1,7
 270 209 270 209 318 194 c 1,8,9
 337 210 337 210 348.5 231 c 128,-1,10
 360 252 360 252 360 268 c 0,11,12
 360 287 360 287 355 300.5 c 128,-1,13
 350 314 350 314 334 325 c 128,-1,14
 318 336 318 336 290 348 c 128,-1,15
 262 360 262 360 217 376 c 1,0,1
87 42 m 1,16,17
 108 34 108 34 127 27.5 c 128,-1,18
 146 21 146 21 165 16.5 c 128,-1,19
 184 12 184 12 205.5 9.5 c 128,-1,20
 227 7 227 7 252 7 c 0,21,22
 287 7 287 7 305.5 19.5 c 128,-1,23
 324 32 324 32 324 52 c 0,24,25
 324 69 324 69 304.5 82 c 128,-1,26
 285 95 285 95 237 110 c 0,27,28
 200 123 200 123 168 137.5 c 128,-1,29
 136 152 136 152 111.5 172 c 128,-1,30
 87 192 87 192 72.5 218.5 c 128,-1,31
 58 245 58 245 58 282 c 0,32,33
 58 320 58 320 75 354 c 128,-1,34
 92 388 92 388 132 426 c 1,35,36
 112 444 112 444 100 467.5 c 128,-1,37
 88 491 88 491 88 517 c 0,38,39
 88 590 88 590 141 631 c 128,-1,40
 194 672 194 672 294 672 c 0,41,42
 336 672 336 672 381.5 662 c 128,-1,43
 427 652 427 652 464 637 c 1,44,-1
 429 533 l 1,45,46
 399 545 399 545 367 553 c 128,-1,47
 335 561 335 561 293 561 c 0,48,49
 250 561 250 561 238 548 c 128,-1,50
 226 535 226 535 226 519 c 0,51,52
 226 500 226 500 241.5 487.5 c 128,-1,53
 257 475 257 475 301 462 c 0,54,55
 476 412 476 412 476 292 c 0,56,57
 476 252 476 252 459.5 222 c 128,-1,58
 443 192 443 192 409 160 c 1,59,60
 435 136 435 136 448.5 112 c 128,-1,61
 462 88 462 88 462 51 c 0,62,63
 462 -29 462 -29 409 -66.5 c 128,-1,64
 356 -104 356 -104 260 -104 c 0,65,66
 187 -104 187 -104 136 -91 c 128,-1,67
 85 -78 85 -78 52 -61 c 1,68,-1
 87 42 l 1,16,17
EndSplineSet
EndChar

StartChar: dieresis
Encoding: 168 168 131
Width: 500
Flags: W
LayerCount: 2
Fore
SplineSet
372 570 m 128,-1,1
 342 570 342 570 320.5 588.5 c 128,-1,2
 299 607 299 607 299 641 c 128,-1,3
 299 675 299 675 320.5 694 c 128,-1,4
 342 713 342 713 372 713 c 128,-1,5
 402 713 402 713 423.5 694 c 128,-1,6
 445 675 445 675 445 641 c 128,-1,7
 445 607 445 607 423.5 588.5 c 128,-1,0
 402 570 402 570 372 570 c 128,-1,1
161 570 m 0,8,9
 131 570 131 570 109.5 588.5 c 128,-1,10
 88 607 88 607 88 641 c 128,-1,11
 88 675 88 675 109.5 694 c 128,-1,12
 131 713 131 713 161 713 c 0,13,14
 190 713 190 713 212 694 c 128,-1,15
 234 675 234 675 234 641 c 128,-1,16
 234 607 234 607 212 588.5 c 128,-1,17
 190 570 190 570 161 570 c 0,8,9
EndSplineSet
EndChar

StartChar: copyright
Encoding: 169 169 132
Width: 500
Flags: W
LayerCount: 2
Fore
SplineSet
265 54 m 128,-1,1
 297 54 297 54 326.5 66 c 128,-1,2
 356 78 356 78 380 102.5 c 128,-1,3
 404 127 404 127 418 163 c 128,-1,4
 432 199 432 199 432 246 c 0,5,6
 432 292 432 292 418 327.5 c 128,-1,7
 404 363 404 363 380.5 387 c 128,-1,8
 357 411 357 411 327 424 c 128,-1,9
 297 437 297 437 265 437 c 128,-1,10
 233 437 233 437 203.5 424 c 128,-1,11
 174 411 174 411 150 387 c 128,-1,12
 126 363 126 363 112 327.5 c 128,-1,13
 98 292 98 292 98 246 c 0,14,15
 98 199 98 199 112 163 c 128,-1,16
 126 127 126 127 150 102.5 c 128,-1,17
 174 78 174 78 203.5 66 c 128,-1,0
 233 54 233 54 265 54 c 128,-1,1
26 245 m 128,-1,19
 26 310 26 310 46.5 358.5 c 128,-1,20
 67 407 67 407 100.5 439.5 c 128,-1,21
 134 472 134 472 176.5 488 c 128,-1,22
 219 504 219 504 266 504 c 0,23,24
 312 504 312 504 355.5 488 c 128,-1,25
 399 472 399 472 432 439.5 c 128,-1,26
 465 407 465 407 485.5 358.5 c 128,-1,27
 506 310 506 310 506 245 c 128,-1,28
 506 180 506 180 485.5 132 c 128,-1,29
 465 84 465 84 432 51.5 c 128,-1,30
 399 19 399 19 355.5 2.5 c 128,-1,31
 312 -14 312 -14 266 -14 c 0,32,33
 219 -14 219 -14 176.5 2.5 c 128,-1,34
 134 19 134 19 100.5 51.5 c 128,-1,35
 67 84 67 84 46.5 132 c 128,-1,18
 26 180 26 180 26 245 c 128,-1,19
347 127 m 1,36,37
 329 119 329 119 309 114.5 c 128,-1,38
 289 110 289 110 271 110 c 0,39,40
 240 110 240 110 217.5 121 c 128,-1,41
 195 132 195 132 180 151 c 128,-1,42
 165 170 165 170 158 193.5 c 128,-1,43
 151 217 151 217 151 242.5 c 128,-1,44
 151 268 151 268 158 292.5 c 128,-1,45
 165 317 165 317 180 336 c 128,-1,46
 195 355 195 355 218 366.5 c 128,-1,47
 241 378 241 378 272 378 c 0,48,49
 289 378 289 378 307.5 375.5 c 128,-1,50
 326 373 326 373 344 365 c 1,51,-1
 323 307 l 1,52,53
 311 312 311 312 299.5 314 c 128,-1,54
 288 316 288 316 279 316 c 0,55,56
 245 316 245 316 230.5 294.5 c 128,-1,57
 216 273 216 273 216 247 c 0,58,59
 216 213 216 213 233.5 193.5 c 128,-1,60
 251 174 251 174 283 174 c 0,61,62
 293 174 293 174 305 176 c 128,-1,63
 317 178 317 178 329 183 c 1,64,-1
 347 127 l 1,36,37
EndSplineSet
EndChar

StartChar: ordfeminine
Encoding: 170 170 133
Width: 500
Flags: W
LayerCount: 2
Fore
SplineSet
269 670 m 0,0,1
 315 670 315 670 345.5 660 c 128,-1,2
 376 650 376 650 394.5 631.5 c 128,-1,3
 413 613 413 613 421 586 c 128,-1,4
 429 559 429 559 429 526 c 2,5,-1
 429 311 l 1,6,7
 408 306 408 306 366.5 299 c 128,-1,8
 325 292 325 292 270 292 c 0,9,10
 196 292 196 292 153 319 c 128,-1,11
 110 346 110 346 110 411 c 0,12,13
 110 443 110 443 123 465 c 128,-1,14
 136 487 136 487 157.5 499.5 c 128,-1,15
 179 512 179 512 207.5 518 c 128,-1,16
 236 524 236 524 268 524 c 0,17,18
 287 524 287 524 302 521.5 c 128,-1,19
 317 519 317 519 329 517 c 1,20,-1
 329 527 l 2,21,22
 329 553 329 553 313 568 c 128,-1,23
 297 583 297 583 258 583 c 0,24,25
 232 583 232 583 205 579.5 c 128,-1,26
 178 576 178 576 159 569 c 1,27,-1
 145 653 l 1,28,29
 163 658 163 658 198.5 664 c 128,-1,30
 234 670 234 670 269 670 c 0,0,1
278 372 m 0,31,32
 293 372 293 372 306.5 373 c 128,-1,33
 320 374 320 374 329 375 c 1,34,-1
 329 448 l 1,35,36
 323 450 323 450 310.5 452 c 128,-1,37
 298 454 298 454 287 454 c 0,38,39
 258 454 258 454 237 446 c 128,-1,40
 216 438 216 438 216 413.5 c 128,-1,41
 216 389 216 389 233 380.5 c 128,-1,42
 250 372 250 372 278 372 c 0,31,32
EndSplineSet
EndChar

StartChar: guillemotleft
Encoding: 171 171 134
Width: 500
Flags: W
LayerCount: 2
Fore
SplineSet
408 490 m 1,0,-1
 478 447 l 1,1,-1
 379 270 l 1,2,-1
 478 93 l 1,3,-1
 410 49 l 1,4,-1
 266 270 l 1,5,-1
 408 490 l 1,0,-1
197 490 m 1,6,-1
 266 447 l 1,7,-1
 166 270 l 1,8,-1
 266 93 l 1,9,-1
 199 49 l 1,10,-1
 53 270 l 1,11,-1
 197 490 l 1,6,-1
EndSplineSet
Substitution2: "'case' +WSdlh1tXfUQwf3UoMGuKv2V0MFcwX1tXX2IA lookup 17 +MLUw1jDGMPww1jDr" Guillemotleft
EndChar

StartChar: logicalnot
Encoding: 172 172 135
Width: 500
Flags: W
LayerCount: 2
Fore
SplineSet
475 45 m 1,0,-1
 364 45 l 1,1,-1
 364 277 l 1,2,-1
 48 277 l 1,3,-1
 48 385 l 1,4,-1
 475 385 l 1,5,-1
 475 45 l 1,0,-1
EndSplineSet
EndChar

StartChar: uni00AD
Encoding: 173 173 136
Width: 500
Flags: W
LayerCount: 2
Fore
SplineSet
120 336 m 1,0,-1
 410 336 l 1,1,-1
 410 208 l 1,2,-1
 120 208 l 1,3,-1
 120 336 l 1,0,-1
EndSplineSet
EndChar

StartChar: registered
Encoding: 174 174 137
Width: 500
Flags: W
LayerCount: 2
Fore
SplineSet
265 54 m 128,-1,1
 297 54 297 54 326.5 66 c 128,-1,2
 356 78 356 78 380 102.5 c 128,-1,3
 404 127 404 127 418 163 c 128,-1,4
 432 199 432 199 432 246 c 0,5,6
 432 292 432 292 418 327.5 c 128,-1,7
 404 363 404 363 380.5 387 c 128,-1,8
 357 411 357 411 327 424 c 128,-1,9
 297 437 297 437 265 437 c 128,-1,10
 233 437 233 437 203.5 424 c 128,-1,11
 174 411 174 411 150 387 c 128,-1,12
 126 363 126 363 112 327.5 c 128,-1,13
 98 292 98 292 98 246 c 0,14,15
 98 199 98 199 112 163 c 128,-1,16
 126 127 126 127 150 102.5 c 128,-1,17
 174 78 174 78 203.5 66 c 128,-1,0
 233 54 233 54 265 54 c 128,-1,1
26 245 m 128,-1,19
 26 310 26 310 46.5 358.5 c 128,-1,20
 67 407 67 407 100.5 439.5 c 128,-1,21
 134 472 134 472 176.5 488 c 128,-1,22
 219 504 219 504 266 504 c 0,23,24
 312 504 312 504 355.5 488 c 128,-1,25
 399 472 399 472 432 439.5 c 128,-1,26
 465 407 465 407 485.5 358.5 c 128,-1,27
 506 310 506 310 506 245 c 128,-1,28
 506 180 506 180 485.5 132 c 128,-1,29
 465 84 465 84 432 51.5 c 128,-1,30
 399 19 399 19 355.5 2.5 c 128,-1,31
 312 -14 312 -14 266 -14 c 0,32,33
 219 -14 219 -14 176.5 2.5 c 128,-1,34
 134 19 134 19 100.5 51.5 c 128,-1,35
 67 84 67 84 46.5 132 c 128,-1,18
 26 180 26 180 26 245 c 128,-1,19
233 251 m 1,36,-1
 252 251 l 2,37,38
 281 251 281 251 294.5 258.5 c 128,-1,39
 308 266 308 266 308 290 c 0,40,41
 308 311 308 311 291.5 318 c 128,-1,42
 275 325 275 325 257 325 c 0,43,44
 251 325 251 325 244.5 324.5 c 128,-1,45
 238 324 238 324 233 323 c 1,46,-1
 233 251 l 1,36,-1
233 198 m 1,47,-1
 233 117 l 1,48,-1
 176 117 l 1,49,-1
 176 369 l 1,50,51
 191 373 191 373 209 375.5 c 128,-1,52
 227 378 227 378 247 378 c 0,53,54
 307 378 307 378 336.5 355 c 128,-1,55
 366 332 366 332 366 287 c 0,56,57
 366 236 366 236 323 212 c 1,58,59
 336 194 336 194 350 169 c 128,-1,60
 364 144 364 144 377 117 c 1,61,-1
 317 117 l 1,62,63
 303 142 303 142 292.5 161.5 c 128,-1,64
 282 181 282 181 271 198 c 1,65,-1
 233 198 l 1,47,-1
EndSplineSet
EndChar

StartChar: macron
Encoding: 175 175 138
Width: 500
Flags: W
LayerCount: 2
Fore
SplineSet
114 686 m 1,0,-1
 420 686 l 1,1,-1
 420 594 l 1,2,-1
 114 594 l 1,3,-1
 114 686 l 1,0,-1
EndSplineSet
EndChar

StartChar: degree
Encoding: 176 176 139
Width: 500
Flags: W
LayerCount: 2
Fore
SplineSet
267.5 535 m 128,-1,1
 292 535 292 535 308 549.5 c 128,-1,2
 324 564 324 564 324 593.5 c 128,-1,3
 324 623 324 623 308 637 c 128,-1,4
 292 651 292 651 267.5 651 c 128,-1,5
 243 651 243 651 226 637 c 128,-1,6
 209 623 209 623 209 593.5 c 128,-1,7
 209 564 209 564 226 549.5 c 128,-1,0
 243 535 243 535 267.5 535 c 128,-1,1
267 740 m 0,8,9
 300 740 300 740 328 730 c 128,-1,10
 356 720 356 720 376 701 c 128,-1,11
 396 682 396 682 408 654 c 128,-1,12
 420 626 420 626 420 592.5 c 128,-1,13
 420 559 420 559 408 532 c 128,-1,14
 396 505 396 505 376 485.5 c 128,-1,15
 356 466 356 466 328 456 c 128,-1,16
 300 446 300 446 267 446 c 0,17,18
 197 446 197 446 155.5 485 c 128,-1,19
 114 524 114 524 114 592.5 c 128,-1,20
 114 661 114 661 156.5 700.5 c 128,-1,21
 199 740 199 740 267 740 c 0,8,9
EndSplineSet
EndChar

StartChar: plusminus
Encoding: 177 177 140
Width: 500
Flags: W
LayerCount: 2
Fore
SplineSet
42 426 m 1,0,-1
 209 426 l 1,1,-1
 209 591 l 1,2,-1
 321 591 l 1,3,-1
 321 426 l 1,4,-1
 488 426 l 1,5,-1
 488 318 l 1,6,-1
 321 318 l 1,7,-1
 321 152 l 1,8,-1
 209 152 l 1,9,-1
 209 318 l 1,10,-1
 42 318 l 1,11,-1
 42 426 l 1,0,-1
42 108 m 1,12,-1
 488 108 l 1,13,-1
 488 0 l 1,14,-1
 42 0 l 1,15,-1
 42 108 l 1,12,-1
EndSplineSet
EndChar

StartChar: twosuperior
Encoding: 178 178 141
Width: 500
Flags: W
LayerCount: 2
Fore
SplineSet
400 554 m 0,0,1
 400 513 400 513 375.5 485 c 128,-1,2
 351 457 351 457 322 432 c 0,3,4
 305 418 305 418 288.5 402.5 c 128,-1,5
 272 387 272 387 261 372 c 1,6,-1
 409 372 l 1,7,-1
 409 286 l 1,8,-1
 137 286 l 1,9,-1
 137 313 l 2,10,11
 137 360 137 360 162 397 c 128,-1,12
 187 434 187 434 234 474 c 0,13,14
 260 496 260 496 276 512 c 128,-1,15
 292 528 292 528 292 545 c 0,16,17
 292 560 292 560 283.5 568.5 c 128,-1,18
 275 577 275 577 259 577 c 0,19,20
 231 577 231 577 207.5 566 c 128,-1,21
 184 555 184 555 169 542 c 1,22,-1
 120 615 l 1,23,24
 144 636 144 636 182 653.5 c 128,-1,25
 220 671 220 671 263 671 c 0,26,27
 337 671 337 671 368.5 638.5 c 128,-1,28
 400 606 400 606 400 554 c 0,0,1
EndSplineSet
Substitution2: "+U1h9FH9uY9sA lookup 22 +MLUw1jDGMPww1jDr" twoinferior
Substitution2: "'sinf' +edFbZmWHcy51KE4LMGQwTWWHW1cA lookup 11 +MLUw1jDGMPww1jDr" two.sinf
Substitution2: "'subs' +TgswZDBNZYdbVwAA lookup 10 +MLUw1jDGMPww1jDr" two.sinf
Substitution2: "'sups' +TgowZDBNZYdbVwAA lookup 9 +MLUw1jDGMPww1jDr" two.sups
Substitution2: "'dnom' +UgZrzQAA lookup 8 +MLUw1jDGMPww1jDr" twoinferior
EndChar

StartChar: threesuperior
Encoding: 179 179 142
Width: 500
Flags: W
LayerCount: 2
Fore
SplineSet
245 367 m 0,0,1
 279 367 279 367 292 377.5 c 128,-1,2
 305 388 305 388 305 403 c 0,3,4
 304 441 304 441 238 441 c 2,5,-1
 199 441 l 1,6,-1
 199 518 l 1,7,-1
 238 518 l 2,8,9
 260 518 260 518 274 526.5 c 128,-1,10
 288 535 288 535 288 553 c 0,11,12
 288 583 288 583 247 583 c 0,13,14
 225 583 225 583 203.5 575.5 c 128,-1,15
 182 568 182 568 162 560 c 1,16,-1
 126 634 l 1,17,18
 149 649 149 649 184.5 660 c 128,-1,19
 220 671 220 671 254 671 c 0,20,21
 292 671 292 671 318 662.5 c 128,-1,22
 344 654 344 654 360 639.5 c 128,-1,23
 376 625 376 625 382.5 605.5 c 128,-1,24
 389 586 389 586 389 565 c 0,25,26
 389 545 389 545 380 527.5 c 128,-1,27
 371 510 371 510 350 492 c 1,28,29
 381 478 381 478 394 454 c 128,-1,30
 407 430 407 430 407 402 c 0,31,32
 407 376 407 376 398.5 353.5 c 128,-1,33
 390 331 390 331 371 314.5 c 128,-1,34
 352 298 352 298 321 288.5 c 128,-1,35
 290 279 290 279 246 279 c 0,36,37
 214 279 214 279 177.5 286 c 128,-1,38
 141 293 141 293 120 304 c 1,39,-1
 142 388 l 1,40,41
 174 374 174 374 196.5 370.5 c 128,-1,42
 219 367 219 367 245 367 c 0,0,1
EndSplineSet
Substitution2: "+U1h9FH9uY9sA lookup 22 +MLUw1jDGMPww1jDr" threeinferior
Substitution2: "'sinf' +edFbZmWHcy51KE4LMGQwTWWHW1cA lookup 11 +MLUw1jDGMPww1jDr" three.sinf
Substitution2: "'subs' +TgswZDBNZYdbVwAA lookup 10 +MLUw1jDGMPww1jDr" three.sinf
Substitution2: "'sups' +TgowZDBNZYdbVwAA lookup 9 +MLUw1jDGMPww1jDr" three.sups
Substitution2: "'dnom' +UgZrzQAA lookup 8 +MLUw1jDGMPww1jDr" threeinferior
EndChar

StartChar: acute
Encoding: 180 180 143
Width: 500
Flags: W
LayerCount: 2
Fore
SplineSet
393 633 m 1,0,-1
 209 544 l 1,1,-1
 161 615 l 1,2,-1
 329 732 l 1,3,-1
 393 633 l 1,0,-1
EndSplineSet
EndChar

StartChar: mu
Encoding: 181 181 144
Width: 500
Flags: W
LayerCount: 2
Fore
SplineSet
193 498 m 1,0,-1
 193 227 l 2,1,2
 193 190 193 190 198.5 166 c 128,-1,3
 204 142 204 142 214 127.5 c 128,-1,4
 224 113 224 113 239 107.5 c 128,-1,5
 254 102 254 102 275 102 c 0,6,7
 290 102 290 102 305 103.5 c 128,-1,8
 320 105 320 105 333 107 c 1,9,-1
 333 498 l 1,10,-1
 464 498 l 1,11,-1
 464 17 l 1,12,13
 430 7 430 7 380.5 -2.5 c 128,-1,14
 331 -12 331 -12 277 -12 c 0,15,16
 260 -12 260 -12 234.5 -7 c 128,-1,17
 209 -2 209 -2 187 4 c 1,18,19
 189 -18 189 -18 191 -38.5 c 128,-1,20
 193 -59 193 -59 193 -87 c 2,21,-1
 193 -175 l 1,22,-1
 63 -175 l 1,23,-1
 63 498 l 1,24,-1
 193 498 l 1,0,-1
EndSplineSet
EndChar

StartChar: paragraph
Encoding: 182 182 145
Width: 500
Flags: W
LayerCount: 2
Fore
SplineSet
182 246 m 1,0,1
 101 264 101 264 60.5 312 c 128,-1,2
 20 360 20 360 20 453 c 0,3,4
 20 504 20 504 38.5 543 c 128,-1,5
 57 582 57 582 91.5 609 c 128,-1,6
 126 636 126 636 175 650 c 128,-1,7
 224 664 224 664 284 664 c 0,8,9
 335 664 335 664 388.5 658 c 128,-1,10
 442 652 442 652 482 641 c 1,11,-1
 482 -175 l 1,12,-1
 375 -175 l 1,13,-1
 375 553 l 1,14,15
 364 555 364 555 339 556.5 c 128,-1,16
 314 558 314 558 290 555 c 1,17,-1
 290 -175 l 1,18,-1
 182 -175 l 1,19,-1
 182 246 l 1,0,1
EndSplineSet
EndChar

StartChar: periodcentered
Encoding: 183 183 146
Width: 500
Flags: W
LayerCount: 2
Fore
SplineSet
360 281 m 0,0,1
 360 234 360 234 331.5 210 c 128,-1,2
 303 186 303 186 266 186 c 0,3,4
 247 186 247 186 230 192 c 128,-1,5
 213 198 213 198 200 210.5 c 128,-1,6
 187 223 187 223 179 240.5 c 128,-1,7
 171 258 171 258 171 281 c 0,8,9
 171 303 171 303 179 320.5 c 128,-1,10
 187 338 187 338 200 349.5 c 128,-1,11
 213 361 213 361 230 367.5 c 128,-1,12
 247 374 247 374 266 374 c 0,13,14
 303 374 303 374 331.5 350 c 128,-1,15
 360 326 360 326 360 281 c 0,0,1
EndSplineSet
EndChar

StartChar: cedilla
Encoding: 184 184 147
Width: 500
Flags: W
LayerCount: 2
Fore
SplineSet
318 -25 m 1,0,1
 353 -36 353 -36 367 -56.5 c 128,-1,2
 381 -77 381 -77 381 -96 c 0,3,4
 381 -120 381 -120 369.5 -136.5 c 128,-1,5
 358 -153 358 -153 340.5 -162.5 c 128,-1,6
 323 -172 323 -172 300 -176 c 128,-1,7
 277 -180 277 -180 253 -180 c 0,8,9
 205 -180 205 -180 169 -169 c 1,10,-1
 182 -102 l 1,11,12
 188 -104 188 -104 206.5 -107.5 c 128,-1,13
 225 -111 225 -111 242 -111 c 0,14,15
 285 -111 285 -111 285 -85 c 0,16,17
 285 -65 285 -65 247 -52 c 2,18,-1
 226 -46 l 1,19,20
 231 -28 231 -28 240 -8.5 c 128,-1,21
 249 11 249 11 254 19 c 1,22,-1
 339 19 l 1,23,24
 334 7 334 7 328.5 -3 c 128,-1,25
 323 -13 323 -13 318 -25 c 1,0,1
EndSplineSet
EndChar

StartChar: onesuperior
Encoding: 185 185 148
Width: 500
Flags: W
LayerCount: 2
Fore
SplineSet
146 286 m 1,0,-1
 146 372 l 1,1,-1
 252 372 l 1,2,-1
 252 542 l 1,3,4
 233 530 233 530 213.5 522 c 128,-1,5
 194 514 194 514 165 502 c 1,6,-1
 137 585 l 1,7,8
 177 601 177 601 214 621 c 128,-1,9
 251 641 251 641 279 664 c 1,10,-1
 360 664 l 1,11,-1
 360 372 l 1,12,-1
 447 372 l 1,13,-1
 447 286 l 1,14,-1
 146 286 l 1,0,-1
EndSplineSet
Substitution2: "+U1h9FH9uY9sA lookup 22 +MLUw1jDGMPww1jDr" oneinferior
Substitution2: "'sinf' +edFbZmWHcy51KE4LMGQwTWWHW1cA lookup 11 +MLUw1jDGMPww1jDr" one.sinf
Substitution2: "'subs' +TgswZDBNZYdbVwAA lookup 10 +MLUw1jDGMPww1jDr" one.sinf
Substitution2: "'sups' +TgowZDBNZYdbVwAA lookup 9 +MLUw1jDGMPww1jDr" one.sups
Substitution2: "'dnom' +UgZrzQAA lookup 8 +MLUw1jDGMPww1jDr" oneinferior
EndChar

StartChar: ordmasculine
Encoding: 186 186 149
Width: 500
Flags: W
LayerCount: 2
Fore
SplineSet
340 479 m 0,0,1
 340 525 340 525 320.5 551 c 128,-1,2
 301 577 301 577 264 577 c 0,3,4
 228 577 228 577 207.5 551 c 128,-1,5
 187 525 187 525 187 479 c 0,6,7
 187 436 187 436 207 410.5 c 128,-1,8
 227 385 227 385 264 385 c 128,-1,9
 301 385 301 385 320.5 410.5 c 128,-1,10
 340 436 340 436 340 479 c 0,0,1
448 479.5 m 128,-1,12
 448 435 448 435 435 400 c 128,-1,13
 422 365 422 365 397.5 340.5 c 128,-1,14
 373 316 373 316 339 302.5 c 128,-1,15
 305 289 305 289 264 289 c 128,-1,16
 223 289 223 289 189 302.5 c 128,-1,17
 155 316 155 316 130.5 340.5 c 128,-1,18
 106 365 106 365 92 400 c 128,-1,19
 78 435 78 435 78 479.5 c 128,-1,20
 78 524 78 524 92 560 c 128,-1,21
 106 596 106 596 130.5 620 c 128,-1,22
 155 644 155 644 189 657.5 c 128,-1,23
 223 671 223 671 264 671 c 128,-1,24
 305 671 305 671 339 657.5 c 128,-1,25
 373 644 373 644 397.5 620 c 128,-1,26
 422 596 422 596 435 560 c 128,-1,11
 448 524 448 524 448 479.5 c 128,-1,12
EndSplineSet
EndChar

StartChar: guillemotright
Encoding: 187 187 150
Width: 500
Flags: W
LayerCount: 2
Fore
SplineSet
123 49 m 1,0,-1
 53 91 l 1,1,-1
 152 269 l 1,2,-1
 53 446 l 1,3,-1
 121 490 l 1,4,-1
 265 269 l 1,5,-1
 123 49 l 1,0,-1
334 49 m 1,6,-1
 265 91 l 1,7,-1
 365 269 l 1,8,-1
 265 446 l 1,9,-1
 332 490 l 1,10,-1
 478 269 l 1,11,-1
 334 49 l 1,6,-1
EndSplineSet
Substitution2: "'case' +WSdlh1tXfUQwf3UoMGuKv2V0MFcwX1tXX2IA lookup 17 +MLUw1jDGMPww1jDr" Guillemotright
EndChar

StartChar: onequarter
Encoding: 188 188 151
Width: 500
Flags: W
LayerCount: 2
Fore
SplineSet
475 656 m 1,0,-1
 139 0 l 1,1,-1
 33 0 l 1,2,-1
 369 656 l 1,3,-1
 475 656 l 1,0,-1
402 197 m 1,4,5
 385 173 385 173 371.5 151 c 128,-1,6
 358 129 358 129 348 108 c 1,7,-1
 402 108 l 1,8,-1
 402 197 l 1,4,5
2 590 m 1,9,10
 38 606 38 606 64.5 622.5 c 128,-1,11
 91 639 91 639 117 664 c 1,12,-1
 183 664 l 1,13,-1
 183 399 l 1,14,-1
 93 399 l 1,15,-1
 93 558 l 1,16,17
 72 546 72 546 57 539.5 c 128,-1,18
 42 533 42 533 22 528 c 1,19,-1
 2 590 l 1,9,10
487 265 m 1,20,-1
 487 108 l 1,21,-1
 525 108 l 1,22,-1
 525 41 l 1,23,-1
 487 41 l 1,24,-1
 487 0 l 1,25,-1
 402 0 l 1,26,-1
 402 41 l 1,27,-1
 270 41 l 1,28,-1
 270 89 l 1,29,30
 294 135 294 135 318 175 c 128,-1,31
 342 215 342 215 376 265 c 1,32,-1
 487 265 l 1,20,-1
EndSplineSet
Ligature2: "'frac' +ZZwwgTBuUgZlcAAA lookup 13 +MLUw1jDGMPww1jDr" one.sinf fraction four.sinf
Ligature2: "'frac' +ZZwwgTBuUgZlcAAA lookup 13 +MLUw1jDGMPww1jDr" one.sinf fraction four.sups
Ligature2: "'frac' +ZZwwgTBuUgZlcAAA lookup 13 +MLUw1jDGMPww1jDr" one.sinf fraction fourinferior
Ligature2: "'frac' +ZZwwgTBuUgZlcAAA lookup 13 +MLUw1jDGMPww1jDr" one.sinf fraction foursuperior
Ligature2: "'frac' +ZZwwgTBuUgZlcAAA lookup 13 +MLUw1jDGMPww1jDr" one.sinf fraction four
Ligature2: "'frac' +ZZwwgTBuUgZlcAAA lookup 13 +MLUw1jDGMPww1jDr" one.sups fraction four.sinf
Ligature2: "'frac' +ZZwwgTBuUgZlcAAA lookup 13 +MLUw1jDGMPww1jDr" one.sups fraction four.sups
Ligature2: "'frac' +ZZwwgTBuUgZlcAAA lookup 13 +MLUw1jDGMPww1jDr" one.sups fraction fourinferior
Ligature2: "'frac' +ZZwwgTBuUgZlcAAA lookup 13 +MLUw1jDGMPww1jDr" one.sups fraction foursuperior
Ligature2: "'frac' +ZZwwgTBuUgZlcAAA lookup 13 +MLUw1jDGMPww1jDr" one.sups fraction four
Ligature2: "'frac' +ZZwwgTBuUgZlcAAA lookup 13 +MLUw1jDGMPww1jDr" oneinferior fraction four.sinf
Ligature2: "'frac' +ZZwwgTBuUgZlcAAA lookup 13 +MLUw1jDGMPww1jDr" oneinferior fraction four.sups
Ligature2: "'frac' +ZZwwgTBuUgZlcAAA lookup 13 +MLUw1jDGMPww1jDr" oneinferior fraction fourinferior
Ligature2: "'frac' +ZZwwgTBuUgZlcAAA lookup 13 +MLUw1jDGMPww1jDr" oneinferior fraction foursuperior
Ligature2: "'frac' +ZZwwgTBuUgZlcAAA lookup 13 +MLUw1jDGMPww1jDr" oneinferior fraction four
Ligature2: "'frac' +ZZwwgTBuUgZlcAAA lookup 13 +MLUw1jDGMPww1jDr" onesuperior fraction four.sinf
Ligature2: "'frac' +ZZwwgTBuUgZlcAAA lookup 13 +MLUw1jDGMPww1jDr" onesuperior fraction four.sups
Ligature2: "'frac' +ZZwwgTBuUgZlcAAA lookup 13 +MLUw1jDGMPww1jDr" onesuperior fraction fourinferior
Ligature2: "'frac' +ZZwwgTBuUgZlcAAA lookup 13 +MLUw1jDGMPww1jDr" onesuperior fraction foursuperior
Ligature2: "'frac' +ZZwwgTBuUgZlcAAA lookup 13 +MLUw1jDGMPww1jDr" onesuperior fraction four
Ligature2: "'frac' +ZZwwgTBuUgZlcAAA lookup 13 +MLUw1jDGMPww1jDr" one fraction four.sinf
Ligature2: "'frac' +ZZwwgTBuUgZlcAAA lookup 13 +MLUw1jDGMPww1jDr" one fraction four.sups
Ligature2: "'frac' +ZZwwgTBuUgZlcAAA lookup 13 +MLUw1jDGMPww1jDr" one fraction fourinferior
Ligature2: "'frac' +ZZwwgTBuUgZlcAAA lookup 13 +MLUw1jDGMPww1jDr" one fraction foursuperior
Ligature2: "'frac' +ZZwwgTBuUgZlcAAA lookup 13 +MLUw1jDGMPww1jDr" one fraction four
EndChar

StartChar: onehalf
Encoding: 189 189 152
Width: 500
Flags: W
LayerCount: 2
Fore
SplineSet
475 656 m 1,0,-1
 139 0 l 1,1,-1
 33 0 l 1,2,-1
 369 656 l 1,3,-1
 475 656 l 1,0,-1
2 590 m 1,4,5
 38 606 38 606 64.5 622.5 c 128,-1,6
 91 639 91 639 117 664 c 1,7,-1
 183 664 l 1,8,-1
 183 399 l 1,9,-1
 93 399 l 1,10,-1
 93 558 l 1,11,12
 72 546 72 546 57 539.5 c 128,-1,13
 42 533 42 533 22 528 c 1,14,-1
 2 590 l 1,4,5
520 67 m 1,15,-1
 520 0 l 1,16,-1
 299 0 l 1,17,18
 297 6 297 6 297 12.5 c 128,-1,19
 297 19 297 19 297 24 c 0,20,21
 297 61 297 61 318.5 81.5 c 128,-1,22
 340 102 340 102 371 122 c 2,23,-1
 394 137 l 2,24,25
 412 149 412 149 418.5 156 c 128,-1,26
 425 163 425 163 425 177 c 0,27,28
 426 200 426 200 398 200 c 0,29,30
 382 200 382 200 366 191.5 c 128,-1,31
 350 183 350 183 337 170 c 1,32,-1
 294 226 l 1,33,34
 314 250 314 250 344.5 262.5 c 128,-1,35
 375 275 375 275 409 275 c 0,36,37
 450 275 450 275 482.5 253.5 c 128,-1,38
 515 232 515 232 515 188 c 0,39,40
 515 159 515 159 503.5 141 c 128,-1,41
 492 123 492 123 475 110.5 c 128,-1,42
 458 98 458 98 439 87.5 c 128,-1,43
 420 77 420 77 405 67 c 1,44,-1
 520 67 l 1,15,-1
EndSplineSet
Ligature2: "'frac' +ZZwwgTBuUgZlcAAA lookup 13 +MLUw1jDGMPww1jDr" one.sinf fraction two.sinf
Ligature2: "'frac' +ZZwwgTBuUgZlcAAA lookup 13 +MLUw1jDGMPww1jDr" one.sinf fraction two.sups
Ligature2: "'frac' +ZZwwgTBuUgZlcAAA lookup 13 +MLUw1jDGMPww1jDr" one.sinf fraction twoinferior
Ligature2: "'frac' +ZZwwgTBuUgZlcAAA lookup 13 +MLUw1jDGMPww1jDr" one.sinf fraction twosuperior
Ligature2: "'frac' +ZZwwgTBuUgZlcAAA lookup 13 +MLUw1jDGMPww1jDr" one.sinf fraction two
Ligature2: "'frac' +ZZwwgTBuUgZlcAAA lookup 13 +MLUw1jDGMPww1jDr" one.sups fraction two.sinf
Ligature2: "'frac' +ZZwwgTBuUgZlcAAA lookup 13 +MLUw1jDGMPww1jDr" one.sups fraction two.sups
Ligature2: "'frac' +ZZwwgTBuUgZlcAAA lookup 13 +MLUw1jDGMPww1jDr" one.sups fraction twoinferior
Ligature2: "'frac' +ZZwwgTBuUgZlcAAA lookup 13 +MLUw1jDGMPww1jDr" one.sups fraction twosuperior
Ligature2: "'frac' +ZZwwgTBuUgZlcAAA lookup 13 +MLUw1jDGMPww1jDr" one.sups fraction two
Ligature2: "'frac' +ZZwwgTBuUgZlcAAA lookup 13 +MLUw1jDGMPww1jDr" oneinferior fraction two.sinf
Ligature2: "'frac' +ZZwwgTBuUgZlcAAA lookup 13 +MLUw1jDGMPww1jDr" oneinferior fraction two.sups
Ligature2: "'frac' +ZZwwgTBuUgZlcAAA lookup 13 +MLUw1jDGMPww1jDr" oneinferior fraction twoinferior
Ligature2: "'frac' +ZZwwgTBuUgZlcAAA lookup 13 +MLUw1jDGMPww1jDr" oneinferior fraction twosuperior
Ligature2: "'frac' +ZZwwgTBuUgZlcAAA lookup 13 +MLUw1jDGMPww1jDr" oneinferior fraction two
Ligature2: "'frac' +ZZwwgTBuUgZlcAAA lookup 13 +MLUw1jDGMPww1jDr" onesuperior fraction two.sinf
Ligature2: "'frac' +ZZwwgTBuUgZlcAAA lookup 13 +MLUw1jDGMPww1jDr" onesuperior fraction two.sups
Ligature2: "'frac' +ZZwwgTBuUgZlcAAA lookup 13 +MLUw1jDGMPww1jDr" onesuperior fraction twoinferior
Ligature2: "'frac' +ZZwwgTBuUgZlcAAA lookup 13 +MLUw1jDGMPww1jDr" onesuperior fraction twosuperior
Ligature2: "'frac' +ZZwwgTBuUgZlcAAA lookup 13 +MLUw1jDGMPww1jDr" onesuperior fraction two
Ligature2: "'frac' +ZZwwgTBuUgZlcAAA lookup 13 +MLUw1jDGMPww1jDr" one fraction two.sinf
Ligature2: "'frac' +ZZwwgTBuUgZlcAAA lookup 13 +MLUw1jDGMPww1jDr" one fraction two.sups
Ligature2: "'frac' +ZZwwgTBuUgZlcAAA lookup 13 +MLUw1jDGMPww1jDr" one fraction twoinferior
Ligature2: "'frac' +ZZwwgTBuUgZlcAAA lookup 13 +MLUw1jDGMPww1jDr" one fraction twosuperior
Ligature2: "'frac' +ZZwwgTBuUgZlcAAA lookup 13 +MLUw1jDGMPww1jDr" one fraction two
EndChar

StartChar: threequarters
Encoding: 190 190 153
Width: 500
Flags: W
LayerCount: 2
Fore
SplineSet
494 656 m 1,0,-1
 158 0 l 1,1,-1
 52 0 l 1,2,-1
 388 656 l 1,3,-1
 494 656 l 1,0,-1
402 197 m 1,4,5
 385 173 385 173 371.5 151 c 128,-1,6
 358 129 358 129 348 108 c 1,7,-1
 402 108 l 1,8,-1
 402 197 l 1,4,5
487 265 m 1,9,-1
 487 108 l 1,10,-1
 525 108 l 1,11,-1
 525 41 l 1,12,-1
 487 41 l 1,13,-1
 487 0 l 1,14,-1
 402 0 l 1,15,-1
 402 41 l 1,16,-1
 270 41 l 1,17,-1
 270 89 l 1,18,19
 294 135 294 135 318 175 c 128,-1,20
 342 215 342 215 376 265 c 1,21,-1
 487 265 l 1,9,-1
32 472 m 1,22,23
 44 467 44 467 64.5 461.5 c 128,-1,24
 85 456 85 456 106 456 c 0,25,26
 130 456 130 456 142.5 460 c 128,-1,27
 155 464 155 464 155 478 c 0,28,29
 155 506 155 506 92 506 c 2,30,-1
 71 506 l 1,31,-1
 71 566 l 1,32,-1
 94 566 l 2,33,34
 122 566 122 566 132 571.5 c 128,-1,35
 142 577 142 577 142 587 c 128,-1,36
 142 597 142 597 134 601 c 128,-1,37
 126 605 126 605 114 605 c 0,38,39
 96 605 96 605 75 599 c 128,-1,40
 54 593 54 593 45 587 c 1,41,-1
 21 644 l 1,42,43
 36 656 36 656 65.5 663.5 c 128,-1,44
 95 671 95 671 127 671 c 0,45,46
 182 671 182 671 207.5 649.5 c 128,-1,47
 233 628 233 628 233 600 c 0,48,49
 233 580 233 580 226 566 c 128,-1,50
 219 552 219 552 201 541 c 1,51,52
 246 520 246 520 246 474 c 0,53,54
 246 450 246 450 236 434 c 128,-1,55
 226 418 226 418 208 408 c 128,-1,56
 190 398 190 398 166 393.5 c 128,-1,57
 142 389 142 389 113 389 c 0,58,59
 83 389 83 389 56.5 394 c 128,-1,60
 30 399 30 399 13 407 c 1,61,-1
 32 472 l 1,22,23
EndSplineSet
Ligature2: "'frac' +ZZwwgTBuUgZlcAAA lookup 13 +MLUw1jDGMPww1jDr" three.sinf fraction four.sinf
Ligature2: "'frac' +ZZwwgTBuUgZlcAAA lookup 13 +MLUw1jDGMPww1jDr" three.sinf fraction four.sups
Ligature2: "'frac' +ZZwwgTBuUgZlcAAA lookup 13 +MLUw1jDGMPww1jDr" three.sinf fraction fourinferior
Ligature2: "'frac' +ZZwwgTBuUgZlcAAA lookup 13 +MLUw1jDGMPww1jDr" three.sinf fraction foursuperior
Ligature2: "'frac' +ZZwwgTBuUgZlcAAA lookup 13 +MLUw1jDGMPww1jDr" three.sinf fraction four
Ligature2: "'frac' +ZZwwgTBuUgZlcAAA lookup 13 +MLUw1jDGMPww1jDr" three.sups fraction four.sinf
Ligature2: "'frac' +ZZwwgTBuUgZlcAAA lookup 13 +MLUw1jDGMPww1jDr" three.sups fraction four.sups
Ligature2: "'frac' +ZZwwgTBuUgZlcAAA lookup 13 +MLUw1jDGMPww1jDr" three.sups fraction fourinferior
Ligature2: "'frac' +ZZwwgTBuUgZlcAAA lookup 13 +MLUw1jDGMPww1jDr" three.sups fraction foursuperior
Ligature2: "'frac' +ZZwwgTBuUgZlcAAA lookup 13 +MLUw1jDGMPww1jDr" three.sups fraction four
Ligature2: "'frac' +ZZwwgTBuUgZlcAAA lookup 13 +MLUw1jDGMPww1jDr" threeinferior fraction four.sinf
Ligature2: "'frac' +ZZwwgTBuUgZlcAAA lookup 13 +MLUw1jDGMPww1jDr" threeinferior fraction four.sups
Ligature2: "'frac' +ZZwwgTBuUgZlcAAA lookup 13 +MLUw1jDGMPww1jDr" threeinferior fraction fourinferior
Ligature2: "'frac' +ZZwwgTBuUgZlcAAA lookup 13 +MLUw1jDGMPww1jDr" threeinferior fraction foursuperior
Ligature2: "'frac' +ZZwwgTBuUgZlcAAA lookup 13 +MLUw1jDGMPww1jDr" threeinferior fraction four
Ligature2: "'frac' +ZZwwgTBuUgZlcAAA lookup 13 +MLUw1jDGMPww1jDr" threesuperior fraction four.sinf
Ligature2: "'frac' +ZZwwgTBuUgZlcAAA lookup 13 +MLUw1jDGMPww1jDr" threesuperior fraction four.sups
Ligature2: "'frac' +ZZwwgTBuUgZlcAAA lookup 13 +MLUw1jDGMPww1jDr" threesuperior fraction fourinferior
Ligature2: "'frac' +ZZwwgTBuUgZlcAAA lookup 13 +MLUw1jDGMPww1jDr" threesuperior fraction foursuperior
Ligature2: "'frac' +ZZwwgTBuUgZlcAAA lookup 13 +MLUw1jDGMPww1jDr" threesuperior fraction four
Ligature2: "'frac' +ZZwwgTBuUgZlcAAA lookup 13 +MLUw1jDGMPww1jDr" three fraction four.sinf
Ligature2: "'frac' +ZZwwgTBuUgZlcAAA lookup 13 +MLUw1jDGMPww1jDr" three fraction four.sups
Ligature2: "'frac' +ZZwwgTBuUgZlcAAA lookup 13 +MLUw1jDGMPww1jDr" three fraction fourinferior
Ligature2: "'frac' +ZZwwgTBuUgZlcAAA lookup 13 +MLUw1jDGMPww1jDr" three fraction foursuperior
Ligature2: "'frac' +ZZwwgTBuUgZlcAAA lookup 13 +MLUw1jDGMPww1jDr" three fraction four
EndChar

StartChar: questiondown
Encoding: 191 191 154
Width: 500
Flags: W
LayerCount: 2
Fore
SplineSet
201 406 m 0,0,1
 201 447 201 447 228 470.5 c 128,-1,2
 255 494 255 494 289 494 c 0,3,4
 306 494 306 494 322 488 c 128,-1,5
 338 482 338 482 351 470.5 c 128,-1,6
 364 459 364 459 371 442.5 c 128,-1,7
 378 426 378 426 378 406 c 128,-1,8
 378 386 378 386 371 369.5 c 128,-1,9
 364 353 364 353 351 342 c 128,-1,10
 338 331 338 331 322 325 c 128,-1,11
 306 319 306 319 289 319 c 128,-1,12
 272 319 272 319 256.5 325 c 128,-1,13
 241 331 241 331 228.5 342 c 128,-1,14
 216 353 216 353 208.5 369.5 c 128,-1,15
 201 386 201 386 201 406 c 0,0,1
357 243 m 1,16,17
 358 238 358 238 358 227 c 0,18,19
 358 185 358 185 336 146 c 128,-1,20
 314 107 314 107 278 77 c 0,21,22
 266 67 266 67 254 58 c 128,-1,23
 242 49 242 49 232.5 39.5 c 128,-1,24
 223 30 223 30 217 18.5 c 128,-1,25
 211 7 211 7 211 -5 c 0,26,27
 211 -37 211 -37 233 -53.5 c 128,-1,28
 255 -70 255 -70 289 -70 c 128,-1,29
 323 -70 323 -70 355 -60 c 128,-1,30
 387 -50 387 -50 424 -32 c 1,31,-1
 460 -131 l 1,32,33
 423 -154 423 -154 373 -167 c 128,-1,34
 323 -180 323 -180 275 -180 c 0,35,36
 215 -180 215 -180 175.5 -164 c 128,-1,37
 136 -148 136 -148 113.5 -123.5 c 128,-1,38
 91 -99 91 -99 82 -69.5 c 128,-1,39
 73 -40 73 -40 73 -14 c 0,40,41
 73 17 73 17 85.5 42 c 128,-1,42
 98 67 98 67 116.5 87.5 c 128,-1,43
 135 108 135 108 156 126.5 c 128,-1,44
 177 145 177 145 195.5 163 c 128,-1,45
 214 181 214 181 226 200 c 128,-1,46
 238 219 238 219 238 243 c 1,47,-1
 357 243 l 1,16,17
EndSplineSet
Substitution2: "'case' +WSdlh1tXfUQwf3UoMGuKv2V0MFcwX1tXX2IA lookup 17 +MLUw1jDGMPww1jDr" Questiondown
EndChar

StartChar: Agrave
Encoding: 192 192 155
Width: 500
Flags: W
LayerCount: 2
Fore
SplineSet
264 529 m 1,0,1
 253 492 253 492 244 458.5 c 128,-1,2
 235 425 235 425 227 392.5 c 128,-1,3
 219 360 219 360 212.5 327.5 c 128,-1,4
 206 295 206 295 199 260 c 1,5,-1
 328 260 l 1,6,7
 322 295 322 295 315 327.5 c 128,-1,8
 308 360 308 360 300.5 392.5 c 128,-1,9
 293 425 293 425 284 458.5 c 128,-1,10
 275 492 275 492 264 529 c 1,0,1
381 0 m 1,11,-1
 350 152 l 1,12,-1
 175 152 l 1,13,-1
 145 0 l 1,14,-1
 10 0 l 1,15,16
 57 194 57 194 104.5 353.5 c 128,-1,17
 152 513 152 513 196 656 c 1,18,-1
 338 656 l 1,19,20
 385 512 385 512 431 350.5 c 128,-1,21
 477 189 477 189 520 0 c 1,22,-1
 381 0 l 1,11,-1
209 880 m 1,23,-1
 376 762 l 1,24,-1
 329 691 l 1,25,-1
 144 780 l 1,26,-1
 209 880 l 1,23,-1
EndSplineSet
EndChar

StartChar: Aacute
Encoding: 193 193 156
Width: 500
Flags: W
LayerCount: 2
Fore
SplineSet
264 529 m 1,0,1
 253 492 253 492 244 458.5 c 128,-1,2
 235 425 235 425 227 392.5 c 128,-1,3
 219 360 219 360 212.5 327.5 c 128,-1,4
 206 295 206 295 199 260 c 1,5,-1
 328 260 l 1,6,7
 322 295 322 295 315 327.5 c 128,-1,8
 308 360 308 360 300.5 392.5 c 128,-1,9
 293 425 293 425 284 458.5 c 128,-1,10
 275 492 275 492 264 529 c 1,0,1
381 0 m 1,11,-1
 350 152 l 1,12,-1
 175 152 l 1,13,-1
 145 0 l 1,14,-1
 10 0 l 1,15,16
 57 194 57 194 104.5 353.5 c 128,-1,17
 152 513 152 513 196 656 c 1,18,-1
 338 656 l 1,19,20
 385 512 385 512 431 350.5 c 128,-1,21
 477 189 477 189 520 0 c 1,22,-1
 381 0 l 1,11,-1
381 780 m 1,23,-1
 196 691 l 1,24,-1
 148 762 l 1,25,-1
 316 880 l 1,26,-1
 381 780 l 1,23,-1
EndSplineSet
EndChar

StartChar: Acircumflex
Encoding: 194 194 157
Width: 500
Flags: W
LayerCount: 2
Fore
SplineSet
264 529 m 1,0,1
 253 492 253 492 244 458.5 c 128,-1,2
 235 425 235 425 227 392.5 c 128,-1,3
 219 360 219 360 212.5 327.5 c 128,-1,4
 206 295 206 295 199 260 c 1,5,-1
 328 260 l 1,6,7
 322 295 322 295 315 327.5 c 128,-1,8
 308 360 308 360 300.5 392.5 c 128,-1,9
 293 425 293 425 284 458.5 c 128,-1,10
 275 492 275 492 264 529 c 1,0,1
381 0 m 1,11,-1
 350 152 l 1,12,-1
 175 152 l 1,13,-1
 145 0 l 1,14,-1
 10 0 l 1,15,16
 57 194 57 194 104.5 353.5 c 128,-1,17
 152 513 152 513 196 656 c 1,18,-1
 338 656 l 1,19,20
 385 512 385 512 431 350.5 c 128,-1,21
 477 189 477 189 520 0 c 1,22,-1
 381 0 l 1,11,-1
413 750 m 1,23,-1
 361 688 l 1,24,-1
 267 761 l 1,25,-1
 173 688 l 1,26,-1
 119 750 l 1,27,-1
 267 880 l 1,28,-1
 413 750 l 1,23,-1
EndSplineSet
EndChar

StartChar: Atilde
Encoding: 195 195 158
Width: 500
Flags: W
LayerCount: 2
Fore
SplineSet
264 529 m 1,0,1
 253 492 253 492 244 458.5 c 128,-1,2
 235 425 235 425 227 392.5 c 128,-1,3
 219 360 219 360 212.5 327.5 c 128,-1,4
 206 295 206 295 199 260 c 1,5,-1
 328 260 l 1,6,7
 322 295 322 295 315 327.5 c 128,-1,8
 308 360 308 360 300.5 392.5 c 128,-1,9
 293 425 293 425 284 458.5 c 128,-1,10
 275 492 275 492 264 529 c 1,0,1
381 0 m 1,11,-1
 350 152 l 1,12,-1
 175 152 l 1,13,-1
 145 0 l 1,14,-1
 10 0 l 1,15,16
 57 194 57 194 104.5 353.5 c 128,-1,17
 152 513 152 513 196 656 c 1,18,-1
 338 656 l 1,19,20
 385 512 385 512 431 350.5 c 128,-1,21
 477 189 477 189 520 0 c 1,22,-1
 381 0 l 1,11,-1
438 818 m 1,23,24
 433 803 433 803 422.5 787 c 128,-1,25
 412 771 412 771 398 756 c 128,-1,26
 384 741 384 741 366 731.5 c 128,-1,27
 348 722 348 722 326 722 c 0,28,29
 309 722 309 722 295 727 c 128,-1,30
 281 732 281 732 266.5 738 c 128,-1,31
 252 744 252 744 238 749.5 c 128,-1,32
 224 755 224 755 208 755 c 0,33,34
 190 755 190 755 177.5 742.5 c 128,-1,35
 165 730 165 730 157 714 c 1,36,-1
 94 756 l 1,37,38
 99 771 99 771 109.5 788 c 128,-1,39
 120 805 120 805 134 819.5 c 128,-1,40
 148 834 148 834 166 843.5 c 128,-1,41
 184 853 184 853 207 853 c 0,42,43
 224 853 224 853 238 848 c 128,-1,44
 252 843 252 843 266.5 837 c 128,-1,45
 281 831 281 831 294.5 825.5 c 128,-1,46
 308 820 308 820 324 820 c 0,47,48
 342 820 342 820 355 832 c 128,-1,49
 368 844 368 844 375 860 c 1,50,-1
 438 818 l 1,23,24
EndSplineSet
EndChar

StartChar: Adieresis
Encoding: 196 196 159
Width: 500
Flags: W
LayerCount: 2
Fore
SplineSet
264 529 m 1,0,1
 253 492 253 492 244 458.5 c 128,-1,2
 235 425 235 425 227 392.5 c 128,-1,3
 219 360 219 360 212.5 327.5 c 128,-1,4
 206 295 206 295 199 260 c 1,5,-1
 328 260 l 1,6,7
 322 295 322 295 315 327.5 c 128,-1,8
 308 360 308 360 300.5 392.5 c 128,-1,9
 293 425 293 425 284 458.5 c 128,-1,10
 275 492 275 492 264 529 c 1,0,1
381 0 m 1,11,-1
 350 152 l 1,12,-1
 175 152 l 1,13,-1
 145 0 l 1,14,-1
 10 0 l 1,15,16
 57 194 57 194 104.5 353.5 c 128,-1,17
 152 513 152 513 196 656 c 1,18,-1
 338 656 l 1,19,20
 385 512 385 512 431 350.5 c 128,-1,21
 477 189 477 189 520 0 c 1,22,-1
 381 0 l 1,11,-1
372 718 m 128,-1,24
 342 718 342 718 320.5 736.5 c 128,-1,25
 299 755 299 755 299 789 c 128,-1,26
 299 823 299 823 320.5 842 c 128,-1,27
 342 861 342 861 372 861 c 128,-1,28
 402 861 402 861 423.5 842 c 128,-1,29
 445 823 445 823 445 789 c 128,-1,30
 445 755 445 755 423.5 736.5 c 128,-1,23
 402 718 402 718 372 718 c 128,-1,24
161 718 m 0,31,32
 131 718 131 718 109.5 736.5 c 128,-1,33
 88 755 88 755 88 789 c 128,-1,34
 88 823 88 823 109.5 842 c 128,-1,35
 131 861 131 861 161 861 c 0,36,37
 190 861 190 861 212 842 c 128,-1,38
 234 823 234 823 234 789 c 128,-1,39
 234 755 234 755 212 736.5 c 128,-1,40
 190 718 190 718 161 718 c 0,31,32
EndSplineSet
EndChar

StartChar: Aring
Encoding: 197 197 160
Width: 500
Flags: W
LayerCount: 2
Fore
SplineSet
307 726 m 128,-1,1
 307 748 307 748 294.5 759.5 c 128,-1,2
 282 771 282 771 264 771 c 0,3,4
 248 771 248 771 235 759.5 c 128,-1,5
 222 748 222 748 222 726 c 128,-1,6
 222 704 222 704 235 693 c 128,-1,7
 248 682 248 682 264 682 c 0,8,9
 282 682 282 682 294.5 693 c 128,-1,0
 307 704 307 704 307 726 c 128,-1,1
264 529 m 1,10,11
 253 492 253 492 244 458.5 c 128,-1,12
 235 425 235 425 227 392.5 c 128,-1,13
 219 360 219 360 212.5 327.5 c 128,-1,14
 206 295 206 295 199 260 c 1,15,-1
 328 260 l 1,16,17
 322 295 322 295 315 327.5 c 128,-1,18
 308 360 308 360 300.5 392.5 c 128,-1,19
 293 425 293 425 284 458.5 c 128,-1,20
 275 492 275 492 264 529 c 1,10,11
376 726 m 0,21,22
 376 698 376 698 366.5 678 c 128,-1,23
 357 658 357 658 341 643 c 1,24,25
 387 501 387 501 432.5 342.5 c 128,-1,26
 478 184 478 184 520 0 c 1,27,-1
 381 0 l 1,28,-1
 350 152 l 1,29,-1
 175 152 l 1,30,-1
 145 0 l 1,31,-1
 10 0 l 1,32,33
 56 189 56 189 101.5 345 c 128,-1,34
 147 501 147 501 191 641 c 1,35,36
 174 655 174 655 164 676 c 128,-1,37
 154 697 154 697 154 726 c 0,38,39
 154 752 154 752 163 773 c 128,-1,40
 172 794 172 794 187 808 c 128,-1,41
 202 822 202 822 222.5 828.5 c 128,-1,42
 243 835 243 835 264 835 c 0,43,44
 310 835 310 835 343 807.5 c 128,-1,45
 376 780 376 780 376 726 c 0,21,22
EndSplineSet
EndChar

StartChar: AE
Encoding: 198 198 161
Width: 500
Flags: W
LayerCount: 2
Fore
SplineSet
270 568 m 1,0,1
 252 495 252 495 234 421.5 c 128,-1,2
 216 348 216 348 197 260 c 1,3,-1
 270 260 l 1,4,-1
 270 568 l 1,0,1
270 152 m 1,5,-1
 174 152 l 1,6,-1
 145 0 l 1,7,-1
 10 0 l 1,8,9
 38 112 38 112 61 197.5 c 128,-1,10
 84 283 84 283 107 357 c 128,-1,11
 130 431 130 431 154.5 501.5 c 128,-1,12
 179 572 179 572 210 656 c 1,13,-1
 507 656 l 1,14,-1
 507 548 l 1,15,-1
 389 548 l 1,16,-1
 389 402 l 1,17,-1
 482 402 l 1,18,-1
 482 294 l 1,19,-1
 389 294 l 1,20,-1
 389 108 l 1,21,-1
 520 108 l 1,22,-1
 520 0 l 1,23,-1
 270 0 l 1,24,-1
 270 152 l 1,5,-1
EndSplineSet
EndChar

StartChar: Ccedilla
Encoding: 199 199 162
Width: 500
Flags: W
LayerCount: 2
Fore
SplineSet
318 -25 m 1,0,1
 353 -36 353 -36 367 -56.5 c 128,-1,2
 381 -77 381 -77 381 -96 c 0,3,4
 381 -120 381 -120 369.5 -136.5 c 128,-1,5
 358 -153 358 -153 340.5 -162.5 c 128,-1,6
 323 -172 323 -172 300 -176 c 128,-1,7
 277 -180 277 -180 253 -180 c 0,8,9
 205 -180 205 -180 169 -169 c 1,10,-1
 182 -102 l 1,11,12
 188 -104 188 -104 206.5 -107.5 c 128,-1,13
 225 -111 225 -111 242 -111 c 0,14,15
 285 -111 285 -111 285 -85 c 0,16,17
 285 -65 285 -65 247 -52 c 2,18,-1
 226 -46 l 1,19,20
 228 -36 228 -36 232 -25.5 c 128,-1,21
 236 -15 236 -15 241 -6 c 1,22,23
 138 16 138 16 83.5 101.5 c 128,-1,24
 29 187 29 187 29 329 c 0,25,26
 29 411 29 411 51 474 c 128,-1,27
 73 537 73 537 113 581 c 128,-1,28
 153 625 153 625 207.5 648 c 128,-1,29
 262 671 262 671 326 671 c 0,30,31
 361 671 361 671 389.5 665 c 128,-1,32
 418 659 418 659 439 651.5 c 128,-1,33
 460 644 460 644 474.5 636 c 128,-1,34
 489 628 489 628 496 623 c 1,35,-1
 462 519 l 1,36,37
 438 535 438 535 403.5 546.5 c 128,-1,38
 369 558 369 558 324 558 c 0,39,40
 293 558 293 558 264 546.5 c 128,-1,41
 235 535 235 535 212.5 509 c 128,-1,42
 190 483 190 483 175.5 439.5 c 128,-1,43
 161 396 161 396 161 332 c 0,44,45
 161 220 161 220 199.5 160 c 128,-1,46
 238 100 238 100 326 100 c 0,47,48
 377 100 377 100 410.5 111.5 c 128,-1,49
 444 123 444 123 464 135 c 1,50,-1
 497 32 l 1,51,52
 471 16 471 16 426 2 c 128,-1,53
 381 -12 381 -12 322 -14 c 1,54,-1
 318 -25 l 1,0,1
EndSplineSet
EndChar

StartChar: Egrave
Encoding: 200 200 163
Width: 500
Flags: W
LayerCount: 2
Fore
SplineSet
67 0 m 1,0,-1
 67 656 l 1,1,-1
 464 656 l 1,2,-1
 464 548 l 1,3,-1
 197 548 l 1,4,-1
 197 401 l 1,5,-1
 429 401 l 1,6,-1
 429 293 l 1,7,-1
 197 293 l 1,8,-1
 197 108 l 1,9,-1
 488 108 l 1,10,-1
 488 0 l 1,11,-1
 67 0 l 1,0,-1
209 880 m 1,12,-1
 376 762 l 1,13,-1
 329 691 l 1,14,-1
 144 780 l 1,15,-1
 209 880 l 1,12,-1
EndSplineSet
EndChar

StartChar: Eacute
Encoding: 201 201 164
Width: 500
Flags: W
LayerCount: 2
Fore
SplineSet
67 0 m 1,0,-1
 67 656 l 1,1,-1
 464 656 l 1,2,-1
 464 548 l 1,3,-1
 197 548 l 1,4,-1
 197 401 l 1,5,-1
 429 401 l 1,6,-1
 429 293 l 1,7,-1
 197 293 l 1,8,-1
 197 108 l 1,9,-1
 488 108 l 1,10,-1
 488 0 l 1,11,-1
 67 0 l 1,0,-1
381 780 m 1,12,-1
 196 691 l 1,13,-1
 148 762 l 1,14,-1
 316 880 l 1,15,-1
 381 780 l 1,12,-1
EndSplineSet
EndChar

StartChar: Ecircumflex
Encoding: 202 202 165
Width: 500
Flags: W
LayerCount: 2
Fore
SplineSet
67 0 m 1,0,-1
 67 656 l 1,1,-1
 464 656 l 1,2,-1
 464 548 l 1,3,-1
 197 548 l 1,4,-1
 197 401 l 1,5,-1
 429 401 l 1,6,-1
 429 293 l 1,7,-1
 197 293 l 1,8,-1
 197 108 l 1,9,-1
 488 108 l 1,10,-1
 488 0 l 1,11,-1
 67 0 l 1,0,-1
413 750 m 1,12,-1
 361 688 l 1,13,-1
 267 761 l 1,14,-1
 173 688 l 1,15,-1
 119 750 l 1,16,-1
 267 880 l 1,17,-1
 413 750 l 1,12,-1
EndSplineSet
EndChar

StartChar: Edieresis
Encoding: 203 203 166
Width: 500
Flags: W
LayerCount: 2
Fore
SplineSet
67 0 m 1,0,-1
 67 656 l 1,1,-1
 464 656 l 1,2,-1
 464 548 l 1,3,-1
 197 548 l 1,4,-1
 197 401 l 1,5,-1
 429 401 l 1,6,-1
 429 293 l 1,7,-1
 197 293 l 1,8,-1
 197 108 l 1,9,-1
 488 108 l 1,10,-1
 488 0 l 1,11,-1
 67 0 l 1,0,-1
372 718 m 128,-1,13
 342 718 342 718 320.5 736.5 c 128,-1,14
 299 755 299 755 299 789 c 128,-1,15
 299 823 299 823 320.5 842 c 128,-1,16
 342 861 342 861 372 861 c 128,-1,17
 402 861 402 861 423.5 842 c 128,-1,18
 445 823 445 823 445 789 c 128,-1,19
 445 755 445 755 423.5 736.5 c 128,-1,12
 402 718 402 718 372 718 c 128,-1,13
161 718 m 0,20,21
 131 718 131 718 109.5 736.5 c 128,-1,22
 88 755 88 755 88 789 c 128,-1,23
 88 823 88 823 109.5 842 c 128,-1,24
 131 861 131 861 161 861 c 0,25,26
 190 861 190 861 212 842 c 128,-1,27
 234 823 234 823 234 789 c 128,-1,28
 234 755 234 755 212 736.5 c 128,-1,29
 190 718 190 718 161 718 c 0,20,21
EndSplineSet
EndChar

StartChar: Igrave
Encoding: 204 204 167
Width: 500
Flags: W
LayerCount: 2
Fore
SplineSet
57 0 m 1,0,-1
 57 108 l 1,1,-1
 200 108 l 1,2,-1
 200 548 l 1,3,-1
 57 548 l 1,4,-1
 57 656 l 1,5,-1
 474 656 l 1,6,-1
 474 548 l 1,7,-1
 332 548 l 1,8,-1
 332 108 l 1,9,-1
 474 108 l 1,10,-1
 474 0 l 1,11,-1
 57 0 l 1,0,-1
209 880 m 1,12,-1
 376 762 l 1,13,-1
 329 691 l 1,14,-1
 144 780 l 1,15,-1
 209 880 l 1,12,-1
EndSplineSet
EndChar

StartChar: Iacute
Encoding: 205 205 168
Width: 500
Flags: W
LayerCount: 2
Fore
SplineSet
57 0 m 1,0,-1
 57 108 l 1,1,-1
 200 108 l 1,2,-1
 200 548 l 1,3,-1
 57 548 l 1,4,-1
 57 656 l 1,5,-1
 474 656 l 1,6,-1
 474 548 l 1,7,-1
 332 548 l 1,8,-1
 332 108 l 1,9,-1
 474 108 l 1,10,-1
 474 0 l 1,11,-1
 57 0 l 1,0,-1
381 780 m 1,12,-1
 196 691 l 1,13,-1
 148 762 l 1,14,-1
 316 880 l 1,15,-1
 381 780 l 1,12,-1
EndSplineSet
EndChar

StartChar: Icircumflex
Encoding: 206 206 169
Width: 500
Flags: W
LayerCount: 2
Fore
SplineSet
57 0 m 1,0,-1
 57 108 l 1,1,-1
 200 108 l 1,2,-1
 200 548 l 1,3,-1
 57 548 l 1,4,-1
 57 656 l 1,5,-1
 474 656 l 1,6,-1
 474 548 l 1,7,-1
 332 548 l 1,8,-1
 332 108 l 1,9,-1
 474 108 l 1,10,-1
 474 0 l 1,11,-1
 57 0 l 1,0,-1
413 750 m 1,12,-1
 361 688 l 1,13,-1
 267 761 l 1,14,-1
 173 688 l 1,15,-1
 119 750 l 1,16,-1
 267 880 l 1,17,-1
 413 750 l 1,12,-1
EndSplineSet
EndChar

StartChar: Idieresis
Encoding: 207 207 170
Width: 500
Flags: W
LayerCount: 2
Fore
SplineSet
57 0 m 1,0,-1
 57 108 l 1,1,-1
 200 108 l 1,2,-1
 200 548 l 1,3,-1
 57 548 l 1,4,-1
 57 656 l 1,5,-1
 474 656 l 1,6,-1
 474 548 l 1,7,-1
 332 548 l 1,8,-1
 332 108 l 1,9,-1
 474 108 l 1,10,-1
 474 0 l 1,11,-1
 57 0 l 1,0,-1
372 718 m 128,-1,13
 342 718 342 718 320.5 736.5 c 128,-1,14
 299 755 299 755 299 789 c 128,-1,15
 299 823 299 823 320.5 842 c 128,-1,16
 342 861 342 861 372 861 c 128,-1,17
 402 861 402 861 423.5 842 c 128,-1,18
 445 823 445 823 445 789 c 128,-1,19
 445 755 445 755 423.5 736.5 c 128,-1,12
 402 718 402 718 372 718 c 128,-1,13
161 718 m 0,20,21
 131 718 131 718 109.5 736.5 c 128,-1,22
 88 755 88 755 88 789 c 128,-1,23
 88 823 88 823 109.5 842 c 128,-1,24
 131 861 131 861 161 861 c 0,25,26
 190 861 190 861 212 842 c 128,-1,27
 234 823 234 823 234 789 c 128,-1,28
 234 755 234 755 212 736.5 c 128,-1,29
 190 718 190 718 161 718 c 0,20,21
EndSplineSet
EndChar

StartChar: Eth
Encoding: 208 208 171
Width: 500
Flags: W
LayerCount: 2
Fore
SplineSet
207 394 m 1,0,-1
 287 394 l 1,1,-1
 287 286 l 1,2,-1
 207 286 l 1,3,-1
 207 106 l 1,4,5
 211 105 211 105 215.5 105 c 128,-1,6
 220 105 220 105 226 105 c 0,7,8
 266 105 266 105 293.5 122 c 128,-1,9
 321 139 321 139 337.5 168.5 c 128,-1,10
 354 198 354 198 361.5 239 c 128,-1,11
 369 280 369 280 369 329 c 0,12,13
 369 371 369 371 363.5 411.5 c 128,-1,14
 358 452 358 452 344 482.5 c 128,-1,15
 330 513 330 513 304.5 531.5 c 128,-1,16
 279 550 279 550 240 550 c 0,17,18
 232 550 232 550 223 549.5 c 128,-1,19
 214 549 214 549 207 547 c 1,20,-1
 207 394 l 1,0,-1
501 329 m 0,21,22
 501 238 501 238 479.5 173.5 c 128,-1,23
 458 109 458 109 419.5 69 c 128,-1,24
 381 29 381 29 328 10.5 c 128,-1,25
 275 -8 275 -8 211 -8 c 0,26,27
 177 -8 177 -8 144.5 -4.5 c 128,-1,28
 112 -1 112 -1 75 7 c 1,29,-1
 75 286 l 1,30,-1
 19 286 l 1,31,-1
 19 394 l 1,32,-1
 75 394 l 1,33,-1
 75 648 l 1,34,35
 120 658 120 658 157 661 c 128,-1,36
 194 664 194 664 228 664 c 0,37,38
 289 664 289 664 340 644.5 c 128,-1,39
 391 625 391 625 426.5 584.5 c 128,-1,40
 462 544 462 544 481.5 481 c 128,-1,41
 501 418 501 418 501 329 c 0,21,22
EndSplineSet
EndChar

StartChar: Ntilde
Encoding: 209 209 172
Width: 500
Flags: W
LayerCount: 2
Fore
SplineSet
376 0 m 1,0,1
 331 109 331 109 279 217.5 c 128,-1,2
 227 326 227 326 166 436 c 1,3,-1
 166 0 l 1,4,-1
 49 0 l 1,5,-1
 49 656 l 1,6,-1
 154 656 l 1,7,8
 184 609 184 609 213.5 554.5 c 128,-1,9
 243 500 243 500 271 446 c 128,-1,10
 299 392 299 392 323 341 c 128,-1,11
 347 290 347 290 364 252 c 1,12,-1
 364 656 l 1,13,-1
 481 656 l 1,14,-1
 481 0 l 1,15,-1
 376 0 l 1,0,1
438 818 m 1,16,17
 433 803 433 803 422.5 787 c 128,-1,18
 412 771 412 771 398 756 c 128,-1,19
 384 741 384 741 366 731.5 c 128,-1,20
 348 722 348 722 326 722 c 0,21,22
 309 722 309 722 295 727 c 128,-1,23
 281 732 281 732 266.5 738 c 128,-1,24
 252 744 252 744 238 749.5 c 128,-1,25
 224 755 224 755 208 755 c 0,26,27
 190 755 190 755 177.5 742.5 c 128,-1,28
 165 730 165 730 157 714 c 1,29,-1
 94 756 l 1,30,31
 99 771 99 771 109.5 788 c 128,-1,32
 120 805 120 805 134 819.5 c 128,-1,33
 148 834 148 834 166 843.5 c 128,-1,34
 184 853 184 853 207 853 c 0,35,36
 224 853 224 853 238 848 c 128,-1,37
 252 843 252 843 266.5 837 c 128,-1,38
 281 831 281 831 294.5 825.5 c 128,-1,39
 308 820 308 820 324 820 c 0,40,41
 342 820 342 820 355 832 c 128,-1,42
 368 844 368 844 375 860 c 1,43,-1
 438 818 l 1,16,17
EndSplineSet
EndChar

StartChar: Ograve
Encoding: 210 210 173
Width: 500
Flags: W
LayerCount: 2
Fore
SplineSet
29 328.5 m 128,-1,1
 29 498 29 498 91.5 584.5 c 128,-1,2
 154 671 154 671 265 671 c 0,3,4
 381 671 381 671 441 584.5 c 128,-1,5
 501 498 501 498 501 328.5 c 128,-1,6
 501 159 501 159 439.5 72.5 c 128,-1,7
 378 -14 378 -14 266 -14 c 0,8,9
 150 -14 150 -14 89.5 72.5 c 128,-1,0
 29 159 29 159 29 328.5 c 128,-1,1
161 328.5 m 128,-1,11
 161 281 161 281 165 239 c 128,-1,12
 169 197 169 197 180 166.5 c 128,-1,13
 191 136 191 136 211 118 c 128,-1,14
 231 100 231 100 265 100 c 0,15,16
 298 100 298 100 318.5 118 c 128,-1,17
 339 136 339 136 350 167 c 128,-1,18
 361 198 361 198 365 239.5 c 128,-1,19
 369 281 369 281 369 328.5 c 128,-1,20
 369 376 369 376 365 418 c 128,-1,21
 361 460 361 460 350 491 c 128,-1,22
 339 522 339 522 319 540 c 128,-1,23
 299 558 299 558 265 558 c 128,-1,24
 231 558 231 558 211 540 c 128,-1,25
 191 522 191 522 180 490.5 c 128,-1,26
 169 459 169 459 165 417.5 c 128,-1,10
 161 376 161 376 161 328.5 c 128,-1,11
209 880 m 1,27,-1
 376 762 l 1,28,-1
 329 691 l 1,29,-1
 144 780 l 1,30,-1
 209 880 l 1,27,-1
EndSplineSet
EndChar

StartChar: Oacute
Encoding: 211 211 174
Width: 500
Flags: W
LayerCount: 2
Fore
SplineSet
29 328.5 m 128,-1,1
 29 498 29 498 91.5 584.5 c 128,-1,2
 154 671 154 671 265 671 c 0,3,4
 381 671 381 671 441 584.5 c 128,-1,5
 501 498 501 498 501 328.5 c 128,-1,6
 501 159 501 159 439.5 72.5 c 128,-1,7
 378 -14 378 -14 266 -14 c 0,8,9
 150 -14 150 -14 89.5 72.5 c 128,-1,0
 29 159 29 159 29 328.5 c 128,-1,1
161 328.5 m 128,-1,11
 161 281 161 281 165 239 c 128,-1,12
 169 197 169 197 180 166.5 c 128,-1,13
 191 136 191 136 211 118 c 128,-1,14
 231 100 231 100 265 100 c 0,15,16
 298 100 298 100 318.5 118 c 128,-1,17
 339 136 339 136 350 167 c 128,-1,18
 361 198 361 198 365 239.5 c 128,-1,19
 369 281 369 281 369 328.5 c 128,-1,20
 369 376 369 376 365 418 c 128,-1,21
 361 460 361 460 350 491 c 128,-1,22
 339 522 339 522 319 540 c 128,-1,23
 299 558 299 558 265 558 c 128,-1,24
 231 558 231 558 211 540 c 128,-1,25
 191 522 191 522 180 490.5 c 128,-1,26
 169 459 169 459 165 417.5 c 128,-1,10
 161 376 161 376 161 328.5 c 128,-1,11
381 780 m 1,27,-1
 196 691 l 1,28,-1
 148 762 l 1,29,-1
 316 880 l 1,30,-1
 381 780 l 1,27,-1
EndSplineSet
EndChar

StartChar: Ocircumflex
Encoding: 212 212 175
Width: 500
Flags: W
LayerCount: 2
Fore
SplineSet
29 328.5 m 128,-1,1
 29 498 29 498 91.5 584.5 c 128,-1,2
 154 671 154 671 265 671 c 0,3,4
 381 671 381 671 441 584.5 c 128,-1,5
 501 498 501 498 501 328.5 c 128,-1,6
 501 159 501 159 439.5 72.5 c 128,-1,7
 378 -14 378 -14 266 -14 c 0,8,9
 150 -14 150 -14 89.5 72.5 c 128,-1,0
 29 159 29 159 29 328.5 c 128,-1,1
161 328.5 m 128,-1,11
 161 281 161 281 165 239 c 128,-1,12
 169 197 169 197 180 166.5 c 128,-1,13
 191 136 191 136 211 118 c 128,-1,14
 231 100 231 100 265 100 c 0,15,16
 298 100 298 100 318.5 118 c 128,-1,17
 339 136 339 136 350 167 c 128,-1,18
 361 198 361 198 365 239.5 c 128,-1,19
 369 281 369 281 369 328.5 c 128,-1,20
 369 376 369 376 365 418 c 128,-1,21
 361 460 361 460 350 491 c 128,-1,22
 339 522 339 522 319 540 c 128,-1,23
 299 558 299 558 265 558 c 128,-1,24
 231 558 231 558 211 540 c 128,-1,25
 191 522 191 522 180 490.5 c 128,-1,26
 169 459 169 459 165 417.5 c 128,-1,10
 161 376 161 376 161 328.5 c 128,-1,11
413 750 m 1,27,-1
 361 688 l 1,28,-1
 267 761 l 1,29,-1
 173 688 l 1,30,-1
 119 750 l 1,31,-1
 267 880 l 1,32,-1
 413 750 l 1,27,-1
EndSplineSet
EndChar

StartChar: Otilde
Encoding: 213 213 176
Width: 500
Flags: W
LayerCount: 2
Fore
SplineSet
29 328.5 m 128,-1,1
 29 498 29 498 91.5 584.5 c 128,-1,2
 154 671 154 671 265 671 c 0,3,4
 381 671 381 671 441 584.5 c 128,-1,5
 501 498 501 498 501 328.5 c 128,-1,6
 501 159 501 159 439.5 72.5 c 128,-1,7
 378 -14 378 -14 266 -14 c 0,8,9
 150 -14 150 -14 89.5 72.5 c 128,-1,0
 29 159 29 159 29 328.5 c 128,-1,1
161 328.5 m 128,-1,11
 161 281 161 281 165 239 c 128,-1,12
 169 197 169 197 180 166.5 c 128,-1,13
 191 136 191 136 211 118 c 128,-1,14
 231 100 231 100 265 100 c 0,15,16
 298 100 298 100 318.5 118 c 128,-1,17
 339 136 339 136 350 167 c 128,-1,18
 361 198 361 198 365 239.5 c 128,-1,19
 369 281 369 281 369 328.5 c 128,-1,20
 369 376 369 376 365 418 c 128,-1,21
 361 460 361 460 350 491 c 128,-1,22
 339 522 339 522 319 540 c 128,-1,23
 299 558 299 558 265 558 c 128,-1,24
 231 558 231 558 211 540 c 128,-1,25
 191 522 191 522 180 490.5 c 128,-1,26
 169 459 169 459 165 417.5 c 128,-1,10
 161 376 161 376 161 328.5 c 128,-1,11
438 818 m 1,27,28
 433 803 433 803 422.5 787 c 128,-1,29
 412 771 412 771 398 756 c 128,-1,30
 384 741 384 741 366 731.5 c 128,-1,31
 348 722 348 722 326 722 c 0,32,33
 309 722 309 722 295 727 c 128,-1,34
 281 732 281 732 266.5 738 c 128,-1,35
 252 744 252 744 238 749.5 c 128,-1,36
 224 755 224 755 208 755 c 0,37,38
 190 755 190 755 177.5 742.5 c 128,-1,39
 165 730 165 730 157 714 c 1,40,-1
 94 756 l 1,41,42
 99 771 99 771 109.5 788 c 128,-1,43
 120 805 120 805 134 819.5 c 128,-1,44
 148 834 148 834 166 843.5 c 128,-1,45
 184 853 184 853 207 853 c 0,46,47
 224 853 224 853 238 848 c 128,-1,48
 252 843 252 843 266.5 837 c 128,-1,49
 281 831 281 831 294.5 825.5 c 128,-1,50
 308 820 308 820 324 820 c 0,51,52
 342 820 342 820 355 832 c 128,-1,53
 368 844 368 844 375 860 c 1,54,-1
 438 818 l 1,27,28
EndSplineSet
EndChar

StartChar: Odieresis
Encoding: 214 214 177
Width: 500
Flags: W
LayerCount: 2
Fore
SplineSet
29 328.5 m 128,-1,1
 29 498 29 498 91.5 584.5 c 128,-1,2
 154 671 154 671 265 671 c 0,3,4
 381 671 381 671 441 584.5 c 128,-1,5
 501 498 501 498 501 328.5 c 128,-1,6
 501 159 501 159 439.5 72.5 c 128,-1,7
 378 -14 378 -14 266 -14 c 0,8,9
 150 -14 150 -14 89.5 72.5 c 128,-1,0
 29 159 29 159 29 328.5 c 128,-1,1
161 328.5 m 128,-1,11
 161 281 161 281 165 239 c 128,-1,12
 169 197 169 197 180 166.5 c 128,-1,13
 191 136 191 136 211 118 c 128,-1,14
 231 100 231 100 265 100 c 0,15,16
 298 100 298 100 318.5 118 c 128,-1,17
 339 136 339 136 350 167 c 128,-1,18
 361 198 361 198 365 239.5 c 128,-1,19
 369 281 369 281 369 328.5 c 128,-1,20
 369 376 369 376 365 418 c 128,-1,21
 361 460 361 460 350 491 c 128,-1,22
 339 522 339 522 319 540 c 128,-1,23
 299 558 299 558 265 558 c 128,-1,24
 231 558 231 558 211 540 c 128,-1,25
 191 522 191 522 180 490.5 c 128,-1,26
 169 459 169 459 165 417.5 c 128,-1,10
 161 376 161 376 161 328.5 c 128,-1,11
372 718 m 128,-1,28
 342 718 342 718 320.5 736.5 c 128,-1,29
 299 755 299 755 299 789 c 128,-1,30
 299 823 299 823 320.5 842 c 128,-1,31
 342 861 342 861 372 861 c 128,-1,32
 402 861 402 861 423.5 842 c 128,-1,33
 445 823 445 823 445 789 c 128,-1,34
 445 755 445 755 423.5 736.5 c 128,-1,27
 402 718 402 718 372 718 c 128,-1,28
161 718 m 0,35,36
 131 718 131 718 109.5 736.5 c 128,-1,37
 88 755 88 755 88 789 c 128,-1,38
 88 823 88 823 109.5 842 c 128,-1,39
 131 861 131 861 161 861 c 0,40,41
 190 861 190 861 212 842 c 128,-1,42
 234 823 234 823 234 789 c 128,-1,43
 234 755 234 755 212 736.5 c 128,-1,44
 190 718 190 718 161 718 c 0,35,36
EndSplineSet
EndChar

StartChar: multiply
Encoding: 215 215 178
Width: 500
Flags: W
LayerCount: 2
Fore
SplineSet
402 487 m 1,0,-1
 476 411 l 1,1,-1
 343 280 l 1,2,-1
 477 147 l 1,3,-1
 402 74 l 1,4,-1
 269 208 l 1,5,-1
 137 74 l 1,6,-1
 64 146 l 1,7,-1
 196 279 l 1,8,-1
 64 411 l 1,9,-1
 137 488 l 1,10,-1
 269 355 l 1,11,-1
 402 487 l 1,0,-1
EndSplineSet
EndChar

StartChar: Oslash
Encoding: 216 216 179
Width: 500
Flags: W
LayerCount: 2
Fore
SplineSet
161 326 m 0,0,1
 161 275 161 275 164 234 c 1,2,-1
 314 542 l 1,3,4
 294 556 294 556 265 555 c 0,5,6
 231 555 231 555 211 537 c 128,-1,7
 191 519 191 519 180 488 c 128,-1,8
 169 457 169 457 165 415.5 c 128,-1,9
 161 374 161 374 161 326 c 0,0,1
369 326 m 0,10,11
 369 354 369 354 367.5 380 c 128,-1,12
 366 406 366 406 364 429 c 1,13,-1
 210 116 l 1,14,15
 233 98 233 98 265 98 c 0,16,17
 298 98 298 98 318.5 116 c 128,-1,18
 339 134 339 134 350 165 c 128,-1,19
 361 196 361 196 365 237 c 128,-1,20
 369 278 369 278 369 326 c 0,10,11
29 326 m 0,21,22
 29 496 29 496 91.5 582.5 c 128,-1,23
 154 669 154 669 265 669 c 0,24,25
 323 669 323 669 365 649 c 1,26,-1
 389 699 l 1,27,-1
 474 656 l 1,28,-1
 438 585 l 1,29,30
 502 497 502 497 501 326 c 0,31,32
 501 156 501 156 439.5 70 c 128,-1,33
 378 -16 378 -16 266 -16 c 0,34,35
 206 -16 206 -16 159 8 c 1,36,-1
 135 -42 l 1,37,-1
 51 0 l 1,38,-1
 87 75 l 1,39,40
 29 162 29 162 29 326 c 0,21,22
EndSplineSet
EndChar

StartChar: Ugrave
Encoding: 217 217 180
Width: 500
Flags: W
LayerCount: 2
Fore
SplineSet
263 -14 m 0,0,1
 199 -14 199 -14 156 3.5 c 128,-1,2
 113 21 113 21 88 54 c 128,-1,3
 63 87 63 87 52 133.5 c 128,-1,4
 41 180 41 180 41 237 c 2,5,-1
 41 656 l 1,6,-1
 173 656 l 1,7,-1
 173 246 l 2,8,9
 173 205 173 205 177 176.5 c 128,-1,10
 181 148 181 148 191 131 c 128,-1,11
 201 114 201 114 219 107 c 128,-1,12
 237 100 237 100 265 100 c 128,-1,13
 293 100 293 100 311 107 c 128,-1,14
 329 114 329 114 339.5 131.5 c 128,-1,15
 350 149 350 149 354 177.5 c 128,-1,16
 358 206 358 206 358 247 c 2,17,-1
 358 656 l 1,18,-1
 489 656 l 1,19,-1
 489 237 l 2,20,21
 489 180 489 180 478 133.5 c 128,-1,22
 467 87 467 87 440.5 54 c 128,-1,23
 414 21 414 21 371 3.5 c 128,-1,24
 328 -14 328 -14 263 -14 c 0,0,1
199 880 m 1,25,-1
 367 762 l 1,26,-1
 319 691 l 1,27,-1
 135 780 l 1,28,-1
 199 880 l 1,25,-1
EndSplineSet
EndChar

StartChar: Uacute
Encoding: 218 218 181
Width: 500
Flags: W
LayerCount: 2
Fore
SplineSet
263 -14 m 0,0,1
 199 -14 199 -14 156 3.5 c 128,-1,2
 113 21 113 21 88 54 c 128,-1,3
 63 87 63 87 52 133.5 c 128,-1,4
 41 180 41 180 41 237 c 2,5,-1
 41 656 l 1,6,-1
 173 656 l 1,7,-1
 173 246 l 2,8,9
 173 205 173 205 177 176.5 c 128,-1,10
 181 148 181 148 191 131 c 128,-1,11
 201 114 201 114 219 107 c 128,-1,12
 237 100 237 100 265 100 c 128,-1,13
 293 100 293 100 311 107 c 128,-1,14
 329 114 329 114 339.5 131.5 c 128,-1,15
 350 149 350 149 354 177.5 c 128,-1,16
 358 206 358 206 358 247 c 2,17,-1
 358 656 l 1,18,-1
 489 656 l 1,19,-1
 489 237 l 2,20,21
 489 180 489 180 478 133.5 c 128,-1,22
 467 87 467 87 440.5 54 c 128,-1,23
 414 21 414 21 371 3.5 c 128,-1,24
 328 -14 328 -14 263 -14 c 0,0,1
398 780 m 1,25,-1
 213 691 l 1,26,-1
 165 762 l 1,27,-1
 333 880 l 1,28,-1
 398 780 l 1,25,-1
EndSplineSet
EndChar

StartChar: Ucircumflex
Encoding: 219 219 182
Width: 500
Flags: W
LayerCount: 2
Fore
SplineSet
263 -14 m 0,0,1
 199 -14 199 -14 156 3.5 c 128,-1,2
 113 21 113 21 88 54 c 128,-1,3
 63 87 63 87 52 133.5 c 128,-1,4
 41 180 41 180 41 237 c 2,5,-1
 41 656 l 1,6,-1
 173 656 l 1,7,-1
 173 246 l 2,8,9
 173 205 173 205 177 176.5 c 128,-1,10
 181 148 181 148 191 131 c 128,-1,11
 201 114 201 114 219 107 c 128,-1,12
 237 100 237 100 265 100 c 128,-1,13
 293 100 293 100 311 107 c 128,-1,14
 329 114 329 114 339.5 131.5 c 128,-1,15
 350 149 350 149 354 177.5 c 128,-1,16
 358 206 358 206 358 247 c 2,17,-1
 358 656 l 1,18,-1
 489 656 l 1,19,-1
 489 237 l 2,20,21
 489 180 489 180 478 133.5 c 128,-1,22
 467 87 467 87 440.5 54 c 128,-1,23
 414 21 414 21 371 3.5 c 128,-1,24
 328 -14 328 -14 263 -14 c 0,0,1
413 750 m 1,25,-1
 361 688 l 1,26,-1
 267 761 l 1,27,-1
 173 688 l 1,28,-1
 119 750 l 1,29,-1
 267 880 l 1,30,-1
 413 750 l 1,25,-1
EndSplineSet
EndChar

StartChar: Udieresis
Encoding: 220 220 183
Width: 500
Flags: W
LayerCount: 2
Fore
SplineSet
263 -14 m 0,0,1
 199 -14 199 -14 156 3.5 c 128,-1,2
 113 21 113 21 88 54 c 128,-1,3
 63 87 63 87 52 133.5 c 128,-1,4
 41 180 41 180 41 237 c 2,5,-1
 41 656 l 1,6,-1
 173 656 l 1,7,-1
 173 246 l 2,8,9
 173 205 173 205 177 176.5 c 128,-1,10
 181 148 181 148 191 131 c 128,-1,11
 201 114 201 114 219 107 c 128,-1,12
 237 100 237 100 265 100 c 128,-1,13
 293 100 293 100 311 107 c 128,-1,14
 329 114 329 114 339.5 131.5 c 128,-1,15
 350 149 350 149 354 177.5 c 128,-1,16
 358 206 358 206 358 247 c 2,17,-1
 358 656 l 1,18,-1
 489 656 l 1,19,-1
 489 237 l 2,20,21
 489 180 489 180 478 133.5 c 128,-1,22
 467 87 467 87 440.5 54 c 128,-1,23
 414 21 414 21 371 3.5 c 128,-1,24
 328 -14 328 -14 263 -14 c 0,0,1
372 718 m 128,-1,26
 342 718 342 718 320.5 736.5 c 128,-1,27
 299 755 299 755 299 789 c 128,-1,28
 299 823 299 823 320.5 842 c 128,-1,29
 342 861 342 861 372 861 c 128,-1,30
 402 861 402 861 423.5 842 c 128,-1,31
 445 823 445 823 445 789 c 128,-1,32
 445 755 445 755 423.5 736.5 c 128,-1,25
 402 718 402 718 372 718 c 128,-1,26
161 718 m 0,33,34
 131 718 131 718 109.5 736.5 c 128,-1,35
 88 755 88 755 88 789 c 128,-1,36
 88 823 88 823 109.5 842 c 128,-1,37
 131 861 131 861 161 861 c 0,38,39
 190 861 190 861 212 842 c 128,-1,40
 234 823 234 823 234 789 c 128,-1,41
 234 755 234 755 212 736.5 c 128,-1,42
 190 718 190 718 161 718 c 0,33,34
EndSplineSet
EndChar

StartChar: Yacute
Encoding: 221 221 184
Width: 500
Flags: W
LayerCount: 2
Fore
SplineSet
269 356 m 1,0,1
 281 380 281 380 296.5 417.5 c 128,-1,2
 312 455 312 455 327 496 c 128,-1,3
 342 537 342 537 356.5 579.5 c 128,-1,4
 371 622 371 622 383 656 c 1,5,-1
 517 656 l 1,6,7
 497 602 497 602 477 551 c 128,-1,8
 457 500 457 500 434.5 450.5 c 128,-1,9
 412 401 412 401 386.5 351.5 c 128,-1,10
 361 302 361 302 332 250 c 1,11,-1
 332 0 l 1,12,-1
 200 0 l 1,13,-1
 200 249 l 1,14,15
 142 352 142 352 98 450 c 128,-1,16
 54 548 54 548 14 656 c 1,17,-1
 154 656 l 1,18,19
 178 580 178 580 207.5 501 c 128,-1,20
 237 422 237 422 269 356 c 1,0,1
398 780 m 1,21,-1
 213 691 l 1,22,-1
 165 762 l 1,23,-1
 333 880 l 1,24,-1
 398 780 l 1,21,-1
EndSplineSet
EndChar

StartChar: Thorn
Encoding: 222 222 185
Width: 500
Flags: W
LayerCount: 2
Fore
SplineSet
252 449 m 0,0,1
 240 449 240 449 219.5 448.5 c 128,-1,2
 199 448 199 448 188 446 c 1,3,-1
 188 234 l 1,4,-1
 241 234 l 2,5,6
 304 234 304 234 335.5 263 c 128,-1,7
 367 292 367 292 367 344 c 0,8,9
 367 395 367 395 335.5 422 c 128,-1,10
 304 449 304 449 252 449 c 0,0,1
237 563 m 0,11,12
 363 563 363 563 431.5 509 c 128,-1,13
 500 455 500 455 500 343 c 0,14,15
 500 233 500 233 431.5 177 c 128,-1,16
 363 121 363 121 234 121 c 2,17,-1
 188 121 l 1,18,-1
 188 0 l 1,19,-1
 57 0 l 1,20,-1
 57 656 l 1,21,-1
 188 656 l 1,22,-1
 188 562 l 1,23,24
 202 563 202 563 213.5 563 c 128,-1,25
 225 563 225 563 237 563 c 0,11,12
EndSplineSet
EndChar

StartChar: germandbls
Encoding: 223 223 186
Width: 500
Flags: W
LayerCount: 2
Fore
SplineSet
432 578 m 0,0,1
 432 532 432 532 421 506 c 128,-1,2
 410 480 410 480 397.5 461.5 c 128,-1,3
 385 443 385 443 374 425 c 128,-1,4
 363 407 363 407 363 376 c 0,5,6
 363 354 363 354 374.5 338.5 c 128,-1,7
 386 323 386 323 404 310 c 128,-1,8
 422 297 422 297 442 284 c 128,-1,9
 462 271 462 271 480 254.5 c 128,-1,10
 498 238 498 238 510 214.5 c 128,-1,11
 522 191 522 191 522 157 c 0,12,13
 522 75 522 75 481 31.5 c 128,-1,14
 440 -12 440 -12 340 -12 c 0,15,16
 290 -12 290 -12 261 -3 c 128,-1,17
 232 6 232 6 214 15 c 1,18,-1
 237 123 l 1,19,20
 255 115 255 115 282.5 107 c 128,-1,21
 310 99 310 99 332 99 c 0,22,23
 361 99 361 99 375 114 c 128,-1,24
 389 129 389 129 389 154.5 c 128,-1,25
 389 180 389 180 366 199 c 128,-1,26
 343 218 343 218 307 236 c 0,27,28
 259 261 259 261 246.5 292.5 c 128,-1,29
 234 324 234 324 234 358 c 0,30,31
 234 395 234 395 246 418.5 c 128,-1,32
 258 442 258 442 271.5 461.5 c 128,-1,33
 285 481 285 481 296.5 503.5 c 128,-1,34
 308 526 308 526 308 562 c 0,35,36
 308 593 308 593 291.5 608 c 128,-1,37
 275 623 275 623 244 623 c 0,38,39
 204 623 204 623 183.5 592.5 c 128,-1,40
 163 562 163 562 163 508 c 2,41,-1
 163 0 l 1,42,-1
 33 0 l 1,43,-1
 33 505 l 2,44,45
 33 555 33 555 44.5 597 c 128,-1,46
 56 639 56 639 81.5 670 c 128,-1,47
 107 701 107 701 146.5 718 c 128,-1,48
 186 735 186 735 241 735 c 0,49,50
 294 735 294 735 330.5 722 c 128,-1,51
 367 709 367 709 389.5 687.5 c 128,-1,52
 412 666 412 666 422 638 c 128,-1,53
 432 610 432 610 432 578 c 0,0,1
EndSplineSet
EndChar

StartChar: agrave
Encoding: 224 224 187
Width: 500
Flags: W
LayerCount: 2
Fore
SplineSet
254 511 m 0,0,1
 315 511 315 511 356.5 496.5 c 128,-1,2
 398 482 398 482 422 456 c 128,-1,3
 446 430 446 430 456.5 392.5 c 128,-1,4
 467 355 467 355 467 308 c 2,5,-1
 467 12 l 1,6,7
 438 6 438 6 382 -3 c 128,-1,8
 326 -12 326 -12 257 -12 c 0,9,10
 209 -12 209 -12 170 -3.5 c 128,-1,11
 131 5 131 5 103.5 25 c 128,-1,12
 76 45 76 45 61.5 76 c 128,-1,13
 47 107 47 107 47 153 c 0,14,15
 47 196 47 196 64 225.5 c 128,-1,16
 81 255 81 255 109.5 273.5 c 128,-1,17
 138 292 138 292 175 299.5 c 128,-1,18
 212 307 212 307 252 307 c 0,19,20
 303 307 303 307 342 299 c 1,21,-1
 342 315 l 2,22,23
 342 352 342 352 319 377 c 128,-1,24
 296 402 296 402 238 402 c 0,25,26
 201 402 201 402 166.5 396.5 c 128,-1,27
 132 391 132 391 111 384 c 1,28,-1
 93 489 l 1,29,30
 117 497 117 497 161.5 504 c 128,-1,31
 206 511 206 511 254 511 c 0,0,1
266 93 m 0,32,33
 287 93 287 93 307.5 93.5 c 128,-1,34
 328 94 328 94 342 96 c 1,35,-1
 342 211 l 1,36,37
 329 213 329 213 311.5 214.5 c 128,-1,38
 294 216 294 216 279 216 c 0,39,40
 259 216 259 216 239.5 213.5 c 128,-1,41
 220 211 220 211 206 204.5 c 128,-1,42
 192 198 192 198 183.5 186.5 c 128,-1,43
 175 175 175 175 175 156 c 0,44,45
 175 122 175 122 200.5 107.5 c 128,-1,46
 226 93 226 93 266 93 c 0,32,33
208 732 m 1,47,-1
 375 615 l 1,48,-1
 328 544 l 1,49,-1
 143 633 l 1,50,-1
 208 732 l 1,47,-1
EndSplineSet
Substitution2: "'case' +WSdlh1tXfUQwf3UoMGuKv2V0MFcwX1tXX2IA lookup 18 +MLUw1jDGMPww1jDr" Agrave
EndChar

StartChar: aacute
Encoding: 225 225 188
Width: 500
Flags: W
LayerCount: 2
Fore
SplineSet
254 511 m 0,0,1
 315 511 315 511 356.5 496.5 c 128,-1,2
 398 482 398 482 422 456 c 128,-1,3
 446 430 446 430 456.5 392.5 c 128,-1,4
 467 355 467 355 467 308 c 2,5,-1
 467 12 l 1,6,7
 438 6 438 6 382 -3 c 128,-1,8
 326 -12 326 -12 257 -12 c 0,9,10
 209 -12 209 -12 170 -3.5 c 128,-1,11
 131 5 131 5 103.5 25 c 128,-1,12
 76 45 76 45 61.5 76 c 128,-1,13
 47 107 47 107 47 153 c 0,14,15
 47 196 47 196 64 225.5 c 128,-1,16
 81 255 81 255 109.5 273.5 c 128,-1,17
 138 292 138 292 175 299.5 c 128,-1,18
 212 307 212 307 252 307 c 0,19,20
 303 307 303 307 342 299 c 1,21,-1
 342 315 l 2,22,23
 342 352 342 352 319 377 c 128,-1,24
 296 402 296 402 238 402 c 0,25,26
 201 402 201 402 166.5 396.5 c 128,-1,27
 132 391 132 391 111 384 c 1,28,-1
 93 489 l 1,29,30
 117 497 117 497 161.5 504 c 128,-1,31
 206 511 206 511 254 511 c 0,0,1
266 93 m 0,32,33
 287 93 287 93 307.5 93.5 c 128,-1,34
 328 94 328 94 342 96 c 1,35,-1
 342 211 l 1,36,37
 329 213 329 213 311.5 214.5 c 128,-1,38
 294 216 294 216 279 216 c 0,39,40
 259 216 259 216 239.5 213.5 c 128,-1,41
 220 211 220 211 206 204.5 c 128,-1,42
 192 198 192 198 183.5 186.5 c 128,-1,43
 175 175 175 175 175 156 c 0,44,45
 175 122 175 122 200.5 107.5 c 128,-1,46
 226 93 226 93 266 93 c 0,32,33
393 633 m 1,47,-1
 209 544 l 1,48,-1
 161 615 l 1,49,-1
 329 732 l 1,50,-1
 393 633 l 1,47,-1
EndSplineSet
Substitution2: "'case' +WSdlh1tXfUQwf3UoMGuKv2V0MFcwX1tXX2IA lookup 18 +MLUw1jDGMPww1jDr" Aacute
EndChar

StartChar: acircumflex
Encoding: 226 226 189
Width: 500
Flags: W
LayerCount: 2
Fore
SplineSet
254 511 m 0,0,1
 315 511 315 511 356.5 496.5 c 128,-1,2
 398 482 398 482 422 456 c 128,-1,3
 446 430 446 430 456.5 392.5 c 128,-1,4
 467 355 467 355 467 308 c 2,5,-1
 467 12 l 1,6,7
 438 6 438 6 382 -3 c 128,-1,8
 326 -12 326 -12 257 -12 c 0,9,10
 209 -12 209 -12 170 -3.5 c 128,-1,11
 131 5 131 5 103.5 25 c 128,-1,12
 76 45 76 45 61.5 76 c 128,-1,13
 47 107 47 107 47 153 c 0,14,15
 47 196 47 196 64 225.5 c 128,-1,16
 81 255 81 255 109.5 273.5 c 128,-1,17
 138 292 138 292 175 299.5 c 128,-1,18
 212 307 212 307 252 307 c 0,19,20
 303 307 303 307 342 299 c 1,21,-1
 342 315 l 2,22,23
 342 352 342 352 319 377 c 128,-1,24
 296 402 296 402 238 402 c 0,25,26
 201 402 201 402 166.5 396.5 c 128,-1,27
 132 391 132 391 111 384 c 1,28,-1
 93 489 l 1,29,30
 117 497 117 497 161.5 504 c 128,-1,31
 206 511 206 511 254 511 c 0,0,1
266 93 m 0,32,33
 287 93 287 93 307.5 93.5 c 128,-1,34
 328 94 328 94 342 96 c 1,35,-1
 342 211 l 1,36,37
 329 213 329 213 311.5 214.5 c 128,-1,38
 294 216 294 216 279 216 c 0,39,40
 259 216 259 216 239.5 213.5 c 128,-1,41
 220 211 220 211 206 204.5 c 128,-1,42
 192 198 192 198 183.5 186.5 c 128,-1,43
 175 175 175 175 175 156 c 0,44,45
 175 122 175 122 200.5 107.5 c 128,-1,46
 226 93 226 93 266 93 c 0,32,33
413 603 m 1,47,-1
 361 541 l 1,48,-1
 267 614 l 1,49,-1
 173 541 l 1,50,-1
 119 603 l 1,51,-1
 267 732 l 1,52,-1
 413 603 l 1,47,-1
EndSplineSet
Substitution2: "'case' +WSdlh1tXfUQwf3UoMGuKv2V0MFcwX1tXX2IA lookup 18 +MLUw1jDGMPww1jDr" Acircumflex
EndChar

StartChar: atilde
Encoding: 227 227 190
Width: 500
Flags: W
LayerCount: 2
Fore
SplineSet
254 511 m 0,0,1
 315 511 315 511 356.5 496.5 c 128,-1,2
 398 482 398 482 422 456 c 128,-1,3
 446 430 446 430 456.5 392.5 c 128,-1,4
 467 355 467 355 467 308 c 2,5,-1
 467 12 l 1,6,7
 438 6 438 6 382 -3 c 128,-1,8
 326 -12 326 -12 257 -12 c 0,9,10
 209 -12 209 -12 170 -3.5 c 128,-1,11
 131 5 131 5 103.5 25 c 128,-1,12
 76 45 76 45 61.5 76 c 128,-1,13
 47 107 47 107 47 153 c 0,14,15
 47 196 47 196 64 225.5 c 128,-1,16
 81 255 81 255 109.5 273.5 c 128,-1,17
 138 292 138 292 175 299.5 c 128,-1,18
 212 307 212 307 252 307 c 0,19,20
 303 307 303 307 342 299 c 1,21,-1
 342 315 l 2,22,23
 342 352 342 352 319 377 c 128,-1,24
 296 402 296 402 238 402 c 0,25,26
 201 402 201 402 166.5 396.5 c 128,-1,27
 132 391 132 391 111 384 c 1,28,-1
 93 489 l 1,29,30
 117 497 117 497 161.5 504 c 128,-1,31
 206 511 206 511 254 511 c 0,0,1
266 93 m 0,32,33
 287 93 287 93 307.5 93.5 c 128,-1,34
 328 94 328 94 342 96 c 1,35,-1
 342 211 l 1,36,37
 329 213 329 213 311.5 214.5 c 128,-1,38
 294 216 294 216 279 216 c 0,39,40
 259 216 259 216 239.5 213.5 c 128,-1,41
 220 211 220 211 206 204.5 c 128,-1,42
 192 198 192 198 183.5 186.5 c 128,-1,43
 175 175 175 175 175 156 c 0,44,45
 175 122 175 122 200.5 107.5 c 128,-1,46
 226 93 226 93 266 93 c 0,32,33
439 671 m 1,47,48
 434 656 434 656 423.5 639.5 c 128,-1,49
 413 623 413 623 399 608.5 c 128,-1,50
 385 594 385 594 367 584.5 c 128,-1,51
 349 575 349 575 328 575 c 0,52,53
 311 575 311 575 296.5 580 c 128,-1,54
 282 585 282 585 267.5 591 c 128,-1,55
 253 597 253 597 239 602 c 128,-1,56
 225 607 225 607 209 607 c 0,57,58
 191 607 191 607 178.5 595 c 128,-1,59
 166 583 166 583 158 567 c 1,60,-1
 95 608 l 1,61,62
 100 623 100 623 110.5 640 c 128,-1,63
 121 657 121 657 135 672 c 128,-1,64
 149 687 149 687 167.5 696.5 c 128,-1,65
 186 706 186 706 208 706 c 0,66,67
 225 706 225 706 239 700.5 c 128,-1,68
 253 695 253 695 267.5 689.5 c 128,-1,69
 282 684 282 684 296 678.5 c 128,-1,70
 310 673 310 673 325 673 c 0,71,72
 343 673 343 673 356 684.5 c 128,-1,73
 369 696 369 696 376 712 c 1,74,-1
 439 671 l 1,47,48
EndSplineSet
Substitution2: "'case' +WSdlh1tXfUQwf3UoMGuKv2V0MFcwX1tXX2IA lookup 18 +MLUw1jDGMPww1jDr" Atilde
EndChar

StartChar: adieresis
Encoding: 228 228 191
Width: 500
Flags: W
LayerCount: 2
Fore
SplineSet
254 511 m 0,0,1
 315 511 315 511 356.5 496.5 c 128,-1,2
 398 482 398 482 422 456 c 128,-1,3
 446 430 446 430 456.5 392.5 c 128,-1,4
 467 355 467 355 467 308 c 2,5,-1
 467 12 l 1,6,7
 438 6 438 6 382 -3 c 128,-1,8
 326 -12 326 -12 257 -12 c 0,9,10
 209 -12 209 -12 170 -3.5 c 128,-1,11
 131 5 131 5 103.5 25 c 128,-1,12
 76 45 76 45 61.5 76 c 128,-1,13
 47 107 47 107 47 153 c 0,14,15
 47 196 47 196 64 225.5 c 128,-1,16
 81 255 81 255 109.5 273.5 c 128,-1,17
 138 292 138 292 175 299.5 c 128,-1,18
 212 307 212 307 252 307 c 0,19,20
 303 307 303 307 342 299 c 1,21,-1
 342 315 l 2,22,23
 342 352 342 352 319 377 c 128,-1,24
 296 402 296 402 238 402 c 0,25,26
 201 402 201 402 166.5 396.5 c 128,-1,27
 132 391 132 391 111 384 c 1,28,-1
 93 489 l 1,29,30
 117 497 117 497 161.5 504 c 128,-1,31
 206 511 206 511 254 511 c 0,0,1
266 93 m 0,32,33
 287 93 287 93 307.5 93.5 c 128,-1,34
 328 94 328 94 342 96 c 1,35,-1
 342 211 l 1,36,37
 329 213 329 213 311.5 214.5 c 128,-1,38
 294 216 294 216 279 216 c 0,39,40
 259 216 259 216 239.5 213.5 c 128,-1,41
 220 211 220 211 206 204.5 c 128,-1,42
 192 198 192 198 183.5 186.5 c 128,-1,43
 175 175 175 175 175 156 c 0,44,45
 175 122 175 122 200.5 107.5 c 128,-1,46
 226 93 226 93 266 93 c 0,32,33
372 570 m 128,-1,48
 342 570 342 570 320.5 588.5 c 128,-1,49
 299 607 299 607 299 641 c 128,-1,50
 299 675 299 675 320.5 694 c 128,-1,51
 342 713 342 713 372 713 c 128,-1,52
 402 713 402 713 423.5 694 c 128,-1,53
 445 675 445 675 445 641 c 128,-1,54
 445 607 445 607 423.5 588.5 c 128,-1,47
 402 570 402 570 372 570 c 128,-1,48
161 570 m 0,55,56
 131 570 131 570 109.5 588.5 c 128,-1,57
 88 607 88 607 88 641 c 128,-1,58
 88 675 88 675 109.5 694 c 128,-1,59
 131 713 131 713 161 713 c 0,60,61
 190 713 190 713 212 694 c 128,-1,62
 234 675 234 675 234 641 c 128,-1,63
 234 607 234 607 212 588.5 c 128,-1,64
 190 570 190 570 161 570 c 0,55,56
EndSplineSet
Substitution2: "'case' +WSdlh1tXfUQwf3UoMGuKv2V0MFcwX1tXX2IA lookup 18 +MLUw1jDGMPww1jDr" Adieresis
EndChar

StartChar: aring
Encoding: 229 229 192
Width: 500
Flags: W
LayerCount: 2
Fore
SplineSet
254 511 m 0,0,1
 315 511 315 511 356.5 496.5 c 128,-1,2
 398 482 398 482 422 456 c 128,-1,3
 446 430 446 430 456.5 392.5 c 128,-1,4
 467 355 467 355 467 308 c 2,5,-1
 467 12 l 1,6,7
 438 6 438 6 382 -3 c 128,-1,8
 326 -12 326 -12 257 -12 c 0,9,10
 209 -12 209 -12 170 -3.5 c 128,-1,11
 131 5 131 5 103.5 25 c 128,-1,12
 76 45 76 45 61.5 76 c 128,-1,13
 47 107 47 107 47 153 c 0,14,15
 47 196 47 196 64 225.5 c 128,-1,16
 81 255 81 255 109.5 273.5 c 128,-1,17
 138 292 138 292 175 299.5 c 128,-1,18
 212 307 212 307 252 307 c 0,19,20
 303 307 303 307 342 299 c 1,21,-1
 342 315 l 2,22,23
 342 352 342 352 319 377 c 128,-1,24
 296 402 296 402 238 402 c 0,25,26
 201 402 201 402 166.5 396.5 c 128,-1,27
 132 391 132 391 111 384 c 1,28,-1
 93 489 l 1,29,30
 117 497 117 497 161.5 504 c 128,-1,31
 206 511 206 511 254 511 c 0,0,1
266 93 m 0,32,33
 287 93 287 93 307.5 93.5 c 128,-1,34
 328 94 328 94 342 96 c 1,35,-1
 342 211 l 1,36,37
 329 213 329 213 311.5 214.5 c 128,-1,38
 294 216 294 216 279 216 c 0,39,40
 259 216 259 216 239.5 213.5 c 128,-1,41
 220 211 220 211 206 204.5 c 128,-1,42
 192 198 192 198 183.5 186.5 c 128,-1,43
 175 175 175 175 175 156 c 0,44,45
 175 122 175 122 200.5 107.5 c 128,-1,46
 226 93 226 93 266 93 c 0,32,33
307 640 m 0,47,48
 307 662 307 662 294.5 673.5 c 128,-1,49
 282 685 282 685 264 685 c 0,50,51
 248 685 248 685 235 673.5 c 128,-1,52
 222 662 222 662 222 640 c 0,53,54
 222 619 222 619 235 607.5 c 128,-1,55
 248 596 248 596 264 596 c 0,56,57
 282 596 282 596 294.5 607.5 c 128,-1,58
 307 619 307 619 307 640 c 0,47,48
376 640 m 0,59,60
 376 587 376 587 343 559.5 c 128,-1,61
 310 532 310 532 264 532 c 0,62,63
 243 532 243 532 222.5 539 c 128,-1,64
 202 546 202 546 187 559.5 c 128,-1,65
 172 573 172 573 163 593.5 c 128,-1,66
 154 614 154 614 154 640.5 c 128,-1,67
 154 667 154 667 163 687.5 c 128,-1,68
 172 708 172 708 187 722 c 128,-1,69
 202 736 202 736 222.5 742.5 c 128,-1,70
 243 749 243 749 264 749 c 0,71,72
 310 749 310 749 343 721.5 c 128,-1,73
 376 694 376 694 376 640 c 0,59,60
EndSplineSet
Substitution2: "'case' +WSdlh1tXfUQwf3UoMGuKv2V0MFcwX1tXX2IA lookup 18 +MLUw1jDGMPww1jDr" Aring
EndChar

StartChar: ae
Encoding: 230 230 193
Width: 500
Flags: W
LayerCount: 2
Fore
SplineSet
375 407 m 128,-1,1
 361 407 361 407 352 397 c 128,-1,2
 343 387 343 387 337.5 371 c 128,-1,3
 332 355 332 355 329 335.5 c 128,-1,4
 326 316 326 316 326 297 c 1,5,-1
 420 297 l 1,6,7
 420 317 420 317 418 337 c 128,-1,8
 416 357 416 357 411 372.5 c 128,-1,9
 406 388 406 388 397.5 397.5 c 128,-1,0
 389 407 389 407 375 407 c 128,-1,1
226 211 m 1,10,11
 216 214 216 214 206 215 c 128,-1,12
 196 216 196 216 188 216 c 0,13,14
 160 216 160 216 142.5 202.5 c 128,-1,15
 125 189 125 189 125 155 c 0,16,17
 125 126 125 126 140 109 c 128,-1,18
 155 92 155 92 183 92 c 0,19,20
 207 92 207 92 235 105 c 1,21,22
 229 133 229 133 227.5 160.5 c 128,-1,23
 226 188 226 188 226 211 c 1,10,11
173 511 m 0,24,25
 206 511 206 511 235 497.5 c 128,-1,26
 264 484 264 484 286 454 c 1,27,28
 304 482 304 482 326.5 496.5 c 128,-1,29
 349 511 349 511 375 511 c 0,30,31
 406 511 406 511 432 498 c 128,-1,32
 458 485 458 485 477 456.5 c 128,-1,33
 496 428 496 428 506.5 381.5 c 128,-1,34
 517 335 517 335 517 267 c 0,35,36
 517 254 517 254 517 235.5 c 128,-1,37
 517 217 517 217 515 207 c 1,38,-1
 325 207 l 1,39,40
 326 177 326 177 333.5 156.5 c 128,-1,41
 341 136 341 136 353 122.5 c 128,-1,42
 365 109 365 109 379.5 103.5 c 128,-1,43
 394 98 394 98 411 98 c 0,44,45
 430 98 430 98 448.5 102.5 c 128,-1,46
 467 107 467 107 482 116 c 1,47,-1
 501 13 l 1,48,49
 477 0 477 0 453 -6 c 0,50,51
 430 -12 430 -12 398 -12 c 0,52,53
 361 -12 361 -12 334 3 c 128,-1,54
 307 18 307 18 289 40 c 1,55,56
 265 12 265 12 233.5 0 c 128,-1,57
 202 -12 202 -12 172 -12 c 0,58,59
 136 -12 136 -12 108.5 2.5 c 128,-1,60
 81 17 81 17 62 40.5 c 128,-1,61
 43 64 43 64 33.5 93.5 c 128,-1,62
 24 123 24 123 24 154 c 0,63,64
 24 226 24 226 65 266.5 c 128,-1,65
 106 307 106 307 170 307 c 0,66,67
 184 307 184 307 197.5 305.5 c 128,-1,68
 211 304 211 304 226 299 c 1,69,-1
 226 323 l 2,70,71
 226 370 226 370 209.5 388 c 128,-1,72
 193 406 193 406 164 406 c 0,73,74
 146 406 146 406 125.5 400 c 128,-1,75
 105 394 105 394 81 386 c 1,76,-1
 63 487 l 1,77,78
 91 499 91 499 118 505 c 128,-1,79
 145 511 145 511 173 511 c 0,24,25
EndSplineSet
Substitution2: "'case' +WSdlh1tXfUQwf3UoMGuKv2V0MFcwX1tXX2IA lookup 18 +MLUw1jDGMPww1jDr" AE
EndChar

StartChar: ccedilla
Encoding: 231 231 194
Width: 500
Flags: W
LayerCount: 2
Fore
SplineSet
47 249 m 0,0,1
 47 303 47 303 64 351 c 128,-1,2
 81 399 81 399 116 434.5 c 128,-1,3
 151 470 151 470 204.5 490.5 c 128,-1,4
 258 511 258 511 332 511 c 0,5,6
 377 511 377 511 412.5 504.5 c 128,-1,7
 448 498 448 498 485 483 c 1,8,-1
 457 378 l 1,9,10
 436 385 436 385 410 391.5 c 128,-1,11
 384 398 384 398 343 398 c 0,12,13
 296 398 296 398 265 386.5 c 128,-1,14
 234 375 234 375 215 355.5 c 128,-1,15
 196 336 196 336 187.5 308.5 c 128,-1,16
 179 281 179 281 179 249 c 0,17,18
 179 180 179 180 218 141 c 128,-1,19
 257 102 257 102 350 102 c 0,20,21
 381 102 381 102 414 106 c 128,-1,22
 447 110 447 110 475 120 c 1,23,-1
 494 13 l 1,24,25
 466 2 466 2 427 -5 c 128,-1,26
 388 -12 388 -12 335 -12 c 2,27,-1
 323 -12 l 1,28,-1
 318 -25 l 1,29,30
 353 -36 353 -36 367 -56.5 c 128,-1,31
 381 -77 381 -77 381 -96 c 0,32,33
 381 -120 381 -120 369.5 -136.5 c 128,-1,34
 358 -153 358 -153 340.5 -162.5 c 128,-1,35
 323 -172 323 -172 300 -176 c 128,-1,36
 277 -180 277 -180 253 -180 c 0,37,38
 205 -180 205 -180 169 -169 c 1,39,-1
 182 -102 l 1,40,41
 188 -104 188 -104 206.5 -107.5 c 128,-1,42
 225 -111 225 -111 242 -111 c 0,43,44
 285 -111 285 -111 285 -85 c 0,45,46
 285 -65 285 -65 247 -52 c 2,47,-1
 226 -46 l 1,48,49
 232 -24 232 -24 243 -2 c 1,50,51
 191 9 191 9 154 32 c 128,-1,52
 117 55 117 55 93 88 c 128,-1,53
 69 121 69 121 58 161.5 c 128,-1,54
 47 202 47 202 47 249 c 0,0,1
EndSplineSet
Substitution2: "'case' +WSdlh1tXfUQwf3UoMGuKv2V0MFcwX1tXX2IA lookup 18 +MLUw1jDGMPww1jDr" Ccedilla
EndChar

StartChar: egrave
Encoding: 232 232 195
Width: 500
Flags: W
LayerCount: 2
Fore
SplineSet
367 297 m 1,0,1
 367 317 367 317 361.5 335.5 c 128,-1,2
 356 354 356 354 344.5 369 c 128,-1,3
 333 384 333 384 315 393 c 128,-1,4
 297 402 297 402 270 402 c 0,5,6
 245 402 245 402 226.5 393.5 c 128,-1,7
 208 385 208 385 195.5 370 c 128,-1,8
 183 355 183 355 176.5 336 c 128,-1,9
 170 317 170 317 167 297 c 1,10,-1
 367 297 l 1,0,1
33 245 m 0,11,12
 33 311 33 311 53 360.5 c 128,-1,13
 73 410 73 410 106 443.5 c 128,-1,14
 139 477 139 477 181.5 494 c 128,-1,15
 224 511 224 511 268 511 c 0,16,17
 378 511 378 511 435.5 446 c 128,-1,18
 493 381 493 381 493 255 c 0,19,20
 493 242 493 242 492.5 228.5 c 128,-1,21
 492 215 492 215 491 207 c 1,22,-1
 167 207 l 1,23,24
 167 158 167 158 207.5 130 c 128,-1,25
 248 102 248 102 312 102 c 0,26,27
 351 102 351 102 386.5 110.5 c 128,-1,28
 422 119 422 119 446 127 c 1,29,-1
 464 16 l 1,30,31
 430 4 430 4 392 -4 c 128,-1,32
 354 -12 354 -12 306 -12 c 0,33,34
 242 -12 242 -12 192 4.5 c 128,-1,35
 142 21 142 21 106.5 53.5 c 128,-1,36
 71 86 71 86 52 133.5 c 128,-1,37
 33 181 33 181 33 245 c 0,11,12
208 732 m 1,38,-1
 375 615 l 1,39,-1
 328 544 l 1,40,-1
 143 633 l 1,41,-1
 208 732 l 1,38,-1
EndSplineSet
Substitution2: "'case' +WSdlh1tXfUQwf3UoMGuKv2V0MFcwX1tXX2IA lookup 18 +MLUw1jDGMPww1jDr" Egrave
EndChar

StartChar: eacute
Encoding: 233 233 196
Width: 500
Flags: W
LayerCount: 2
Fore
SplineSet
367 297 m 1,0,1
 367 317 367 317 361.5 335.5 c 128,-1,2
 356 354 356 354 344.5 369 c 128,-1,3
 333 384 333 384 315 393 c 128,-1,4
 297 402 297 402 270 402 c 0,5,6
 245 402 245 402 226.5 393.5 c 128,-1,7
 208 385 208 385 195.5 370 c 128,-1,8
 183 355 183 355 176.5 336 c 128,-1,9
 170 317 170 317 167 297 c 1,10,-1
 367 297 l 1,0,1
33 245 m 0,11,12
 33 311 33 311 53 360.5 c 128,-1,13
 73 410 73 410 106 443.5 c 128,-1,14
 139 477 139 477 181.5 494 c 128,-1,15
 224 511 224 511 268 511 c 0,16,17
 378 511 378 511 435.5 446 c 128,-1,18
 493 381 493 381 493 255 c 0,19,20
 493 242 493 242 492.5 228.5 c 128,-1,21
 492 215 492 215 491 207 c 1,22,-1
 167 207 l 1,23,24
 167 158 167 158 207.5 130 c 128,-1,25
 248 102 248 102 312 102 c 0,26,27
 351 102 351 102 386.5 110.5 c 128,-1,28
 422 119 422 119 446 127 c 1,29,-1
 464 16 l 1,30,31
 430 4 430 4 392 -4 c 128,-1,32
 354 -12 354 -12 306 -12 c 0,33,34
 242 -12 242 -12 192 4.5 c 128,-1,35
 142 21 142 21 106.5 53.5 c 128,-1,36
 71 86 71 86 52 133.5 c 128,-1,37
 33 181 33 181 33 245 c 0,11,12
403 633 m 1,38,-1
 218 544 l 1,39,-1
 171 615 l 1,40,-1
 338 732 l 1,41,-1
 403 633 l 1,38,-1
EndSplineSet
Substitution2: "'case' +WSdlh1tXfUQwf3UoMGuKv2V0MFcwX1tXX2IA lookup 18 +MLUw1jDGMPww1jDr" Eacute
EndChar

StartChar: ecircumflex
Encoding: 234 234 197
Width: 500
Flags: W
LayerCount: 2
Fore
SplineSet
367 297 m 1,0,1
 367 317 367 317 361.5 335.5 c 128,-1,2
 356 354 356 354 344.5 369 c 128,-1,3
 333 384 333 384 315 393 c 128,-1,4
 297 402 297 402 270 402 c 0,5,6
 245 402 245 402 226.5 393.5 c 128,-1,7
 208 385 208 385 195.5 370 c 128,-1,8
 183 355 183 355 176.5 336 c 128,-1,9
 170 317 170 317 167 297 c 1,10,-1
 367 297 l 1,0,1
33 245 m 0,11,12
 33 311 33 311 53 360.5 c 128,-1,13
 73 410 73 410 106 443.5 c 128,-1,14
 139 477 139 477 181.5 494 c 128,-1,15
 224 511 224 511 268 511 c 0,16,17
 378 511 378 511 435.5 446 c 128,-1,18
 493 381 493 381 493 255 c 0,19,20
 493 242 493 242 492.5 228.5 c 128,-1,21
 492 215 492 215 491 207 c 1,22,-1
 167 207 l 1,23,24
 167 158 167 158 207.5 130 c 128,-1,25
 248 102 248 102 312 102 c 0,26,27
 351 102 351 102 386.5 110.5 c 128,-1,28
 422 119 422 119 446 127 c 1,29,-1
 464 16 l 1,30,31
 430 4 430 4 392 -4 c 128,-1,32
 354 -12 354 -12 306 -12 c 0,33,34
 242 -12 242 -12 192 4.5 c 128,-1,35
 142 21 142 21 106.5 53.5 c 128,-1,36
 71 86 71 86 52 133.5 c 128,-1,37
 33 181 33 181 33 245 c 0,11,12
418 603 m 1,38,-1
 366 541 l 1,39,-1
 271 614 l 1,40,-1
 177 541 l 1,41,-1
 123 603 l 1,42,-1
 271 732 l 1,43,-1
 418 603 l 1,38,-1
EndSplineSet
Substitution2: "'case' +WSdlh1tXfUQwf3UoMGuKv2V0MFcwX1tXX2IA lookup 18 +MLUw1jDGMPww1jDr" Ecircumflex
EndChar

StartChar: edieresis
Encoding: 235 235 198
Width: 500
Flags: W
LayerCount: 2
Fore
SplineSet
367 297 m 1,0,1
 367 317 367 317 361.5 335.5 c 128,-1,2
 356 354 356 354 344.5 369 c 128,-1,3
 333 384 333 384 315 393 c 128,-1,4
 297 402 297 402 270 402 c 0,5,6
 245 402 245 402 226.5 393.5 c 128,-1,7
 208 385 208 385 195.5 370 c 128,-1,8
 183 355 183 355 176.5 336 c 128,-1,9
 170 317 170 317 167 297 c 1,10,-1
 367 297 l 1,0,1
33 245 m 0,11,12
 33 311 33 311 53 360.5 c 128,-1,13
 73 410 73 410 106 443.5 c 128,-1,14
 139 477 139 477 181.5 494 c 128,-1,15
 224 511 224 511 268 511 c 0,16,17
 378 511 378 511 435.5 446 c 128,-1,18
 493 381 493 381 493 255 c 0,19,20
 493 242 493 242 492.5 228.5 c 128,-1,21
 492 215 492 215 491 207 c 1,22,-1
 167 207 l 1,23,24
 167 158 167 158 207.5 130 c 128,-1,25
 248 102 248 102 312 102 c 0,26,27
 351 102 351 102 386.5 110.5 c 128,-1,28
 422 119 422 119 446 127 c 1,29,-1
 464 16 l 1,30,31
 430 4 430 4 392 -4 c 128,-1,32
 354 -12 354 -12 306 -12 c 0,33,34
 242 -12 242 -12 192 4.5 c 128,-1,35
 142 21 142 21 106.5 53.5 c 128,-1,36
 71 86 71 86 52 133.5 c 128,-1,37
 33 181 33 181 33 245 c 0,11,12
372 570 m 128,-1,39
 342 570 342 570 320.5 588.5 c 128,-1,40
 299 607 299 607 299 641 c 128,-1,41
 299 675 299 675 320.5 694 c 128,-1,42
 342 713 342 713 372 713 c 128,-1,43
 402 713 402 713 423.5 694 c 128,-1,44
 445 675 445 675 445 641 c 128,-1,45
 445 607 445 607 423.5 588.5 c 128,-1,38
 402 570 402 570 372 570 c 128,-1,39
161 570 m 0,46,47
 131 570 131 570 109.5 588.5 c 128,-1,48
 88 607 88 607 88 641 c 128,-1,49
 88 675 88 675 109.5 694 c 128,-1,50
 131 713 131 713 161 713 c 0,51,52
 190 713 190 713 212 694 c 128,-1,53
 234 675 234 675 234 641 c 128,-1,54
 234 607 234 607 212 588.5 c 128,-1,55
 190 570 190 570 161 570 c 0,46,47
EndSplineSet
Substitution2: "'case' +WSdlh1tXfUQwf3UoMGuKv2V0MFcwX1tXX2IA lookup 18 +MLUw1jDGMPww1jDr" Edieresis
EndChar

